<?xml version="1.0" encoding="UTF-8" standalone="no"?>
<!DOCTYPE svg PUBLIC "-//W3C//DTD SVG 1.1//EN" "http://www.w3.org/Graphics/SVG/1.1/DTD/svg11.dtd">
<svg width="100%" height="100%" viewBox="0 0 1042 249" version="1.1" xmlns="http://www.w3.org/2000/svg" xmlns:xlink="http://www.w3.org/1999/xlink" xml:space="preserve" xmlns:serif="http://www.serif.com/" style="fill-rule:evenodd;clip-rule:evenodd;stroke-linejoin:round;stroke-miterlimit:2;">
    <g>
        <g transform="matrix(42.5951,0,0,42.5951,584.125,93.8172)">
            <path d="M0.083,-0L0.083,-0.654L0.289,-0.654C0.338,-0.654 0.381,-0.648 0.419,-0.635C0.457,-0.622 0.487,-0.601 0.509,-0.572C0.531,-0.543 0.542,-0.503 0.542,-0.452C0.542,-0.404 0.531,-0.364 0.509,-0.333C0.487,-0.302 0.458,-0.278 0.42,-0.263C0.382,-0.248 0.34,-0.24 0.293,-0.24L0.199,-0.24L0.199,-0L0.083,-0ZM0.199,-0.333L0.284,-0.333C0.333,-0.333 0.369,-0.343 0.392,-0.363C0.416,-0.383 0.428,-0.413 0.428,-0.452C0.428,-0.493 0.415,-0.522 0.39,-0.537C0.365,-0.553 0.328,-0.561 0.28,-0.561L0.199,-0.561L0.199,-0.333Z" style="fill:white;fill-opacity:0.85;fill-rule:nonzero;"/>
        </g>
        <g transform="matrix(42.5951,0,0,42.5951,606.087,93.8172)">
            <path d="M0.274,0.012C0.234,0.012 0.195,0.002 0.16,-0.018C0.124,-0.039 0.096,-0.068 0.074,-0.106C0.052,-0.145 0.041,-0.191 0.041,-0.245C0.041,-0.3 0.052,-0.346 0.074,-0.385C0.096,-0.423 0.124,-0.453 0.16,-0.473C0.195,-0.493 0.234,-0.503 0.274,-0.503C0.315,-0.503 0.353,-0.493 0.389,-0.473C0.424,-0.453 0.453,-0.423 0.475,-0.385C0.497,-0.346 0.508,-0.3 0.508,-0.245C0.508,-0.191 0.497,-0.145 0.475,-0.106C0.453,-0.068 0.424,-0.039 0.389,-0.018C0.353,0.002 0.315,0.012 0.274,0.012ZM0.274,-0.082C0.298,-0.082 0.319,-0.089 0.336,-0.102C0.354,-0.116 0.367,-0.135 0.376,-0.159C0.385,-0.184 0.39,-0.212 0.39,-0.245C0.39,-0.278 0.385,-0.307 0.376,-0.331C0.367,-0.356 0.354,-0.375 0.336,-0.389C0.319,-0.402 0.298,-0.409 0.274,-0.409C0.25,-0.409 0.23,-0.402 0.213,-0.389C0.195,-0.375 0.182,-0.356 0.173,-0.331C0.164,-0.307 0.159,-0.278 0.159,-0.245C0.159,-0.212 0.164,-0.184 0.173,-0.159C0.182,-0.135 0.195,-0.116 0.213,-0.102C0.23,-0.089 0.25,-0.082 0.274,-0.082Z" style="fill:white;fill-opacity:0.85;fill-rule:nonzero;"/>
        </g>
        <g transform="matrix(42.5951,0,0,42.5951,627.759,93.8172)">
            <path d="M0.154,-0L0.024,-0.491L0.142,-0.491L0.2,-0.236C0.205,-0.214 0.21,-0.192 0.214,-0.169C0.218,-0.146 0.222,-0.119 0.225,-0.09L0.229,-0.09C0.234,-0.119 0.238,-0.146 0.242,-0.169C0.247,-0.192 0.251,-0.214 0.256,-0.236L0.316,-0.491L0.436,-0.491L0.498,-0.236C0.503,-0.214 0.508,-0.192 0.513,-0.169C0.518,-0.146 0.522,-0.119 0.527,-0.09L0.531,-0.09C0.536,-0.119 0.54,-0.146 0.543,-0.169C0.547,-0.192 0.551,-0.214 0.556,-0.236L0.614,-0.491L0.724,-0.491L0.599,0L0.452,0L0.402,-0.228C0.397,-0.25 0.393,-0.272 0.388,-0.294C0.384,-0.317 0.38,-0.344 0.376,-0.376L0.372,-0.376C0.368,-0.344 0.364,-0.317 0.36,-0.294C0.356,-0.272 0.351,-0.25 0.346,-0.228L0.296,-0L0.154,-0Z" style="fill:white;fill-opacity:0.85;fill-rule:nonzero;"/>
        </g>
        <g transform="matrix(42.5951,0,0,42.5951,657.917,93.8172)">
            <path d="M0.284,0.012C0.238,0.012 0.196,0.002 0.159,-0.019C0.122,-0.039 0.093,-0.068 0.072,-0.106C0.051,-0.145 0.04,-0.191 0.04,-0.246C0.04,-0.299 0.051,-0.345 0.073,-0.383C0.095,-0.422 0.123,-0.451 0.158,-0.472C0.193,-0.493 0.229,-0.503 0.268,-0.503C0.313,-0.503 0.35,-0.493 0.38,-0.473C0.41,-0.453 0.432,-0.426 0.448,-0.391C0.463,-0.356 0.47,-0.315 0.47,-0.27C0.47,-0.259 0.469,-0.249 0.468,-0.239C0.467,-0.229 0.466,-0.219 0.464,-0.21L0.126,-0.21L0.126,-0.298L0.368,-0.298C0.368,-0.333 0.36,-0.361 0.344,-0.382C0.328,-0.402 0.303,-0.412 0.27,-0.412C0.251,-0.412 0.233,-0.407 0.216,-0.397C0.198,-0.387 0.183,-0.37 0.172,-0.346C0.16,-0.322 0.154,-0.289 0.154,-0.246C0.154,-0.207 0.161,-0.176 0.174,-0.152C0.187,-0.127 0.205,-0.109 0.227,-0.098C0.249,-0.086 0.273,-0.08 0.298,-0.08C0.319,-0.08 0.34,-0.083 0.359,-0.089C0.378,-0.095 0.395,-0.103 0.412,-0.114L0.452,-0.04C0.429,-0.024 0.404,-0.011 0.375,-0.002C0.346,0.007 0.315,0.012 0.284,0.012Z" style="fill:white;fill-opacity:0.85;fill-rule:nonzero;"/>
        </g>
        <g transform="matrix(42.5951,0,0,42.5951,677.808,93.8172)">
            <path d="M0.073,-0L0.073,-0.491L0.168,-0.491L0.176,-0.404L0.18,-0.404C0.197,-0.436 0.218,-0.46 0.242,-0.478C0.267,-0.495 0.292,-0.503 0.319,-0.503C0.332,-0.503 0.342,-0.502 0.351,-0.501C0.36,-0.499 0.368,-0.497 0.375,-0.493L0.352,-0.395C0.344,-0.397 0.337,-0.399 0.33,-0.4C0.324,-0.401 0.315,-0.401 0.304,-0.401C0.285,-0.401 0.264,-0.394 0.243,-0.379C0.221,-0.364 0.203,-0.337 0.188,-0.3L0.188,0L0.073,0Z" style="fill:white;fill-opacity:0.85;fill-rule:nonzero;"/>
        </g>
        <g transform="matrix(42.5951,0,0,42.5951,691.575,93.8172)">
            <path d="M0.284,0.012C0.238,0.012 0.196,0.002 0.159,-0.019C0.122,-0.039 0.093,-0.068 0.072,-0.106C0.051,-0.145 0.04,-0.191 0.04,-0.246C0.04,-0.299 0.051,-0.345 0.073,-0.383C0.095,-0.422 0.123,-0.451 0.158,-0.472C0.193,-0.493 0.229,-0.503 0.268,-0.503C0.313,-0.503 0.35,-0.493 0.38,-0.473C0.41,-0.453 0.432,-0.426 0.448,-0.391C0.463,-0.356 0.47,-0.315 0.47,-0.27C0.47,-0.259 0.469,-0.249 0.468,-0.239C0.467,-0.229 0.466,-0.219 0.464,-0.21L0.126,-0.21L0.126,-0.298L0.368,-0.298C0.368,-0.333 0.36,-0.361 0.344,-0.382C0.328,-0.402 0.303,-0.412 0.27,-0.412C0.251,-0.412 0.233,-0.407 0.216,-0.397C0.198,-0.387 0.183,-0.37 0.172,-0.346C0.16,-0.322 0.154,-0.289 0.154,-0.246C0.154,-0.207 0.161,-0.176 0.174,-0.152C0.187,-0.127 0.205,-0.109 0.227,-0.098C0.249,-0.086 0.273,-0.08 0.298,-0.08C0.319,-0.08 0.34,-0.083 0.359,-0.089C0.378,-0.095 0.395,-0.103 0.412,-0.114L0.452,-0.04C0.429,-0.024 0.404,-0.011 0.375,-0.002C0.346,0.007 0.315,0.012 0.284,0.012Z" style="fill:white;fill-opacity:0.85;fill-rule:nonzero;"/>
        </g>
        <g transform="matrix(42.5951,0,0,42.5951,711.467,93.8172)">
            <path d="M0.245,0.012C0.184,0.012 0.135,-0.011 0.098,-0.056C0.062,-0.102 0.043,-0.165 0.043,-0.245C0.043,-0.299 0.053,-0.344 0.073,-0.383C0.092,-0.421 0.118,-0.451 0.15,-0.472C0.182,-0.493 0.215,-0.503 0.251,-0.503C0.279,-0.503 0.303,-0.498 0.323,-0.489C0.342,-0.479 0.361,-0.466 0.38,-0.449L0.376,-0.528L0.376,-0.706L0.491,-0.706L0.491,0L0.396,0L0.388,-0.053L0.384,-0.053C0.366,-0.035 0.345,-0.02 0.321,-0.007C0.297,0.006 0.271,0.012 0.245,0.012ZM0.273,-0.083C0.292,-0.083 0.31,-0.088 0.327,-0.096C0.343,-0.105 0.36,-0.119 0.376,-0.138L0.376,-0.367C0.359,-0.382 0.342,-0.393 0.326,-0.399C0.309,-0.405 0.293,-0.408 0.276,-0.408C0.255,-0.408 0.236,-0.402 0.219,-0.389C0.201,-0.377 0.188,-0.358 0.177,-0.334C0.167,-0.31 0.162,-0.281 0.162,-0.246C0.162,-0.193 0.171,-0.153 0.191,-0.125C0.211,-0.097 0.238,-0.083 0.273,-0.083Z" style="fill:white;fill-opacity:0.85;fill-rule:nonzero;"/>
        </g>
        <g transform="matrix(42.5951,0,0,42.5951,740.602,93.8172)">
            <path d="M0.311,0.012C0.289,0.012 0.266,0.006 0.243,-0.005C0.22,-0.015 0.198,-0.031 0.177,-0.052L0.174,-0.052L0.164,-0L0.073,-0L0.073,-0.706L0.188,-0.706L0.188,-0.524L0.185,-0.442C0.206,-0.46 0.228,-0.475 0.253,-0.486C0.277,-0.498 0.302,-0.503 0.327,-0.503C0.368,-0.503 0.403,-0.493 0.432,-0.472C0.461,-0.452 0.483,-0.423 0.498,-0.386C0.513,-0.348 0.521,-0.304 0.521,-0.254C0.521,-0.198 0.511,-0.15 0.491,-0.11C0.471,-0.07 0.445,-0.04 0.414,-0.019C0.382,0.002 0.348,0.012 0.311,0.012ZM0.287,-0.083C0.309,-0.083 0.328,-0.09 0.346,-0.102C0.363,-0.115 0.377,-0.134 0.387,-0.159C0.397,-0.184 0.402,-0.215 0.402,-0.252C0.402,-0.285 0.399,-0.313 0.391,-0.336C0.384,-0.359 0.372,-0.377 0.357,-0.389C0.341,-0.402 0.321,-0.408 0.296,-0.408C0.278,-0.408 0.261,-0.404 0.243,-0.395C0.225,-0.386 0.207,-0.372 0.188,-0.353L0.188,-0.124C0.206,-0.109 0.223,-0.099 0.24,-0.093C0.257,-0.086 0.273,-0.083 0.287,-0.083Z" style="fill:white;fill-opacity:0.85;fill-rule:nonzero;"/>
        </g>
        <g transform="matrix(42.5951,0,0,42.5951,762.888,93.8172)">
            <path d="M0.106,0.202C0.092,0.202 0.081,0.201 0.071,0.199C0.06,0.197 0.051,0.194 0.042,0.19L0.064,0.104C0.071,0.106 0.077,0.107 0.082,0.108C0.088,0.109 0.093,0.109 0.098,0.109C0.124,0.109 0.145,0.101 0.161,0.085C0.176,0.069 0.188,0.049 0.196,0.025L0.205,-0.006L0.012,-0.491L0.129,-0.491L0.214,-0.25C0.221,-0.229 0.229,-0.206 0.236,-0.183C0.243,-0.159 0.25,-0.135 0.257,-0.112L0.261,-0.112C0.267,-0.135 0.274,-0.158 0.28,-0.181C0.286,-0.205 0.292,-0.228 0.298,-0.25L0.372,-0.491L0.483,-0.491L0.305,0.022C0.292,0.059 0.276,0.091 0.259,0.118C0.242,0.145 0.221,0.165 0.196,0.18C0.172,0.194 0.141,0.202 0.106,0.202Z" style="fill:white;fill-opacity:0.85;fill-rule:nonzero;"/>
        </g>
        <g>
            <g>
                <path d="M595.58,168.539L584.892,128.17L594.593,128.17L599.362,149.135C599.8,150.944 600.184,152.794 600.513,154.685C600.842,156.576 601.143,158.727 601.417,161.139L601.746,161.139C602.13,158.727 602.5,156.576 602.856,154.685C603.213,152.794 603.582,150.944 603.966,149.135L608.899,128.17L618.765,128.17L623.863,149.135C624.301,150.944 624.713,152.794 625.096,154.685C625.48,156.576 625.864,158.727 626.247,161.139L626.576,161.139C626.96,158.727 627.302,156.576 627.604,154.685C627.905,152.794 628.248,150.944 628.632,149.135L633.4,128.17L642.444,128.17L632.167,168.539L620.081,168.539L615.97,149.793C615.586,147.984 615.216,146.162 614.86,144.325C614.504,142.489 614.161,140.256 613.832,137.625L613.503,137.625C613.175,140.256 612.846,142.489 612.517,144.325C612.188,146.162 611.804,147.984 611.366,149.793L607.255,168.539L595.58,168.539Z" style="fill:white;fill-rule:nonzero;"/>
                <path d="M663.69,169.525C660.335,169.525 657.197,168.692 654.275,167.026C651.353,165.36 648.991,162.951 647.188,159.799C645.385,156.647 644.483,152.841 644.483,148.378C644.483,143.895 645.385,140.072 647.188,136.909C648.991,133.746 651.353,131.332 654.275,129.666C657.197,127.999 660.335,127.166 663.69,127.166C667.044,127.166 670.176,127.999 673.086,129.666C675.997,131.332 678.36,133.746 680.174,136.909C681.988,140.072 682.895,143.895 682.895,148.378C682.895,152.841 681.988,156.647 680.174,159.799C678.36,162.951 675.997,165.36 673.086,167.026C670.176,168.692 667.044,169.525 663.69,169.525ZM663.69,161.797C665.663,161.797 667.362,161.243 668.787,160.136C670.212,159.029 671.298,157.467 672.043,155.45C672.789,153.433 673.162,151.075 673.162,148.378C673.162,145.682 672.789,143.319 672.043,141.291C671.298,139.263 670.212,137.69 668.787,136.572C667.362,135.454 665.663,134.895 663.69,134.895C661.717,134.895 660.023,135.454 658.608,136.572C657.194,137.69 656.109,139.263 655.352,141.291C654.596,143.319 654.218,145.682 654.218,148.378C654.218,151.075 654.596,153.433 655.352,155.45C656.109,157.467 657.194,159.029 658.608,160.136C660.023,161.243 661.717,161.797 663.69,161.797Z" style="fill:white;fill-rule:nonzero;"/>
                <path d="M688.98,168.539L688.98,128.153L696.74,128.153L697.464,135.356L697.727,135.356C699.152,132.714 700.871,130.688 702.882,129.279C704.894,127.871 707.002,127.166 709.205,127.166C710.225,127.166 711.093,127.229 711.811,127.356C712.529,127.482 713.184,127.693 713.776,127.988L711.868,136.046C711.244,135.881 710.658,135.758 710.11,135.676C709.562,135.594 708.854,135.552 707.988,135.552C706.377,135.552 704.691,136.169 702.932,137.402C701.172,138.636 699.678,140.804 698.45,143.907L698.45,168.539L688.98,168.539Z" style="fill:white;fill-rule:nonzero;"/>
                <path d="M716.375,168.539L716.375,110.459L725.747,110.459L725.747,146.636L726.009,146.636L740.777,128.153L751.235,128.153L737.488,144.695L752.648,168.539L742.355,168.539L731.963,151.009L725.747,158.179L725.747,168.539L716.375,168.539Z" style="fill:white;fill-rule:nonzero;"/>
                <path d="M767.251,169.525C764.422,169.525 761.651,169.007 758.938,167.971C756.225,166.936 753.898,165.48 751.959,163.605L756.102,158.213C757.91,159.649 759.747,160.704 761.61,161.378C763.474,162.052 765.441,162.389 767.513,162.389C769.717,162.389 771.348,161.926 772.406,161C773.464,160.073 773.993,158.925 773.993,157.555C773.993,156.425 773.593,155.482 772.792,154.726C771.992,153.97 770.953,153.315 769.676,152.761C768.398,152.207 767.009,151.656 765.508,151.108C763.546,150.396 761.704,149.527 759.982,148.502C758.261,147.477 756.866,146.213 755.797,144.711C754.728,143.21 754.194,141.384 754.194,139.236C754.194,135.706 755.52,132.812 758.174,130.554C760.827,128.295 764.401,127.166 768.895,127.166C771.625,127.166 774.135,127.618 776.426,128.523C778.717,129.427 780.679,130.586 782.312,132L778.169,137.395C776.722,136.364 775.258,135.59 773.778,135.075C772.298,134.56 770.747,134.302 769.125,134.302C767.086,134.302 765.579,134.741 764.603,135.618C763.627,136.495 763.139,137.548 763.139,138.776C763.139,139.773 763.454,140.607 764.084,141.275C764.715,141.943 765.63,142.538 766.831,143.059C768.032,143.579 769.476,144.125 771.164,144.695C773.247,145.419 775.187,146.288 776.985,147.302C778.783,148.316 780.224,149.598 781.31,151.149C782.395,152.7 782.938,154.649 782.938,156.995C782.938,159.308 782.338,161.41 781.138,163.301C779.937,165.192 778.172,166.702 775.843,167.831C773.513,168.961 770.649,169.525 767.251,169.525Z" style="fill:white;fill-rule:nonzero;"/>
                <path d="M788.134,168.539L788.134,110.459L797.605,110.459L797.605,125.49L797.21,133.284C798.92,131.672 800.814,130.249 802.892,129.016C804.969,127.783 807.383,127.166 810.135,127.166C814.487,127.166 817.648,128.567 819.615,131.368C821.583,134.169 822.567,138.118 822.567,143.215L822.567,168.539L813.095,168.539L813.095,144.432C813.095,141.1 812.602,138.743 811.615,137.361C810.628,135.98 809.028,135.289 806.814,135.289C805.038,135.289 803.481,135.717 802.144,136.572C800.807,137.427 799.293,138.677 797.605,140.321L797.605,168.539L788.134,168.539Z" style="fill:white;fill-rule:nonzero;"/>
                <path d="M847.265,169.525C843.911,169.525 840.772,168.692 837.851,167.026C834.929,165.36 832.567,162.951 830.763,159.799C828.96,156.647 828.058,152.841 828.058,148.378C828.058,143.895 828.96,140.072 830.763,136.909C832.567,133.746 834.929,131.332 837.851,129.666C840.772,127.999 843.911,127.166 847.265,127.166C850.619,127.166 853.751,127.999 856.662,129.666C859.573,131.332 861.935,133.746 863.749,136.909C865.564,140.072 866.471,143.895 866.471,148.378C866.471,152.841 865.564,156.647 863.749,159.799C861.935,162.951 859.573,165.36 856.662,167.026C853.751,168.692 850.619,169.525 847.265,169.525ZM847.265,161.797C849.239,161.797 850.938,161.243 852.363,160.136C853.788,159.029 854.873,157.467 855.619,155.45C856.364,153.433 856.737,151.075 856.737,148.378C856.737,145.682 856.364,143.319 855.619,141.291C854.873,139.263 853.788,137.69 852.363,136.572C850.938,135.454 849.239,134.895 847.265,134.895C845.292,134.895 843.598,135.454 842.184,136.572C840.769,137.69 839.684,139.263 838.928,141.291C838.172,143.319 837.794,145.682 837.794,148.378C837.794,151.075 838.172,153.433 838.928,155.45C839.684,157.467 840.769,159.029 842.184,160.136C843.598,161.243 845.292,161.797 847.265,161.797Z" style="fill:white;fill-rule:nonzero;"/>
                <path d="M872.555,184.522L872.555,128.153L880.316,128.153L881.039,132.462L881.303,132.462C883.013,130.971 884.918,129.715 887.017,128.696C889.117,127.676 891.268,127.166 893.471,127.166C896.837,127.166 899.701,128.013 902.063,129.707C904.426,131.4 906.232,133.787 907.481,136.868C908.731,139.949 909.356,143.566 909.356,147.721C909.356,152.325 908.539,156.252 906.906,159.503C905.272,162.754 903.149,165.237 900.534,166.952C897.919,168.667 895.116,169.525 892.123,169.525C890.358,169.525 888.596,169.136 886.836,168.357C885.077,167.579 883.375,166.488 881.73,165.085L882.026,171.794L882.026,184.522L872.555,184.522ZM890.117,161.698C891.914,161.698 893.531,161.177 894.967,160.136C896.404,159.094 897.538,157.543 898.372,155.482C899.205,153.421 899.622,150.867 899.622,147.82C899.622,145.134 899.315,142.835 898.701,140.922C898.087,139.009 897.135,137.543 895.847,136.523C894.559,135.503 892.89,134.994 890.84,134.994C889.404,134.994 887.974,135.361 886.548,136.095C885.123,136.83 883.615,137.975 882.026,139.532L882.026,158.344C883.484,159.561 884.912,160.424 886.31,160.933C887.708,161.443 888.977,161.698 890.117,161.698Z" style="fill:white;fill-rule:nonzero;"/>
                <path d="M926.918,169.525C924.089,169.525 921.318,169.007 918.605,167.971C915.892,166.936 913.565,165.48 911.625,163.605L915.768,158.213C917.577,159.649 919.413,160.704 921.277,161.378C923.141,162.052 925.108,162.389 927.18,162.389C929.384,162.389 931.015,161.926 932.073,161C933.131,160.073 933.66,158.925 933.66,157.555C933.66,156.425 933.26,155.482 932.459,154.726C931.659,153.97 930.62,153.315 929.343,152.761C928.065,152.207 926.676,151.656 925.175,151.108C923.213,150.396 921.371,149.527 919.649,148.502C917.928,147.477 916.533,146.213 915.464,144.711C914.395,143.21 913.861,141.384 913.861,139.236C913.861,135.706 915.187,132.812 917.841,130.554C920.494,128.295 924.068,127.166 928.562,127.166C931.292,127.166 933.802,127.618 936.093,128.523C938.384,129.427 940.346,130.586 941.979,132L937.836,137.395C936.389,136.364 934.925,135.59 933.445,135.075C931.965,134.56 930.414,134.302 928.792,134.302C926.753,134.302 925.246,134.741 924.27,135.618C923.294,136.495 922.806,137.548 922.806,138.776C922.806,139.773 923.121,140.607 923.751,141.275C924.382,141.943 925.297,142.538 926.498,143.059C927.699,143.579 929.143,144.125 930.831,144.695C932.914,145.419 934.854,146.288 936.652,147.302C938.449,148.316 939.891,149.598 940.977,151.149C942.062,152.7 942.605,154.649 942.605,156.995C942.605,159.308 942.005,161.41 940.804,163.301C939.604,165.192 937.839,166.702 935.51,167.831C933.18,168.961 930.316,169.525 926.918,169.525Z" style="fill:white;fill-rule:nonzero;"/>
                <path d="M953.095,169.525C951.396,169.525 949.952,168.914 948.763,167.692C947.573,166.47 946.979,164.954 946.979,163.146C946.979,161.26 947.573,159.714 948.763,158.508C949.952,157.302 951.396,156.699 953.095,156.699C954.849,156.699 956.307,157.302 957.469,158.508C958.631,159.714 959.213,161.26 959.213,163.146C959.213,164.954 958.631,166.47 957.469,167.692C956.307,168.914 954.849,169.525 953.095,169.525Z" style="fill:white;fill-rule:nonzero;"/>
                <path d="M980.26,169.525C975.228,169.525 971.208,167.659 968.199,163.926C965.19,160.193 963.685,155.011 963.685,148.378C963.685,143.994 964.494,140.22 966.111,137.057C967.728,133.895 969.841,131.456 972.45,129.74C975.059,128.024 977.838,127.166 980.787,127.166C983.1,127.166 985.059,127.558 986.665,128.342C988.271,129.126 989.841,130.214 991.376,131.606L991.015,125.094L991.015,110.459L1000.49,110.459L1000.49,168.539L992.725,168.539L992,164.164L991.738,164.164C990.258,165.644 988.521,166.908 986.525,167.955C984.53,169.002 982.441,169.525 980.26,169.525ZM982.595,161.698C984.174,161.698 985.645,161.333 987.01,160.605C988.375,159.876 989.71,158.727 991.015,157.159L991.015,138.348C989.644,137.098 988.279,136.227 986.92,135.734C985.56,135.24 984.185,134.994 982.792,134.994C981.083,134.994 979.521,135.512 978.106,136.547C976.692,137.583 975.557,139.096 974.702,141.086C973.847,143.076 973.419,145.474 973.419,148.28C973.419,152.654 974.225,155.984 975.836,158.27C977.448,160.555 979.701,161.698 982.595,161.698Z" style="fill:white;fill-rule:nonzero;"/>
                <path d="M1026.57,169.525C1022.79,169.525 1019.38,168.689 1016.33,167.018C1013.29,165.346 1010.89,162.934 1009.14,159.782C1007.39,156.631 1006.51,152.808 1006.51,148.313C1006.51,143.928 1007.41,140.16 1009.22,137.008C1011.03,133.856 1013.36,131.431 1016.21,129.732C1019.06,128.033 1022.08,127.183 1025.26,127.183C1028.93,127.183 1032,128.005 1034.46,129.649C1036.93,131.294 1038.78,133.555 1040.01,136.432C1041.25,139.31 1041.86,142.613 1041.86,146.34C1041.86,147.217 1041.82,148.066 1041.74,148.888C1041.66,149.711 1041.53,150.505 1041.37,151.273L1013.58,151.273L1013.58,144.038L1033.48,144.038C1033.48,141.133 1032.82,138.844 1031.5,137.172C1030.19,135.501 1028.16,134.665 1025.42,134.665C1023.88,134.665 1022.39,135.076 1020.94,135.898C1019.49,136.72 1018.28,138.118 1017.32,140.091C1016.36,142.064 1015.88,144.805 1015.88,148.313C1015.88,151.492 1016.43,154.082 1017.53,156.083C1018.62,158.083 1020.08,159.563 1021.88,160.522C1023.69,161.482 1025.64,161.961 1027.72,161.961C1029.47,161.961 1031.13,161.714 1032.69,161.221C1034.26,160.728 1035.72,160.043 1037.09,159.166L1040.38,165.25C1038.52,166.565 1036.39,167.607 1034.01,168.374C1031.63,169.141 1029.15,169.525 1026.57,169.525Z" style="fill:white;fill-rule:nonzero;"/>
            </g>
        </g>
        <path d="M417.284,58.74C422.895,53.365 430.511,50.062 438.899,50.062L524.572,50.062C541.818,50.062 555.799,64.024 555.799,81.246L555.799,88.692C554.294,92.005 552.731,95.323 551.124,98.602C545.789,109.489 540.2,119.488 535.041,127.102C532.458,130.915 530.12,133.923 528.114,136.086C527.118,137.159 526.295,137.925 525.654,138.444C525.065,138.92 524.772,139.072 524.773,139.073C523.259,139.768 522.518,139.801 522.339,139.794C522.239,139.746 521.997,139.599 521.599,139.209C519.648,137.296 517.439,133.102 514.981,126.132C514.024,123.42 513.151,120.669 512.243,117.808C512.057,117.222 511.869,116.631 511.679,116.036C510.61,112.683 509.437,109.082 508.136,105.884C506.918,102.889 505.14,99.083 502.428,96.018C499.412,92.611 493.95,88.877 486.62,90.288C480.898,91.389 477.03,95.103 474.768,97.807C472.353,100.695 470.359,104.142 468.703,107.395C466.235,112.241 463.762,118.229 461.448,123.832C460.712,125.616 459.991,127.361 459.292,129.017C456.144,136.475 453.286,142.534 450.419,146.518C449.783,147.403 449.257,148.037 448.84,148.488C448.799,148.445 448.757,148.4 448.715,148.355C447.077,146.591 445.022,143.674 442.692,139.444C438.063,131.04 433.309,119.229 429.01,105.875C423.982,90.261 419.859,73.447 417.284,58.74ZM555.799,139.657L555.799,167.004C555.799,184.226 541.818,198.188 524.572,198.188L438.899,198.188C421.653,198.188 407.673,184.226 407.673,167.004L407.673,118.547C411.804,130.693 416.487,142.098 421.451,151.111C424.273,156.234 427.43,161.037 430.941,164.818C434.224,168.352 439.19,172.489 445.798,173.367C457.781,174.959 465.794,166.637 470.105,160.646C474.758,154.18 478.531,145.763 481.63,138.42C482.534,136.28 483.383,134.225 484.194,132.261C485.656,128.725 486.996,125.482 488.316,122.554C488.403,122.825 488.491,123.101 488.58,123.38C488.749,123.912 488.923,124.459 489.101,125.018C490.009,127.882 491.019,131.067 492.116,134.175C494.583,141.169 498.274,150.268 504.618,156.486C508.054,159.854 512.59,162.711 518.315,163.669C524.012,164.622 529.643,163.487 534.931,161.054C539.236,159.074 542.93,155.737 545.896,152.539C549.019,149.173 552.121,145.093 555.119,140.669C555.345,140.334 555.572,139.997 555.799,139.657ZM447.628,149.528C447.629,149.521 447.68,149.487 447.782,149.45C447.679,149.517 447.628,149.536 447.628,149.528ZM522.348,139.798C522.379,139.805 522.394,139.812 522.394,139.814C522.394,139.815 522.379,139.812 522.348,139.798ZM522.322,139.793C522.287,139.79 522.288,139.787 522.322,139.793ZM493.73,112.946C493.73,112.949 493.699,112.981 493.637,113.032C493.699,112.969 493.73,112.943 493.73,112.946Z" style="fill:rgb(95,161,238);"/>
    </g>
    <rect x="340.713" y="50.062" width="4.258" height="148.126" style="fill:rgb(219,220,222);"/>
    <g>
        <path d="M278.662,124.154C278.662,105.687 255.545,88.186 220.101,77.333C228.281,41.195 224.646,12.444 208.628,3.239C204.935,1.08 200.619,0.057 195.904,0.057L195.904,12.728C198.517,12.728 200.619,13.239 202.379,14.205C210.104,18.637 213.456,35.513 210.843,57.219C210.218,62.56 209.196,68.185 207.946,73.924C196.813,71.196 184.658,69.094 171.877,67.73C164.21,57.219 156.258,47.673 148.249,39.32C166.766,22.103 184.147,12.671 195.961,12.671L195.961,0C180.341,0 159.893,11.137 139.218,30.456C118.542,11.251 98.094,0.227 82.474,0.227L82.474,12.898C94.232,12.898 111.67,22.274 130.186,39.377C122.235,47.729 114.282,57.219 106.728,67.73C93.891,69.094 81.736,71.196 70.603,73.981C69.296,68.299 68.331,62.787 67.649,57.503C64.98,35.797 68.274,18.921 75.942,14.432C77.646,13.41 79.862,12.955 82.474,12.955L82.474,0.284C77.703,0.284 73.386,1.307 69.637,3.466C53.676,12.671 50.098,41.366 58.334,77.39C23.004,88.299 -0,105.744 -0,124.154C-0,142.62 23.118,160.121 58.561,170.974C50.382,207.112 54.017,235.863 70.035,245.068C73.727,247.227 78.044,248.25 82.815,248.25C98.435,248.25 118.883,237.113 139.559,217.794C160.234,237 180.682,248.022 196.302,248.022C201.073,248.022 205.39,247 209.138,244.841C225.1,235.636 228.678,206.941 220.442,170.917C255.658,160.064 278.662,142.563 278.662,124.154ZM204.709,86.254C202.607,93.584 199.994,101.141 197.041,108.698C194.711,104.152 192.269,99.607 189.6,95.061C186.986,90.516 184.204,86.084 181.42,81.765C189.486,82.958 197.267,84.436 204.709,86.254ZM178.694,146.768C174.264,154.439 169.72,161.712 165.005,168.473C156.542,169.212 147.965,169.61 139.331,169.61C130.754,169.61 122.178,169.212 113.771,168.53C109.057,161.769 104.455,154.553 100.025,146.938C95.708,139.495 91.789,131.938 88.211,124.324C91.733,116.71 95.708,109.096 99.968,101.653C104.399,93.982 108.943,86.708 113.657,79.946C122.12,79.208 130.697,78.81 139.331,78.81C147.908,78.81 156.485,79.208 164.892,79.89C169.606,86.651 174.207,93.868 178.637,101.482C182.954,108.925 186.873,116.483 190.451,124.096C186.873,131.711 182.954,139.325 178.694,146.768ZM197.041,139.382C200.107,146.995 202.72,154.609 204.879,161.996C197.438,163.814 189.6,165.349 181.477,166.542C184.26,162.166 187.044,157.678 189.657,153.075C192.269,148.53 194.711,143.927 197.041,139.382ZM139.444,200.009C134.162,194.555 128.88,188.475 123.654,181.827C128.766,182.054 133.992,182.224 139.275,182.224C144.613,182.224 149.896,182.111 155.065,181.827C149.953,188.475 144.671,194.555 139.444,200.009ZM97.186,166.542C89.12,165.349 81.338,163.871 73.897,162.053C75.999,154.723 78.612,147.166 81.565,139.609C83.894,144.154 86.337,148.7 89.006,153.246C91.676,157.791 94.402,162.224 97.186,166.542ZM139.161,48.298C144.443,53.752 149.725,59.832 154.952,66.48C149.84,66.253 144.613,66.083 139.331,66.083C133.992,66.083 128.71,66.196 123.541,66.48C128.653,59.832 133.935,53.752 139.161,48.298ZM97.129,81.765C94.346,86.141 91.562,90.629 88.949,95.232C86.337,99.777 83.894,104.323 81.565,108.868C78.498,101.255 75.885,93.641 73.727,86.254C81.168,84.493 89.006,82.958 97.129,81.765ZM45.724,152.905C25.617,144.325 12.61,133.074 12.61,124.154C12.61,115.232 25.617,103.925 45.724,95.402C50.609,93.3 55.948,91.424 61.458,89.663C64.696,100.8 68.956,112.392 74.238,124.267C69.012,136.086 64.809,147.62 61.628,158.7C56.005,156.939 50.666,155.007 45.724,152.905ZM76.283,234.102C68.558,229.67 65.207,212.794 67.82,191.088C68.444,185.747 69.467,180.122 70.716,174.383C81.849,177.111 94.005,179.213 106.785,180.576C114.453,191.088 122.404,200.635 130.413,208.987C111.897,226.204 94.515,235.636 82.701,235.636C80.146,235.579 77.987,235.068 76.283,234.102ZM211.013,190.804C213.683,212.51 210.388,229.385 202.72,233.874C201.016,234.897 198.801,235.352 196.188,235.352C184.43,235.352 166.993,225.976 148.476,208.873C156.428,200.52 164.38,191.031 171.935,180.52C184.771,179.156 196.926,177.054 208.06,174.269C209.366,180.008 210.388,185.52 211.013,190.804ZM232.881,152.905C227.996,155.007 222.657,156.882 217.147,158.644C213.91,147.507 209.65,135.915 204.368,124.04C209.593,112.221 213.797,100.687 216.977,89.606C222.6,91.368 227.94,93.3 232.938,95.402C253.045,103.982 266.053,115.232 266.053,124.154C265.996,133.074 252.989,144.382 232.881,152.905Z" style="fill:rgb(112,156,222);fill-rule:nonzero;"/>
        <path d="M117.357,137.916L117.357,108.404L125.685,108.404C134.693,108.404 140.487,112.885 140.487,123.024C140.487,133.164 134.693,137.916 126.048,137.916L117.357,137.916ZM124.01,132.53L125.278,132.53C130.302,132.53 133.652,130.086 133.652,123.024C133.652,115.963 130.302,113.791 125.278,113.791L124.01,113.791L124.01,132.53ZM146.099,137.916L146.099,108.404L164.568,108.404L164.568,114.017L152.754,114.017L152.754,119.946L162.803,119.946L162.803,125.514L152.754,125.514L152.754,132.304L165.021,132.304L165.021,137.916L146.099,137.916Z" style="fill-rule:nonzero;"/>
        <path d="M117.357,137.916L117.357,108.404L125.685,108.404C134.693,108.404 140.487,112.885 140.487,123.024C140.487,133.164 134.693,137.916 126.048,137.916L117.357,137.916ZM124.01,132.53L125.278,132.53C130.302,132.53 133.652,130.086 133.652,123.024C133.652,115.963 130.302,113.791 125.278,113.791L124.01,113.791L124.01,132.53ZM146.099,137.916L146.099,108.404L164.568,108.404L164.568,114.017L152.754,114.017L152.754,119.946L162.803,119.946L162.803,125.514L152.754,125.514L152.754,132.304L165.021,132.304L165.021,137.916L146.099,137.916Z" style="fill:rgb(112,156,222);fill-rule:nonzero;"/>
    </g>
</svg>
