<svg width="391" height="348" viewBox="0 0 391 348" fill="none" xmlns="http://www.w3.org/2000/svg">
<g clip-path="url(#clip0)">
<path d="M390.632 174.04C390.632 148.153 358.226 123.62 308.541 108.407C320.006 57.7478 314.911 17.4438 292.457 4.54017C287.281 1.51339 281.23 0.0796521 274.621 0.0796521V17.8421C278.284 17.8421 281.23 18.5589 283.698 19.913C294.527 26.1259 299.225 49.7826 295.562 80.2097C294.686 87.697 293.253 95.5825 291.501 103.627C275.895 99.8041 258.856 96.857 240.94 94.9453C230.191 80.2097 219.044 66.8281 207.817 55.1192C233.774 30.9847 258.139 17.7624 274.701 17.7624V0C252.804 0 224.14 15.6118 195.157 42.6935C166.174 15.7711 137.51 0.318608 115.613 0.318608V18.081C132.095 18.081 156.54 31.2236 182.497 55.1989C171.35 66.9078 160.202 80.2097 149.612 94.9453C131.618 96.857 114.578 99.8041 98.9719 103.707C97.1406 95.7418 95.787 88.0156 94.8315 80.6079C91.0892 50.1808 95.7073 26.5241 106.457 20.2316C108.845 18.7979 111.951 18.1607 115.613 18.1607V0.39826C108.925 0.39826 102.873 1.832 97.6183 4.85878C75.2441 17.7624 70.2279 57.9867 81.7732 108.486C32.2475 123.779 0 148.233 0 174.04C0 199.927 32.4067 224.46 82.0917 239.673C70.626 290.332 75.7219 330.636 98.1757 343.539C103.351 346.566 109.403 348 116.091 348C137.987 348 166.652 332.388 195.635 305.306C224.618 332.229 253.282 347.681 275.179 347.681C281.867 347.681 287.918 346.248 293.173 343.221C315.548 330.317 320.564 290.093 309.018 239.594C358.385 224.38 390.632 199.847 390.632 174.04ZM286.963 120.912C284.017 131.187 280.354 141.781 276.214 152.374C272.949 146.002 269.525 139.63 265.783 133.258C262.12 126.886 258.219 120.673 254.317 114.619C265.624 116.292 276.532 118.363 286.963 120.912ZM250.495 205.741C244.285 216.494 237.915 226.69 231.306 236.168C219.442 237.204 207.419 237.762 195.316 237.762C183.293 237.762 171.27 237.204 159.486 236.248C152.877 226.77 146.427 216.654 140.217 205.98C134.165 195.546 128.671 184.952 123.655 174.279C128.592 163.605 134.165 152.932 140.137 142.498C146.348 131.745 152.718 121.549 159.326 112.07C171.19 111.035 183.213 110.477 195.316 110.477C207.339 110.477 219.363 111.035 231.147 111.991C237.756 121.469 244.205 131.585 250.416 142.259C256.467 152.693 261.961 163.287 266.977 173.96C261.961 184.634 256.467 195.307 250.495 205.741ZM276.214 195.387C280.513 206.06 284.176 216.733 287.202 227.088C276.771 229.637 265.783 231.788 254.397 233.46C258.298 227.327 262.2 221.035 265.863 214.583C269.525 208.211 272.949 201.759 276.214 195.387ZM195.475 280.375C188.071 272.729 180.666 264.206 173.34 254.887C180.506 255.205 187.832 255.444 195.237 255.444C202.721 255.444 210.126 255.285 217.372 254.887C210.206 264.206 202.801 272.729 195.475 280.375ZM136.236 233.46C124.929 231.788 114.021 229.717 103.59 227.168C106.536 216.893 110.199 206.299 114.339 195.705C117.604 202.077 121.028 208.45 124.77 214.822C128.512 221.194 132.334 227.407 136.236 233.46ZM195.077 67.7043C202.482 75.3509 209.887 83.8737 217.213 93.193C210.047 92.8743 202.721 92.6354 195.316 92.6354C187.832 92.6354 180.427 92.7947 173.181 93.193C180.347 83.8737 187.752 75.3509 195.077 67.7043ZM136.156 114.619C132.254 120.753 128.353 127.045 124.69 133.497C121.028 139.869 117.604 146.241 114.339 152.613C110.04 141.94 106.377 131.267 103.351 120.912C113.782 118.443 124.77 116.292 136.156 114.619ZM64.0968 214.344C35.9102 202.316 17.6764 186.545 17.6764 174.04C17.6764 161.534 35.9102 145.684 64.0968 133.736C70.9445 130.789 78.4291 128.16 86.1525 125.691C90.6911 141.303 96.6628 157.552 104.068 174.199C96.7425 190.767 90.8503 206.936 86.3914 222.468C78.5087 219.999 71.0241 217.291 64.0968 214.344ZM106.934 328.167C96.1055 321.954 91.4077 298.297 95.0704 267.87C95.9462 260.383 97.3794 252.497 99.1312 244.452C114.737 248.276 131.777 251.223 149.692 253.134C160.441 267.87 171.588 281.252 182.815 292.96C156.858 317.095 132.493 330.317 115.932 330.317C112.349 330.238 109.323 329.521 106.934 328.167ZM295.801 267.472C299.543 297.899 294.925 321.555 284.176 327.848C281.787 329.282 278.682 329.919 275.019 329.919C258.537 329.919 234.093 316.776 208.136 292.801C219.283 281.092 230.43 267.79 241.02 253.055C259.015 251.143 276.054 248.196 291.661 244.293C293.492 252.338 294.925 260.064 295.801 267.472ZM326.456 214.344C319.608 217.291 312.124 219.919 304.4 222.389C299.862 206.777 293.89 190.528 286.485 173.881C293.81 157.313 299.703 141.144 304.161 125.611C312.044 128.081 319.529 130.789 326.536 133.736C354.722 145.763 372.956 161.534 372.956 174.04C372.876 186.545 354.643 202.396 326.456 214.344Z" fill="white"/>
<path d="M164.512 193.333V151.962H176.187C188.814 151.962 196.936 158.244 196.936 172.457C196.936 186.671 188.814 193.333 176.695 193.333H164.512ZM173.839 185.782H175.616C182.659 185.782 187.355 182.356 187.355 172.457C187.355 162.559 182.659 159.513 175.616 159.513H173.839V185.782ZM204.804 193.333V151.962H230.693V159.83H214.132V168.143H228.219V175.947H214.132V185.465H231.328V193.333H204.804Z" fill="white"/>
</g>
<defs>
<clipPath id="clip0">
<rect width="390.632" height="348" fill="white"/>
</clipPath>
</defs>
</svg>
