<svg width="391" height="348" viewBox="0 0 391 348" fill="none" xmlns="http://www.w3.org/2000/svg">
<path d="M390.684 174C390.684 148.119 358.273 123.592 308.581 108.382C320.048 57.7346 314.952 17.4398 292.495 4.53913C287.319 1.51304 281.267 0.0796327 274.657 0.0796327V17.838C278.32 17.838 281.267 18.5547 283.735 19.9085C294.566 26.1199 299.264 49.7712 295.601 80.1913C294.725 87.6769 293.292 95.5606 291.54 103.604C275.931 99.7812 258.89 96.8348 240.972 94.9236C230.221 80.1913 219.073 66.8128 207.844 55.1066C233.805 30.9776 258.173 17.7584 274.737 17.7584V0C252.838 0 224.169 15.6082 195.183 42.6838C166.196 15.7675 137.528 0.318537 115.628 0.318537V18.0769C132.113 18.0769 156.56 31.2165 182.521 55.1863C171.372 66.8924 160.223 80.1913 149.632 94.9236C131.635 96.8348 114.593 99.7812 98.9849 103.683C97.1533 95.7199 95.7995 87.9954 94.8439 80.5895C91.1011 50.1693 95.7199 26.5181 106.47 20.227C108.859 18.7936 111.965 18.1565 115.628 18.1565V0.398169C108.939 0.398169 102.887 1.83158 97.6311 4.85766C75.254 17.7584 70.2371 57.9735 81.784 108.461C32.2517 123.751 0 148.199 0 174C0 199.881 32.411 224.408 82.1025 239.618C70.6352 290.265 75.7318 330.56 98.1886 343.461C103.365 346.487 109.417 347.92 116.106 347.92C138.005 347.92 166.674 332.312 195.66 305.237C224.647 332.153 253.315 347.602 275.215 347.602C281.904 347.602 287.956 346.168 293.212 343.142C315.589 330.242 320.606 290.027 309.059 239.539C358.432 224.329 390.684 199.801 390.684 174ZM287 120.884C284.054 131.157 280.391 141.748 276.25 152.34C272.985 145.969 269.561 139.598 265.818 133.227C262.155 126.857 258.253 120.645 254.351 114.593C265.659 116.265 276.568 118.336 287 120.884ZM250.528 205.694C244.317 216.445 237.946 226.638 231.336 236.114C219.471 237.15 207.446 237.707 195.342 237.707C183.317 237.707 171.292 237.15 159.507 236.194C152.897 226.718 146.447 216.604 140.235 205.933C134.183 195.501 128.688 184.91 123.671 174.239C128.609 163.568 134.183 152.897 140.156 142.465C146.367 131.714 152.738 121.521 159.347 112.045C171.213 111.01 183.238 110.452 195.342 110.452C207.367 110.452 219.391 111.01 231.177 111.965C237.787 121.442 244.237 131.555 250.449 142.226C256.501 152.658 261.995 163.249 267.012 173.92C261.995 184.591 256.501 195.262 250.528 205.694ZM276.25 195.342C280.55 206.013 284.213 216.684 287.239 227.036C276.807 229.584 265.818 231.735 254.43 233.407C258.332 227.275 262.234 220.984 265.897 214.534C269.561 208.163 272.985 201.713 276.25 195.342ZM195.501 280.311C188.095 272.666 180.689 264.146 173.363 254.828C180.53 255.147 187.856 255.386 195.262 255.386C202.748 255.386 210.154 255.227 217.4 254.828C210.233 264.146 202.827 272.666 195.501 280.311ZM136.254 233.407C124.946 231.735 114.036 229.664 103.604 227.116C106.55 216.843 110.213 206.252 114.354 195.66C117.619 202.031 121.043 208.402 124.786 214.773C128.529 221.143 132.351 227.355 136.254 233.407ZM195.103 67.6888C202.509 75.3336 209.915 83.8545 217.241 93.1716C210.074 92.8531 202.748 92.6142 195.342 92.6142C187.856 92.6142 180.45 92.7735 173.204 93.1716C180.371 83.8545 187.777 75.3336 195.103 67.6888ZM136.174 114.593C132.272 120.725 128.37 127.016 124.707 133.466C121.043 139.837 117.619 146.208 114.354 152.578C110.054 141.908 106.391 131.237 103.365 120.884C113.797 118.416 124.786 116.265 136.174 114.593ZM64.1053 214.295C35.9149 202.27 17.6787 186.503 17.6787 174C17.6787 161.497 35.9149 145.65 64.1053 133.705C70.9538 130.759 78.4394 128.131 86.1638 125.662C90.703 141.27 96.6755 157.516 104.081 174.159C96.7551 190.723 90.8623 206.889 86.4028 222.417C78.519 219.949 71.0334 217.241 64.1053 214.295ZM106.948 328.092C96.1181 321.88 91.4197 298.229 95.0828 267.809C95.9588 260.323 97.3922 252.439 99.1442 244.396C114.752 248.219 131.794 251.165 149.712 253.076C160.462 267.809 171.611 281.187 182.839 292.893C156.879 317.022 132.511 330.242 115.947 330.242C112.363 330.162 109.337 329.445 106.948 328.092ZM295.84 267.411C299.583 297.831 294.964 321.482 284.213 327.773C281.824 329.206 278.718 329.843 275.055 329.843C258.571 329.843 234.124 316.704 208.163 292.734C219.312 281.028 230.46 267.729 241.052 252.997C259.049 251.086 276.091 248.139 291.699 244.237C293.53 252.28 294.964 260.005 295.84 267.411ZM326.499 214.295C319.65 217.241 312.165 219.869 304.44 222.338C299.901 206.73 293.929 190.484 286.523 173.841C293.849 157.277 299.742 141.111 304.201 125.583C312.085 128.051 319.571 130.759 326.578 133.705C354.769 145.73 373.005 161.497 373.005 174C372.925 186.503 354.689 202.35 326.499 214.295Z" fill="#61DAFB"/>
<path d="M195.262 210.393C215.361 210.393 231.655 194.099 231.655 174C231.655 153.901 215.361 137.607 195.262 137.607C175.163 137.607 158.87 153.901 158.87 174C158.87 194.099 175.163 210.393 195.262 210.393Z" fill="#61DAFB"/>
</svg>
