<?xml version="1.0" encoding="UTF-8" standalone="no"?>
<svg width="135px" height="26px" viewBox="0 0 135 26" version="1.1" xmlns="http://www.w3.org/2000/svg" xmlns:xlink="http://www.w3.org/1999/xlink" xmlns:sketch="http://www.bohemiancoding.com/sketch/ns">
    <!-- Generator: Sketch 3.3.2 (12043) - http://www.bohemiancoding.com/sketch -->
    <title>9e</title>
    <desc>Created with Sketch.</desc>
    <defs></defs>
    <g id="Page-1" stroke="none" stroke-width="1" fill="none" fill-rule="evenodd" sketch:type="MSPage">
        <g id="blog__article--noimage" sketch:type="MSArtboardGroup" transform="translate(-966.000000, -777.000000)" fill="#4A515F">
            <g id="fullblog" sketch:type="MSLayerGroup" transform="translate(0.000000, 160.000000)">
                <g id="sidebar" transform="translate(932.000000, 40.000000)" sketch:type="MSShapeGroup">
                    <g id="sponsored-copy" transform="translate(33.000000, 536.000000)">
                        <g id="9erails" transform="translate(1.000000, 41.000000)">
                            <path d="M0,26 L25.999684,26 L25.999684,0 L0,0 L0,26 L0,26 Z M19.4081169,18.3731479 C19.3038299,18.4129666 18.5855141,18.4410925 19.093992,18.4986083 C19.4131732,18.5343187 18.899323,18.5602324 18.9009031,18.6755801 C19.0061381,18.6724199 19.1654127,18.8746733 19.2064954,18.8683529 C19.2121838,18.8986909 18.8907904,18.9840166 18.9587349,18.9941293 C19.2320932,19.0326839 18.7277236,19.0506971 18.7609058,19.1161134 C18.8557121,19.3025658 18.7144507,19.2393616 18.8920545,19.3246873 C18.9868608,19.3705104 18.9587349,19.5376855 18.8964788,19.5515904 C18.8152614,19.5699197 18.7906117,19.6138466 18.7163468,19.620167 C18.7059181,19.6881115 18.644294,19.7193976 18.5627606,19.7310904 C18.3864208,19.7968228 18.1885916,19.8717198 17.9977149,19.8913131 C17.8747827,19.9033219 17.8801551,19.9153307 17.758171,19.8916291 C17.6270222,19.9090102 17.4269809,19.920071 17.2961482,19.9071141 C17.187753,19.9336599 15.5690931,20.0284662 15.4338361,20.010137 C15.326073,20.0332065 14.6785458,20.055644 14.545501,20.0363667 C14.411508,20.0622805 13.2877372,20.0923025 13.1714414,20.0787136 C13.0349203,20.1024151 12.8244503,20.1125278 12.6876132,20.0938826 C12.5510921,20.1207444 12.33999,20.1258007 12.2022049,20.1096836 C12.0685279,20.1346493 9.09887813,20.0638606 8.95414048,20.0417391 C8.81414316,20.0591202 8.11984491,20.0354187 7.98174371,20.0120331 C7.86639602,20.0294143 7.69258444,20.0174055 7.57723676,19.9997083 C7.44261179,20.0186696 7.23308984,20.0082409 7.10225712,19.9715824 C7.02704411,19.950725 6.9774288,19.9617858 6.94551068,19.8872048 C6.91864889,19.8252647 6.92560135,19.7873421 6.87630207,19.7611124 C6.81783817,19.7304584 6.81436194,19.5974135 6.85260049,19.5477982 C6.78844822,19.4115931 6.87788217,19.1565641 6.82637074,18.9685316 C6.7957167,18.8557121 6.85607672,18.8620325 6.91074836,18.7593257 C6.84628007,18.76375 6.83237514,18.6493503 6.83995965,18.6275449 C6.88167443,18.508721 6.82036634,18.4508891 6.90948428,18.3497624 C6.96289184,18.2897184 6.93855821,18.2401031 7.03431259,18.2401031 C7.1035212,18.2401031 7.18695076,18.2404191 7.25489529,18.2511638 C7.40279314,18.2397871 7.59461792,18.2470555 7.74156771,18.2698091 C8.04210373,18.2492677 9.39435781,18.298567 9.68636126,18.3450221 C9.96540785,18.3251127 10.2994421,18.3450221 10.5778566,18.3782043 C10.8764965,18.3633513 15.8901705,18.3247967 16.1625807,18.3115238 C16.4615366,18.2976189 16.798415,18.2524279 17.0961069,18.2818179 C17.3094211,18.2464235 17.5837273,18.2675969 17.7941974,18.3086796 C17.9885503,18.3017272 18.0795644,18.2312545 18.269493,18.2413672 C18.2815018,18.2217739 18.5728732,18.2859261 18.6035273,18.2875062 C18.630073,18.2423152 18.8907904,18.2818179 18.9517825,18.2852941 C19.019095,18.2900344 19.469741,18.3494464 19.4081169,18.3731479 L19.4081169,18.3731479 L19.4081169,18.3731479 Z M19.559491,16.1322427 C19.5714998,16.1723773 19.5923572,16.2074557 19.6230112,16.2374777 C19.3063581,16.0513413 19.0288916,15.8149575 18.7270915,15.6095438 C18.7504771,15.7160429 19.394212,16.0661943 19.3550253,16.1385631 C19.3461768,16.1575243 18.5213618,15.5469717 18.509353,15.5570843 C18.4578416,15.5943748 18.6480862,15.7896758 18.6079516,15.7805112 C18.6155361,15.7865156 18.7621698,15.8952269 18.7454207,15.912924 C18.7116065,15.9255649 19.6286996,16.6125947 19.5481142,16.7092971 C19.515248,16.7478517 19.2655914,16.5193684 19.2320932,16.5032514 C19.2557947,16.542122 19.2836046,16.5772003 19.3161548,16.6097505 C19.1211698,16.4940868 18.9634753,16.3338641 18.778919,16.2049275 C18.8035686,16.2507505 18.8376989,16.2896211 18.8809938,16.3209072 C18.7267755,16.3221713 18.4003257,15.9337814 18.2675969,15.8554082 C18.224618,15.8320227 18.0204684,15.6335614 17.9901304,15.6458863 C17.9866542,15.6582111 17.9901304,15.6689558 17.9996111,15.6781204 C17.9225019,15.641778 17.8555055,15.5937428 17.7983056,15.5333828 C17.8020979,15.5659329 17.5849914,15.2556003 17.4980856,15.2944708 C17.5511772,15.3456663 17.6042687,15.3974937 17.6560962,15.4496372 C17.4813365,15.4875597 17.3403911,15.0489225 17.1043234,15.1478371 C17.1236007,15.1396205 18.0792484,16.0456529 18.1048461,16.1088571 C18.1020019,16.1012726 18.0482783,16.0898958 18.0463822,16.0832594 C18.10453,16.2769803 18.374096,16.4580604 18.5071409,16.5996378 C18.1974402,16.3856915 17.8981683,16.0936881 17.5913119,15.927145 C17.4709078,15.8617286 17.4326693,15.7359523 17.3170056,15.8013686 C17.292672,15.8146415 17.0329027,15.6360896 17.0025646,15.6057516 C16.9968763,15.6531547 17.0050928,15.6986618 17.0259502,15.7419567 C16.783562,15.5501319 16.5534987,15.2682411 16.2693958,15.131404 C16.3348121,15.2246302 16.3967523,15.3017393 16.4144495,15.341874 C16.4346748,15.387065 16.4665929,15.4180351 16.4763896,15.4695465 C16.0677744,15.1421487 15.6620033,14.8046382 15.2729814,14.4538548 C15.1889198,14.3780098 14.7572351,13.9810874 14.6892905,14.1024394 C14.5508733,13.9769791 13.6246156,13.1847143 13.4343709,13.1461597 C13.5876411,13.2728842 13.7222661,13.4179378 13.8723761,13.5475065 C13.8360337,13.5753163 13.4429035,13.2333815 13.3875998,13.1866104 C13.2905814,13.1063411 12.9824608,12.8358271 12.8449917,12.7103667 C12.7337523,12.6089239 12.6269371,12.5090613 12.51949,12.4098307 C12.3194487,12.5672092 11.9806741,12.8522602 11.9329549,12.8904987 C11.8751231,12.9375858 11.8084426,12.9660277 11.7512428,13.0263878 C11.5973406,13.1891386 11.4191047,13.3304 11.2389727,13.465657 C11.0104895,13.6363084 10.80792,13.8385619 10.5769086,14.0139535 C10.5794368,13.9832995 10.6157792,13.9769791 10.5993461,13.9358963 C10.5396181,13.9832995 10.4798901,14.0265944 10.4249025,14.0752616 C10.1152018,14.3429315 9.80581722,14.6109173 9.49832873,14.8798512 C9.26731735,15.0824207 9.04420648,15.2935228 8.8087708,15.4907199 C8.54994956,15.7056142 8.3028211,15.9347295 8.04557996,16.151836 C7.78486259,16.3730507 8.40837213,15.9682277 8.16756409,16.21188 C8.12742941,16.2520146 8.07971023,16.2864609 8.02977891,16.3139548 C7.96752276,16.3490331 7.92359583,16.4030727 7.86860817,16.4454195 C7.80508794,16.4934547 7.72955891,16.527585 7.65529396,16.5708799 C7.66256244,16.4871343 7.6619304,16.4896625 7.57944891,16.4650128 C7.51498061,16.4457355 7.46504929,16.393276 7.42870687,16.3461889 C7.37529931,16.2769803 7.22582135,15.987189 7.17652207,15.7754549 C7.17304584,15.7612339 7.17209777,15.7444848 7.17525798,15.731528 C7.2160247,15.5713053 7.17241379,15.4192992 7.11963828,15.2682411 C7.05453794,15.086213 7.06180642,14.8969164 7.04632139,14.7101479 C7.0374728,14.5941682 7.13069901,14.5211673 7.20053967,14.4472184 C7.34685741,14.291104 7.49127903,14.1283532 7.65845417,13.9949923 C7.76716541,13.9077705 7.87145236,13.8079078 8.00449722,13.7472318 C8.10530794,13.7014087 8.1647199,13.6012301 8.24246107,13.525385 C8.33347514,13.435951 8.43713004,13.3578938 8.52308777,13.2668798 C8.64791608,13.1341509 8.83468453,13.0665224 8.95919682,12.9325295 C9.06822408,12.8156017 10.163553,11.9054611 10.313663,11.7787366 C10.5623716,11.5695307 10.7952791,11.3606408 11.0433557,11.1564912 C11.0079613,11.1264692 10.973515,11.0964472 10.9374886,11.0654771 C10.6473813,10.8145564 10.3228277,10.5222369 10.0210276,10.2725803 C9.72207164,10.0248198 9.42817206,9.75683396 9.12953217,9.49769669 C8.65929284,9.08908147 8.21117499,8.81825143 7.7279788,8.41943286 C7.47832217,8.21338714 6.93508198,7.84237842 6.8797783,7.51276847 C6.84153975,7.28302116 7.16008897,7.0479015 7.26627205,6.89083904 C7.26216377,6.89715946 7.7444119,6.14344925 7.896102,6.20602142 C7.94097699,6.22466666 8.00070497,6.1592503 8.10783611,6.19938497 C8.2848079,6.26543337 8.40457987,6.42123175 8.53636065,6.54511201 C8.96077693,6.9458267 9.40415446,7.325684 9.84373974,7.70712141 C10.7560925,8.49907017 11.6270465,9.1946325 12.5175939,9.96698795 C12.5697373,9.92780134 12.6218808,9.88861473 12.6737083,9.8491121 C12.8563684,9.71006284 13.0485092,9.58144227 13.2333815,9.44428913 C13.4678692,9.27174164 13.7070971,9.10583059 13.946009,8.93707535 C14.0591446,8.856806 14.1779685,8.78285707 14.2882598,8.69879547 C14.4996779,8.53636065 14.7234208,8.39130699 14.9436875,8.24214505 C15.2401152,8.04241975 15.5390711,7.8464867 15.8380271,7.64897354 C16.0121547,7.53299381 16.1907066,7.42049032 16.3752628,7.31683541 C16.4549001,7.27259247 16.5203165,7.20022365 16.6122786,7.17114971 C16.6495691,7.15914091 16.6814872,7.13575535 16.7263622,7.10731346 C16.9798111,6.94645874 17.2392644,6.79476864 17.5025099,6.64908293 C17.8220072,6.47179512 18.1386603,6.28818689 18.4685863,6.12828024 C18.5558081,6.0856174 18.6474542,6.02083308 18.7691223,6.01798889 C18.7033899,6.10110243 18.6237526,6.14882161 18.5501197,6.21392194 C18.6215405,6.25026436 18.7520572,6.13870893 18.7665941,6.16588674 C18.7868195,6.20349325 18.7327799,6.26827756 18.749213,6.26006102 C18.7969322,6.23667546 18.839279,6.19717283 18.9037473,6.19306455 C18.8614005,6.26385327 18.7972482,6.2973515 18.7409964,6.34507068 C18.8275862,6.32863758 18.8930026,6.2537406 19.0026619,6.24520803 C18.8939506,6.33875026 18.7744947,6.37477666 18.6724199,6.44050904 C18.5962588,6.49107241 18.5109331,6.52962697 18.4293997,6.57323788 C18.4262395,6.57418594 18.4211831,6.57513401 18.4211831,6.57703013 C18.4056981,6.66456796 18.3168962,6.6832132 18.2660168,6.7416771 C18.3503944,6.73756883 18.419287,6.70091038 18.4865995,6.65729948 C18.5134613,6.67815687 18.4733266,6.69237782 18.4837553,6.7176595 C18.7599577,6.61495266 18.9912851,6.41522735 19.2798123,6.33432596 C19.1748933,6.40163845 19.0696583,6.47179512 18.9631592,6.53657944 C18.8794137,6.58714281 18.8035686,6.64939895 18.7157148,6.69648609 C18.6423979,6.73504066 18.5618125,6.76032234 18.493868,6.81025367 C18.4704824,6.82763483 18.4205511,6.84438394 18.4429886,6.88104238 C18.4666902,6.9233892 18.5106171,6.91264449 18.5526479,6.88799485 C18.6790563,6.81562603 18.8064128,6.74862956 18.9337693,6.68005299 C18.9429339,6.67499666 18.9565228,6.67942095 18.9682156,6.67942095 C18.9334533,6.7897123 18.8231619,6.82953095 18.7571135,6.9233892 C18.8345387,6.91169643 18.8790976,6.85670876 18.9435659,6.83711546 C19.0560694,6.80424927 19.1616205,6.75653009 19.2851847,6.75431794 C19.3660861,6.75242182 19.4450913,6.69648609 19.5335772,6.6772088 C19.4659487,6.72397992 19.395476,6.76948695 19.3294276,6.82068236 C19.3085702,6.83711546 19.2557947,6.83585137 19.2772842,6.89147108 C19.3022498,6.95562335 19.3420685,6.91896491 19.3761988,6.90600805 C19.4144373,6.89083904 19.4523598,6.87029767 19.4899663,6.85196845 C19.5022912,6.845332 19.5127198,6.84438394 19.5184082,6.85955295 C19.5228325,6.87219379 19.5228325,6.88420259 19.5063994,6.88799485 C19.4270781,6.90284784 19.3682982,6.95846754 19.3060421,7.00334253 C19.2434699,7.04916558 19.184374,7.10067701 19.1230659,7.15124038 C19.1341266,7.19263914 19.1812138,7.11616205 19.1891143,7.16767348 C19.1954347,7.20907224 19.154036,7.21065234 19.1357067,7.21886889 C18.8310624,7.35380988 18.583934,7.58008095 18.3064675,7.75673672 C18.1876436,7.83194973 17.8615099,8.02977891 17.8204271,8.05442855 C17.6997071,8.12711339 17.5808832,8.20422253 17.4630073,8.28196371 C17.4478383,8.29144434 17.4105478,8.29302444 17.4307732,8.33221105 C17.4494184,8.36855347 17.4686957,8.35622865 17.4961895,8.34295577 C17.6703171,8.25952621 17.8416005,8.1663 17.9888663,8.04210373 C18.0814605,7.96436255 18.193332,7.93686872 18.2884543,7.87018828 C18.4072782,7.78739076 18.838963,7.51972093 19.0171988,7.41385388 C19.1123212,7.35697009 19.1082129,7.35033365 19.200175,7.38825617 C19.1761574,7.4261787 19.1278062,7.43123503 19.1003124,7.46252112 C19.0130906,7.55479927 18.9170202,7.63475259 18.8200017,7.71280979 C18.7277236,7.78770678 18.6307051,7.85628335 18.5327386,7.92169971 C18.4916558,7.9485615 18.4553134,7.97605533 18.4322439,8.02314246 C18.7330959,7.87966891 18.9976055,7.67046297 19.2940333,7.5178248 C19.199227,7.62400788 19.0661821,7.67457124 18.9530466,7.75420855 C18.7763908,7.87966891 18.5712931,7.9605703 18.4161268,8.11763276 C18.3763081,8.15776743 18.314684,8.14512659 18.269493,8.18462922 C18.0950494,8.33063095 17.8779429,8.41184836 17.7019192,8.55405783 C17.6371349,8.60714937 17.563818,8.64886415 17.5015619,8.70511589 C17.4769122,8.72660533 17.4538427,8.75125497 17.4197124,8.75852345 C17.2509572,8.79549792 17.1558348,8.94876813 17.0114132,9.02524522 C16.9200831,9.07391246 16.8413939,9.14975751 16.7503798,9.19210434 C16.6413526,9.24456383 16.5449661,9.31661663 16.4495278,9.38266503 C16.2940454,9.49074423 16.1451995,9.61114825 15.9894011,9.7214396 C15.9059716,9.77958747 15.8013686,9.80739732 15.7369003,9.89525118 L15.7378484,9.89335505 C15.6073317,9.94676261 15.5084171,10.0478893 15.3930694,10.1240504 C15.2018767,10.2520389 15.0173204,10.387612 14.8384525,10.5326656 C14.80211,10.5633197 14.7692439,10.59745 14.7313213,10.627472 L14.7344815,10.6236797 C14.6074411,10.6309482 14.5695186,10.7592527 14.4570151,10.8057078 C14.5066304,10.8325696 14.3236542,10.913155 14.3106973,10.9226356 C14.2209473,10.9845757 14.1163444,10.9706708 14.0452396,11.0512562 C14.0139535,11.0860185 13.9491692,11.123941 13.8913374,11.1583873 C14.967073,12.0732683 16.0548175,12.9669758 17.0866262,13.9017661 C17.6365029,14.4001313 18.2217739,14.8665783 18.808941,15.3292332 C19.1657287,15.6111239 20.1172681,16.4966149 20.2291396,16.5781484 C20.1861607,16.6163869 19.6318598,16.1913386 19.559491,16.1322427 L19.559491,16.1322427 L19.559491,16.1322427 Z M57.9762741,16.0526054 L63.3584286,16.0526054 L63.3584286,18.3488143 L55.3602518,18.3488143 L55.3602518,7.54658272 L57.9762741,7.54658272 L57.9762741,16.0526054 L57.9762741,16.0526054 Z M44.568765,18.3488143 L52.7113634,18.3488143 L52.7113634,16.0848395 L47.1847872,16.0848395 L47.1847872,14.1037035 L52.0066364,14.1037035 L52.0066364,11.8877639 L47.1847872,11.8877639 L47.1847872,9.81055753 L52.7113634,9.81055753 L52.7113634,7.54658272 L44.568765,7.54658272 L44.568765,18.3488143 L44.568765,18.3488143 Z M65.5911174,18.3488143 L73.7333998,18.3488143 L73.7333998,16.0848395 L68.2068236,16.0848395 L68.2068236,14.1037035 L73.0286728,14.1037035 L73.0286728,11.8877639 L68.2068236,11.8877639 L68.2068236,9.81055753 L73.7333998,9.81055753 L73.7333998,7.54658272 L65.5911174,7.54658272 L65.5911174,18.3488143 L65.5911174,18.3488143 Z M40.8529894,8.46557194 C41.6234488,9.18989219 42.0481811,10.1787221 42.0481811,11.2497174 C42.0481811,12.0511468 41.7637621,12.8588966 41.1257156,13.8685839 L38.3036476,18.3488143 L35.3681281,18.3488143 L37.4153124,15.1276117 L37.4320616,15.101382 L37.3546364,15.0969577 C34.9939591,14.9560123 33.3446453,13.3939202 33.3446453,11.2977526 C33.3446453,8.98511055 35.1781994,7.30640672 37.7041557,7.30640672 C38.939482,7.30640672 40.0578805,7.71818215 40.8529894,8.46557194 L40.8529894,8.46557194 L40.8529894,8.46557194 Z M39.6239836,11.2016822 C39.6239836,10.1992634 38.7666185,9.38361309 37.7123722,9.38361309 C36.658126,9.38361309 35.8004449,10.1992634 35.8004449,11.2016822 C35.8004449,12.204733 36.658126,13.0203834 37.7123722,13.0203834 C38.7666185,13.0203834 39.6239836,12.204733 39.6239836,11.2016822 L39.6239836,11.2016822 L39.6239836,11.2016822 Z M82.2154048,13.3983445 L78.314757,7.54658272 L76.3819722,7.54658272 L76.3819722,18.3488143 L78.9818774,18.3488143 L78.9818774,12.744813 L81.497721,16.6344001 L82.9334046,16.6344001 L85.4324991,12.7779952 L85.4324991,18.3488143 L88.0488374,18.3488143 L88.0488374,7.54658272 L86.1002516,7.54658272 L82.2154048,13.3983445 L82.2154048,13.3983445 Z M113.994798,9.87470981 L117.471029,9.87470981 L117.471029,18.3488143 L120.087368,18.3488143 L120.087368,9.87470981 L123.54685,9.87470981 L123.54685,7.54658272 L113.994798,7.54658272 L113.994798,9.87470981 L113.994798,9.87470981 Z M131.122823,12.0148044 L129.600233,11.6621249 C128.829142,11.4958978 128.315608,11.2506655 128.315608,10.5930257 C128.315608,10.237502 128.470774,9.94455046 128.764358,9.74640526 C129.042772,9.55774069 129.440959,9.45819406 129.91499,9.45819406 C130.934158,9.45819406 131.540287,9.92179694 131.71473,10.8357298 L134.350346,10.8357298 C134.258384,9.98057686 133.654151,7.30640672 129.738967,7.30640672 C128.481835,7.30640672 127.411472,7.63538463 126.64354,8.25731406 C125.868973,8.88556392 125.459094,9.77073888 125.459094,10.8174006 C125.459094,12.5119055 126.450452,13.5159044 128.579169,13.9766631 L130.373537,14.3767457 C131.173386,14.5287518 131.562408,14.846985 131.562408,15.3504066 C131.562408,15.9903492 130.985354,16.3572496 129.979143,16.3572496 C128.696097,16.3572496 127.848529,15.7969443 127.651016,14.8194912 L125.031517,14.8194912 C125.160454,16.0500772 125.703062,17.008569 126.64354,17.668105 C127.487317,18.2600124 128.6133,18.5731893 129.898873,18.5731893 C132.616022,18.5731893 134.370571,17.2010259 134.370571,15.0783124 C134.370571,13.4264704 133.399122,12.5103254 131.122823,12.0148044 L131.122823,12.0148044 L131.122823,12.0148044 Z M91.0023702,18.3488143 L99.1449686,18.3488143 L99.1449686,16.0848395 L93.6180764,16.0848395 L93.6180764,14.1037035 L98.4399256,14.1037035 L98.4399256,11.8877639 L93.6180764,11.8877639 L93.6180764,9.81055753 L99.1449686,9.81055753 L99.1449686,7.54658272 L91.0023702,7.54658272 L91.0023702,18.3488143 L91.0023702,18.3488143 Z M109.114485,13.7592406 L103.793954,7.54658272 L101.793857,7.54658272 L101.793857,18.3488143 L104.409879,18.3488143 L104.409879,12.2979592 L109.698176,18.3488143 L111.730823,18.3488143 L111.730823,7.54658272 L109.114485,7.54658272 L109.114485,13.7592406 L109.114485,13.7592406 Z" id="9e"></path>
                        </g>
                    </g>
                </g>
            </g>
        </g>
    </g>
</svg>