<?xml version="1.0" encoding="UTF-8"?>
<svg width="177px" height="199px" viewBox="0 0 177 199" version="1.1" xmlns="http://www.w3.org/2000/svg" xmlns:xlink="http://www.w3.org/1999/xlink">
    <!-- Generator: Sketch 45.1 (43504) - http://www.bohemiancoding.com/sketch -->
    <title>atom-sign</title>
    <desc>Created with Sketch.</desc>
    <defs></defs>
    <g id="Page-1" stroke="none" stroke-width="1" fill="none" fill-rule="evenodd">
        <g id="atom-sign" fill-rule="nonzero">
            <path d="M155.197184,99.5477346 C172.830646,118.42524 180.728407,136.997408 173.876504,148.90558 C167.03998,160.783217 147.10717,163.233553 122.060426,157.409235 C114.562552,182.286627 102.41984,198.530594 88.6775832,198.530594 C74.919945,198.530594 62.784924,182.233193 55.3024303,157.2871 C29.978841,163.279353 9.80763702,160.874819 2.91728294,148.90558 C-3.93462051,136.997408 3.97083039,118.40234 21.6042923,99.5019342 C3.63246479,80.4488592 -4.45754917,61.640055 2.45587531,49.6402821 C9.3769899,37.6099754 29.7404471,35.2359745 55.2409093,41.3427292 C62.7310932,16.3432022 74.9122548,0 88.6852728,0 C102.450601,0 114.593312,16.2897681 122.075806,41.2282275 C147.337874,35.2741417 167.478318,37.6863098 174.360982,49.6402821 C181.251336,61.6476882 173.153632,80.47176 155.197184,99.5477346 L155.197184,99.5477346 L155.197184,99.5477346 Z M9.58462332,53.7776084 C4.29381574,62.9682744 11.5917466,78.0366912 27.0412124,93.9676878 C33.3394267,87.8685666 40.5912167,81.8152458 48.6658504,75.998562 C49.6501867,66.3346224 51.1497616,57.1668572 53.2030256,48.8235037 C31.6168382,43.319791 14.8985013,44.5487754 9.58462332,53.7776084 L9.58462332,53.7776084 L9.58462332,53.7776084 Z M47.796866,86.7540834 C42.2599744,90.9372108 37.2075607,95.181405 32.6780757,99.417966 C37.2690817,103.677428 42.2215237,107.952156 47.8276266,112.165817 C47.5969228,107.929255 47.4354301,103.646894 47.4354301,99.2652972 C47.4354301,95.021103 47.5738523,90.8532426 47.796866,86.7540834 L47.796866,86.7540834 L47.796866,86.7540834 Z M48.6581603,122.883171 C40.5758365,117.089387 33.3471168,111.051334 27.0258322,104.975113 C11.8532109,120.761074 4.80905427,135.653922 10.0537211,144.768253 C15.3368386,153.936019 31.8783025,155.210804 53.2722367,149.821592 C51.2189727,141.524039 49.6348065,132.50131 48.6581603,122.883171 L48.6581603,122.883171 L48.6581603,122.883171 Z M119.837979,128.539553 C116.408182,130.776151 112.901484,132.974583 109.248674,135.089047 C105.542032,137.234045 101.835391,139.203473 98.14413,141.0813 C104.473105,143.753005 110.663657,146.081206 116.538914,147.867431 C117.915447,141.882812 118.984375,135.356218 119.837979,128.539553 L119.837979,128.539553 L119.837979,128.539553 Z M88.669893,190.255942 C99.1976772,190.255942 108.541182,176.630246 114.585622,155.47034 C106.241834,153.088706 97.428948,149.775792 88.446879,145.745334 C79.626303,149.722358 70.9979802,152.920771 62.784924,155.310038 C68.8139838,176.523377 78.1421088,190.255942 88.669893,190.255942 L88.669893,190.255942 L88.669893,190.255942 Z M60.8854626,147.676595 C66.591537,145.91327 72.5590758,143.722471 78.6957978,141.1271 C74.9891562,139.24164 71.2594446,137.249311 67.5374232,135.09668 C64.0845558,133.089085 60.7624206,131.028055 57.5094969,128.913591 C58.3477208,135.608121 59.5396905,141.783577 60.8854626,147.676595 L60.8854626,147.676595 L60.8854626,147.676595 Z M57.5248771,69.922341 C60.9162234,67.716276 64.3921608,65.5483782 67.9988304,63.449181 C71.5593594,61.3805178 75.1198884,59.4797906 78.6727272,57.6630311 C72.5129352,55.0523934 66.4838754,52.7470936 60.7470402,50.9685013 C59.4089584,56.8462526 58.3707911,63.2507118 57.5248771,69.922341 L57.5248771,69.922341 L57.5248771,69.922341 Z M88.669893,8.27465256 C78.111348,8.27465256 68.7217026,22.0301175 62.6849526,43.3426913 C70.8903186,45.7395925 79.5340218,49.0296066 88.3392174,53.0142641 C97.3520466,48.915105 106.164932,45.6403578 114.554861,43.2129228 C108.525802,22.0148506 99.2053674,8.27465256 88.669893,8.27465256 L88.669893,8.27465256 L88.669893,8.27465256 Z M116.469703,50.8310993 C110.563685,52.6554922 104.396203,54.9149914 98.0287776,57.6324973 C101.604687,59.4568903 105.195976,61.3728846 108.779576,63.4568148 C112.64002,65.6934132 116.331281,68.0216136 119.93795,70.3879812 C119.092037,63.4033806 117.869306,56.9531208 116.469703,50.8310993 L116.469703,50.8310993 L116.469703,50.8310993 Z M120.999188,80.9755668 C115.846803,77.4183822 110.402192,73.9451658 104.649977,70.6246176 C99.1438464,67.4338386 93.683856,64.6476318 88.2853866,62.0446278 C82.9561284,64.6247316 77.5499688,67.4872728 72.1284288,70.6246176 C66.6453684,73.792497 61.4083914,77.1054114 56.4790198,80.4793932 C56.0022319,86.5632474 55.6792466,92.7921372 55.6792466,99.272931 C55.6792466,105.822425 55.9484011,112.19635 56.4251889,118.348906 C61.246899,121.63892 66.3377628,124.8526 71.6593314,127.936511 C77.3192646,131.211258 82.9330578,134.073799 88.48533,136.730237 C93.9683904,134.089066 99.536043,131.165457 105.111385,127.936511 C110.640587,124.738098 115.892944,121.409917 120.868456,117.997767 C121.337554,111.936813 121.668229,105.730824 121.668229,99.272931 C121.668229,92.9982402 121.437526,86.883852 120.999188,80.9755668 L120.999188,80.9755668 L120.999188,80.9755668 Z M166.732375,144.768253 C171.977042,135.669188 164.871365,120.799241 149.729504,105.051448 C143.569712,110.959733 136.517865,116.822217 128.689315,122.463332 C127.704979,132.249406 126.182334,141.539306 124.090619,149.974261 C145.207709,155.20317 161.503089,153.85205 166.732375,144.768253 L166.732375,144.768253 L166.732375,144.768253 Z M129.5583,111.70781 C134.856797,107.692619 139.716958,103.61636 144.100331,99.5630016 C139.701578,95.4409422 134.956769,91.2959826 129.58906,87.2120904 C129.781313,91.1738472 129.919736,95.181405 129.919736,99.2652972 C129.912046,103.494225 129.773623,107.631551 129.5583,111.70781 L129.5583,111.70781 L129.5583,111.70781 Z M167.193783,53.7776084 C161.918356,44.6251098 145.430723,43.3274245 124.090619,48.6937351 C126.190024,57.2279248 127.812641,66.5483592 128.781597,76.4871024 C136.617837,82.1740176 143.623543,88.089936 149.760265,94.0363884 C165.240491,78.0748584 172.499971,62.9835408 167.193783,53.7776084 L167.193783,53.7776084 L167.193783,53.7776084 Z" id="Shape-Copy" fill="#709CDE"></path>
            <path d="M88.3876614,116.85434 C79.3363812,116.85434 72,109.503334 72,100.42717 C72,91.3510056 79.3363812,84 88.3876614,84 C97.4312508,84 104.767633,91.3586394 104.767633,100.42717 C104.767633,109.510967 97.4312508,116.85434 88.3876614,116.85434 L88.3876614,116.85434 L88.3876614,116.85434 Z" id="Path" fill="#FFFFFF"></path>
        </g>
    </g>
</svg>