<?xml version="1.0" encoding="UTF-8" standalone="no"?><!DOCTYPE svg PUBLIC "-//W3C//DTD SVG 1.1//EN" "http://www.w3.org/Graphics/SVG/1.1/DTD/svg11.dtd"><svg width="100%" height="100%" viewBox="0 0 1042 249" version="1.1" xmlns="http://www.w3.org/2000/svg" xmlns:xlink="http://www.w3.org/1999/xlink" xml:space="preserve" xmlns:serif="http://www.serif.com/" style="fill-rule:evenodd;clip-rule:evenodd;stroke-linejoin:round;stroke-miterlimit:2;"><g><g transform="matrix(42.5951,0,0,42.5951,584.125,93.8172)"><path d="M0.083,-0l0,-0.654l0.206,0c0.049,0 0.092,0.006 0.13,0.019c0.038,0.013 0.068,0.034 0.09,0.063c0.022,0.029 0.033,0.069 0.033,0.12c0,0.048 -0.011,0.088 -0.033,0.119c-0.022,0.031 -0.051,0.055 -0.089,0.07c-0.038,0.015 -0.08,0.023 -0.127,0.023l-0.094,-0l0,0.24l-0.116,0Zm0.116,-0.333l0.085,-0c0.049,-0 0.085,-0.01 0.108,-0.03c0.024,-0.02 0.036,-0.05 0.036,-0.089c-0,-0.041 -0.013,-0.07 -0.038,-0.085c-0.025,-0.016 -0.062,-0.024 -0.11,-0.024l-0.081,-0l0,0.228Z" style="fill:#1e1e1e;fill-opacity:0.85;fill-rule:nonzero;"/></g><g transform="matrix(42.5951,0,0,42.5951,606.087,93.8172)"><path d="M0.274,0.012c-0.04,0 -0.079,-0.01 -0.114,-0.03c-0.036,-0.021 -0.064,-0.05 -0.086,-0.088c-0.022,-0.039 -0.033,-0.085 -0.033,-0.139c-0,-0.055 0.011,-0.101 0.033,-0.14c0.022,-0.038 0.05,-0.068 0.086,-0.088c0.035,-0.02 0.074,-0.03 0.114,-0.03c0.041,-0 0.079,0.01 0.115,0.03c0.035,0.02 0.064,0.05 0.086,0.088c0.022,0.039 0.033,0.085 0.033,0.14c0,0.054 -0.011,0.1 -0.033,0.139c-0.022,0.038 -0.051,0.067 -0.086,0.088c-0.036,0.02 -0.074,0.03 -0.115,0.03Zm0,-0.094c0.024,-0 0.045,-0.007 0.062,-0.02c0.018,-0.014 0.031,-0.033 0.04,-0.057c0.009,-0.025 0.014,-0.053 0.014,-0.086c-0,-0.033 -0.005,-0.062 -0.014,-0.086c-0.009,-0.025 -0.022,-0.044 -0.04,-0.058c-0.017,-0.013 -0.038,-0.02 -0.062,-0.02c-0.024,-0 -0.044,0.007 -0.061,0.02c-0.018,0.014 -0.031,0.033 -0.04,0.058c-0.009,0.024 -0.014,0.053 -0.014,0.086c0,0.033 0.005,0.061 0.014,0.086c0.009,0.024 0.022,0.043 0.04,0.057c0.017,0.013 0.037,0.02 0.061,0.02Z" style="fill:#1e1e1e;fill-opacity:0.85;fill-rule:nonzero;"/></g><g transform="matrix(42.5951,0,0,42.5951,627.759,93.8172)"><path d="M0.154,-0l-0.13,-0.491l0.118,0l0.058,0.255c0.005,0.022 0.01,0.044 0.014,0.067c0.004,0.023 0.008,0.05 0.011,0.079l0.004,-0c0.005,-0.029 0.009,-0.056 0.013,-0.079c0.005,-0.023 0.009,-0.045 0.014,-0.067l0.06,-0.255l0.12,0l0.062,0.255c0.005,0.022 0.01,0.044 0.015,0.067c0.005,0.023 0.009,0.05 0.014,0.079l0.004,-0c0.005,-0.029 0.009,-0.056 0.012,-0.079c0.004,-0.023 0.008,-0.045 0.013,-0.067l0.058,-0.255l0.11,0l-0.125,0.491l-0.147,-0l-0.05,-0.228c-0.005,-0.022 -0.009,-0.044 -0.014,-0.066c-0.004,-0.023 -0.008,-0.05 -0.012,-0.082l-0.004,0c-0.004,0.032 -0.008,0.059 -0.012,0.082c-0.004,0.022 -0.009,0.044 -0.014,0.066l-0.05,0.228l-0.142,0Z" style="fill:#1e1e1e;fill-opacity:0.85;fill-rule:nonzero;"/></g><g transform="matrix(42.5951,0,0,42.5951,657.917,93.8172)"><path d="M0.284,0.012c-0.046,0 -0.088,-0.01 -0.125,-0.031c-0.037,-0.02 -0.066,-0.049 -0.087,-0.087c-0.021,-0.039 -0.032,-0.085 -0.032,-0.14c-0,-0.053 0.011,-0.099 0.033,-0.137c0.022,-0.039 0.05,-0.068 0.085,-0.089c0.035,-0.021 0.071,-0.031 0.11,-0.031c0.045,0 0.082,0.01 0.112,0.03c0.03,0.02 0.052,0.047 0.068,0.082c0.015,0.035 0.022,0.076 0.022,0.121c0,0.011 -0.001,0.021 -0.002,0.031c-0.001,0.01 -0.002,0.02 -0.004,0.029l-0.338,-0l0,-0.088l0.242,-0c0,-0.035 -0.008,-0.063 -0.024,-0.084c-0.016,-0.02 -0.041,-0.03 -0.074,-0.03c-0.019,-0 -0.037,0.005 -0.054,0.015c-0.018,0.01 -0.033,0.027 -0.044,0.051c-0.012,0.024 -0.018,0.057 -0.018,0.1c0,0.039 0.007,0.07 0.02,0.094c0.013,0.025 0.031,0.043 0.053,0.054c0.022,0.012 0.046,0.018 0.071,0.018c0.021,-0 0.042,-0.003 0.061,-0.009c0.019,-0.006 0.036,-0.014 0.053,-0.025l0.04,0.074c-0.023,0.016 -0.048,0.029 -0.077,0.038c-0.029,0.009 -0.06,0.014 -0.091,0.014Z" style="fill:#1e1e1e;fill-opacity:0.85;fill-rule:nonzero;"/></g><g transform="matrix(42.5951,0,0,42.5951,677.808,93.8172)"><path d="M0.073,-0l0,-0.491l0.095,-0l0.008,0.087l0.004,0c0.017,-0.032 0.038,-0.056 0.062,-0.074c0.025,-0.017 0.05,-0.025 0.077,-0.025c0.013,-0 0.023,0.001 0.032,0.002c0.009,0.002 0.017,0.004 0.024,0.008l-0.023,0.098c-0.008,-0.002 -0.015,-0.004 -0.022,-0.005c-0.006,-0.001 -0.015,-0.001 -0.026,-0.001c-0.019,-0 -0.04,0.007 -0.061,0.022c-0.022,0.015 -0.04,0.042 -0.055,0.079l0,0.3l-0.115,-0Z" style="fill:#1e1e1e;fill-opacity:0.85;fill-rule:nonzero;"/></g><g transform="matrix(42.5951,0,0,42.5951,691.575,93.8172)"><path d="M0.284,0.012c-0.046,0 -0.088,-0.01 -0.125,-0.031c-0.037,-0.02 -0.066,-0.049 -0.087,-0.087c-0.021,-0.039 -0.032,-0.085 -0.032,-0.14c-0,-0.053 0.011,-0.099 0.033,-0.137c0.022,-0.039 0.05,-0.068 0.085,-0.089c0.035,-0.021 0.071,-0.031 0.11,-0.031c0.045,0 0.082,0.01 0.112,0.03c0.03,0.02 0.052,0.047 0.068,0.082c0.015,0.035 0.022,0.076 0.022,0.121c0,0.011 -0.001,0.021 -0.002,0.031c-0.001,0.01 -0.002,0.02 -0.004,0.029l-0.338,-0l0,-0.088l0.242,-0c0,-0.035 -0.008,-0.063 -0.024,-0.084c-0.016,-0.02 -0.041,-0.03 -0.074,-0.03c-0.019,-0 -0.037,0.005 -0.054,0.015c-0.018,0.01 -0.033,0.027 -0.044,0.051c-0.012,0.024 -0.018,0.057 -0.018,0.1c0,0.039 0.007,0.07 0.02,0.094c0.013,0.025 0.031,0.043 0.053,0.054c0.022,0.012 0.046,0.018 0.071,0.018c0.021,-0 0.042,-0.003 0.061,-0.009c0.019,-0.006 0.036,-0.014 0.053,-0.025l0.04,0.074c-0.023,0.016 -0.048,0.029 -0.077,0.038c-0.029,0.009 -0.06,0.014 -0.091,0.014Z" style="fill:#1e1e1e;fill-opacity:0.85;fill-rule:nonzero;"/></g><g transform="matrix(42.5951,0,0,42.5951,711.467,93.8172)"><path d="M0.245,0.012c-0.061,0 -0.11,-0.023 -0.147,-0.068c-0.036,-0.046 -0.055,-0.109 -0.055,-0.189c0,-0.054 0.01,-0.099 0.03,-0.138c0.019,-0.038 0.045,-0.068 0.077,-0.089c0.032,-0.021 0.065,-0.031 0.101,-0.031c0.028,-0 0.052,0.005 0.072,0.014c0.019,0.01 0.038,0.023 0.057,0.04l-0.004,-0.079l-0,-0.178l0.115,-0l-0,0.706l-0.095,-0l-0.008,-0.053l-0.004,-0c-0.018,0.018 -0.039,0.033 -0.063,0.046c-0.024,0.013 -0.05,0.019 -0.076,0.019Zm0.028,-0.095c0.019,-0 0.037,-0.005 0.054,-0.013c0.016,-0.009 0.033,-0.023 0.049,-0.042l-0,-0.229c-0.017,-0.015 -0.034,-0.026 -0.05,-0.032c-0.017,-0.006 -0.033,-0.009 -0.05,-0.009c-0.021,-0 -0.04,0.006 -0.057,0.019c-0.018,0.012 -0.031,0.031 -0.042,0.055c-0.01,0.024 -0.015,0.053 -0.015,0.088c-0,0.053 0.009,0.093 0.029,0.121c0.02,0.028 0.047,0.042 0.082,0.042Z" style="fill:#1e1e1e;fill-opacity:0.85;fill-rule:nonzero;"/></g><g transform="matrix(42.5951,0,0,42.5951,733.787,93.8172)"></g><g transform="matrix(42.5951,0,0,42.5951,740.602,93.8172)"><path d="M0.311,0.012c-0.022,0 -0.045,-0.006 -0.068,-0.017c-0.023,-0.01 -0.045,-0.026 -0.066,-0.047l-0.003,0l-0.01,0.052l-0.091,-0l0,-0.706l0.115,-0l0,0.182l-0.003,0.082c0.021,-0.018 0.043,-0.033 0.068,-0.044c0.024,-0.012 0.049,-0.017 0.074,-0.017c0.041,-0 0.076,0.01 0.105,0.031c0.029,0.02 0.051,0.049 0.066,0.086c0.015,0.038 0.023,0.082 0.023,0.132c-0,0.056 -0.01,0.104 -0.03,0.144c-0.02,0.04 -0.046,0.07 -0.077,0.091c-0.032,0.021 -0.066,0.031 -0.103,0.031Zm-0.024,-0.095c0.022,-0 0.041,-0.007 0.059,-0.019c0.017,-0.013 0.031,-0.032 0.041,-0.057c0.01,-0.025 0.015,-0.056 0.015,-0.093c0,-0.033 -0.003,-0.061 -0.011,-0.084c-0.007,-0.023 -0.019,-0.041 -0.034,-0.053c-0.016,-0.013 -0.036,-0.019 -0.061,-0.019c-0.018,-0 -0.035,0.004 -0.053,0.013c-0.018,0.009 -0.036,0.023 -0.055,0.042l0,0.229c0.018,0.015 0.035,0.025 0.052,0.031c0.017,0.007 0.033,0.01 0.047,0.01Z" style="fill:#1e1e1e;fill-opacity:0.85;fill-rule:nonzero;"/></g><g transform="matrix(42.5951,0,0,42.5951,762.888,93.8172)"><path d="M0.106,0.202c-0.014,-0 -0.025,-0.001 -0.035,-0.003c-0.011,-0.002 -0.02,-0.005 -0.029,-0.009l0.022,-0.086c0.007,0.002 0.013,0.003 0.018,0.004c0.006,0.001 0.011,0.001 0.016,0.001c0.026,0 0.047,-0.008 0.063,-0.024c0.015,-0.016 0.027,-0.036 0.035,-0.06l0.009,-0.031l-0.193,-0.485l0.117,-0l0.085,0.241c0.007,0.021 0.015,0.044 0.022,0.067c0.007,0.024 0.014,0.048 0.021,0.071l0.004,0c0.006,-0.023 0.013,-0.046 0.019,-0.069c0.006,-0.024 0.012,-0.047 0.018,-0.069l0.074,-0.241l0.111,-0l-0.178,0.513c-0.013,0.037 -0.029,0.069 -0.046,0.096c-0.017,0.027 -0.038,0.047 -0.063,0.062c-0.024,0.014 -0.055,0.022 -0.09,0.022Z" style="fill:#1e1e1e;fill-opacity:0.85;fill-rule:nonzero;"/></g><g transform="matrix(42.5951,0,0,42.5951,783.964,93.8172)"></g><g><g><path d="M595.58,168.539l-10.688,-40.369l9.701,-0l4.769,20.965c0.438,1.809 0.822,3.659 1.151,5.55c0.329,1.891 0.63,4.042 0.904,6.454l0.329,-0c0.384,-2.412 0.754,-4.563 1.11,-6.454c0.357,-1.891 0.726,-3.741 1.11,-5.55l4.933,-20.965l9.866,-0l5.098,20.965c0.438,1.809 0.85,3.659 1.233,5.55c0.384,1.891 0.768,4.042 1.151,6.454l0.329,-0c0.384,-2.412 0.726,-4.563 1.028,-6.454c0.301,-1.891 0.644,-3.741 1.028,-5.55l4.768,-20.965l9.044,-0l-10.277,40.369l-12.086,-0l-4.111,-18.746c-0.384,-1.809 -0.754,-3.631 -1.11,-5.468c-0.356,-1.836 -0.699,-4.069 -1.028,-6.7l-0.329,-0c-0.328,2.631 -0.657,4.864 -0.986,6.7c-0.329,1.837 -0.713,3.659 -1.151,5.468l-4.111,18.746l-11.675,-0Z" style="fill:#222;fill-rule:nonzero;"/><path d="M663.69,169.525c-3.355,0 -6.493,-0.833 -9.415,-2.499c-2.922,-1.666 -5.284,-4.075 -7.087,-7.227c-1.803,-3.152 -2.705,-6.958 -2.705,-11.421c-0,-4.483 0.902,-8.306 2.705,-11.469c1.803,-3.163 4.165,-5.577 7.087,-7.243c2.922,-1.667 6.06,-2.5 9.415,-2.5c3.354,0 6.486,0.833 9.396,2.5c2.911,1.666 5.274,4.08 7.088,7.243c1.814,3.163 2.721,6.986 2.721,11.469c0,4.463 -0.907,8.269 -2.721,11.421c-1.814,3.152 -4.177,5.561 -7.088,7.227c-2.91,1.666 -6.042,2.499 -9.396,2.499Zm-0,-7.728c1.973,-0 3.672,-0.554 5.097,-1.661c1.425,-1.107 2.511,-2.669 3.256,-4.686c0.746,-2.017 1.119,-4.375 1.119,-7.072c-0,-2.696 -0.373,-5.059 -1.119,-7.087c-0.745,-2.028 -1.831,-3.601 -3.256,-4.719c-1.425,-1.118 -3.124,-1.677 -5.097,-1.677c-1.973,-0 -3.667,0.559 -5.082,1.677c-1.414,1.118 -2.499,2.691 -3.256,4.719c-0.756,2.028 -1.134,4.391 -1.134,7.087c0,2.697 0.378,5.055 1.134,7.072c0.757,2.017 1.842,3.579 3.256,4.686c1.415,1.107 3.109,1.661 5.082,1.661Z" style="fill:#222;fill-rule:nonzero;"/><path d="M688.98,168.539l-0,-40.386l7.76,-0l0.724,7.203l0.263,-0c1.425,-2.642 3.144,-4.668 5.155,-6.077c2.012,-1.408 4.12,-2.113 6.323,-2.113c1.02,0 1.888,0.063 2.606,0.19c0.718,0.126 1.373,0.337 1.965,0.632l-1.908,8.058c-0.624,-0.165 -1.21,-0.288 -1.758,-0.37c-0.548,-0.082 -1.256,-0.124 -2.122,-0.124c-1.611,0 -3.297,0.617 -5.056,1.85c-1.76,1.234 -3.254,3.402 -4.482,6.505l0,24.632l-9.47,-0Z" style="fill:#222;fill-rule:nonzero;"/><path d="M716.375,168.539l-0,-58.08l9.372,0l0,36.177l0.262,0l14.768,-18.483l10.458,-0l-13.747,16.542l15.16,23.844l-10.293,-0l-10.392,-17.53l-6.216,7.17l0,10.36l-9.372,-0Z" style="fill:#222;fill-rule:nonzero;"/><path d="M767.251,169.525c-2.829,0 -5.6,-0.518 -8.313,-1.554c-2.713,-1.035 -5.04,-2.491 -6.979,-4.366l4.143,-5.392c1.808,1.436 3.645,2.491 5.508,3.165c1.864,0.674 3.831,1.011 5.903,1.011c2.204,-0 3.835,-0.463 4.893,-1.389c1.058,-0.927 1.587,-2.075 1.587,-3.445c-0,-1.13 -0.4,-2.073 -1.201,-2.829c-0.8,-0.756 -1.839,-1.411 -3.116,-1.965c-1.278,-0.554 -2.667,-1.105 -4.168,-1.653c-1.962,-0.712 -3.804,-1.581 -5.526,-2.606c-1.721,-1.025 -3.116,-2.289 -4.185,-3.791c-1.069,-1.501 -1.603,-3.327 -1.603,-5.475c-0,-3.53 1.326,-6.424 3.98,-8.682c2.653,-2.259 6.227,-3.388 10.721,-3.388c2.73,0 5.24,0.452 7.531,1.357c2.291,0.904 4.253,2.063 5.886,3.477l-4.143,5.395c-1.447,-1.031 -2.911,-1.805 -4.391,-2.32c-1.48,-0.515 -3.031,-0.773 -4.653,-0.773c-2.039,0 -3.546,0.439 -4.522,1.316c-0.976,0.877 -1.464,1.93 -1.464,3.158c-0,0.997 0.315,1.831 0.945,2.499c0.631,0.668 1.546,1.263 2.747,1.784c1.201,0.52 2.645,1.066 4.333,1.636c2.083,0.724 4.023,1.593 5.821,2.607c1.798,1.014 3.239,2.296 4.325,3.847c1.085,1.551 1.628,3.5 1.628,5.846c-0,2.313 -0.6,4.415 -1.8,6.306c-1.201,1.891 -2.966,3.401 -5.295,4.53c-2.33,1.13 -5.194,1.694 -8.592,1.694Z" style="fill:#222;fill-rule:nonzero;"/><path d="M788.134,168.539l0,-58.08l9.471,0l-0,15.031l-0.395,7.794c1.71,-1.612 3.604,-3.035 5.682,-4.268c2.077,-1.233 4.491,-1.85 7.243,-1.85c4.352,0 7.513,1.401 9.48,4.202c1.968,2.801 2.952,6.75 2.952,11.847l-0,25.324l-9.472,-0l-0,-24.107c-0,-3.332 -0.493,-5.689 -1.48,-7.071c-0.987,-1.381 -2.587,-2.072 -4.801,-2.072c-1.776,0 -3.333,0.428 -4.67,1.283c-1.337,0.855 -2.851,2.105 -4.539,3.749l-0,28.218l-9.471,-0Z" style="fill:#222;fill-rule:nonzero;"/><path d="M847.265,169.525c-3.354,0 -6.493,-0.833 -9.414,-2.499c-2.922,-1.666 -5.284,-4.075 -7.088,-7.227c-1.803,-3.152 -2.705,-6.958 -2.705,-11.421c0,-4.483 0.902,-8.306 2.705,-11.469c1.804,-3.163 4.166,-5.577 7.088,-7.243c2.921,-1.667 6.06,-2.5 9.414,-2.5c3.354,0 6.486,0.833 9.397,2.5c2.911,1.666 5.273,4.08 7.087,7.243c1.815,3.163 2.722,6.986 2.722,11.469c-0,4.463 -0.907,8.269 -2.722,11.421c-1.814,3.152 -4.176,5.561 -7.087,7.227c-2.911,1.666 -6.043,2.499 -9.397,2.499Zm0,-7.728c1.974,-0 3.673,-0.554 5.098,-1.661c1.425,-1.107 2.51,-2.669 3.256,-4.686c0.745,-2.017 1.118,-4.375 1.118,-7.072c0,-2.696 -0.373,-5.059 -1.118,-7.087c-0.746,-2.028 -1.831,-3.601 -3.256,-4.719c-1.425,-1.118 -3.124,-1.677 -5.098,-1.677c-1.973,-0 -3.667,0.559 -5.081,1.677c-1.415,1.118 -2.5,2.691 -3.256,4.719c-0.756,2.028 -1.134,4.391 -1.134,7.087c-0,2.697 0.378,5.055 1.134,7.072c0.756,2.017 1.841,3.579 3.256,4.686c1.414,1.107 3.108,1.661 5.081,1.661Z" style="fill:#222;fill-rule:nonzero;"/><path d="M872.555,184.522l0,-56.369l7.761,-0l0.723,4.309l0.264,-0c1.71,-1.491 3.615,-2.747 5.714,-3.766c2.1,-1.02 4.251,-1.53 6.454,-1.53c3.366,0 6.23,0.847 8.592,2.541c2.363,1.693 4.169,4.08 5.418,7.161c1.25,3.081 1.875,6.698 1.875,10.853c-0,4.604 -0.817,8.531 -2.45,11.782c-1.634,3.251 -3.757,5.734 -6.372,7.449c-2.615,1.715 -5.418,2.573 -8.411,2.573c-1.765,0 -3.527,-0.389 -5.287,-1.168c-1.759,-0.778 -3.461,-1.869 -5.106,-3.272l0.296,6.709l-0,12.728l-9.471,0Zm17.562,-22.824c1.797,-0 3.414,-0.521 4.85,-1.562c1.437,-1.042 2.571,-2.593 3.405,-4.654c0.833,-2.061 1.25,-4.615 1.25,-7.662c-0,-2.686 -0.307,-4.985 -0.921,-6.898c-0.614,-1.913 -1.566,-3.379 -2.854,-4.399c-1.288,-1.02 -2.957,-1.529 -5.007,-1.529c-1.436,-0 -2.866,0.367 -4.292,1.101c-1.425,0.735 -2.933,1.88 -4.522,3.437l-0,18.812c1.458,1.217 2.886,2.08 4.284,2.589c1.398,0.51 2.667,0.765 3.807,0.765Z" style="fill:#222;fill-rule:nonzero;"/><path d="M926.918,169.525c-2.829,0 -5.6,-0.518 -8.313,-1.554c-2.713,-1.035 -5.04,-2.491 -6.98,-4.366l4.143,-5.392c1.809,1.436 3.645,2.491 5.509,3.165c1.864,0.674 3.831,1.011 5.903,1.011c2.204,-0 3.835,-0.463 4.893,-1.389c1.058,-0.927 1.587,-2.075 1.587,-3.445c-0,-1.13 -0.4,-2.073 -1.201,-2.829c-0.8,-0.756 -1.839,-1.411 -3.116,-1.965c-1.278,-0.554 -2.667,-1.105 -4.168,-1.653c-1.962,-0.712 -3.804,-1.581 -5.526,-2.606c-1.721,-1.025 -3.116,-2.289 -4.185,-3.791c-1.069,-1.501 -1.603,-3.327 -1.603,-5.475c-0,-3.53 1.326,-6.424 3.98,-8.682c2.653,-2.259 6.227,-3.388 10.721,-3.388c2.73,0 5.24,0.452 7.531,1.357c2.291,0.904 4.253,2.063 5.886,3.477l-4.143,5.395c-1.447,-1.031 -2.911,-1.805 -4.391,-2.32c-1.48,-0.515 -3.031,-0.773 -4.653,-0.773c-2.039,0 -3.546,0.439 -4.522,1.316c-0.976,0.877 -1.464,1.93 -1.464,3.158c-0,0.997 0.315,1.831 0.945,2.499c0.631,0.668 1.546,1.263 2.747,1.784c1.201,0.52 2.645,1.066 4.333,1.636c2.083,0.724 4.023,1.593 5.821,2.607c1.797,1.014 3.239,2.296 4.325,3.847c1.085,1.551 1.628,3.5 1.628,5.846c-0,2.313 -0.6,4.415 -1.801,6.306c-1.2,1.891 -2.965,3.401 -5.294,4.53c-2.33,1.13 -5.194,1.694 -8.592,1.694Z" style="fill:#222;fill-rule:nonzero;"/><path d="M953.095,169.525c-1.699,0 -3.143,-0.611 -4.332,-1.833c-1.19,-1.222 -1.784,-2.738 -1.784,-4.546c-0,-1.886 0.594,-3.432 1.784,-4.638c1.189,-1.206 2.633,-1.809 4.332,-1.809c1.754,0 3.212,0.603 4.374,1.809c1.162,1.206 1.744,2.752 1.744,4.638c-0,1.808 -0.582,3.324 -1.744,4.546c-1.162,1.222 -2.62,1.833 -4.374,1.833Z" style="fill:#222;fill-rule:nonzero;"/><path d="M980.26,169.525c-5.032,0 -9.052,-1.866 -12.061,-5.599c-3.009,-3.733 -4.514,-8.915 -4.514,-15.548c0,-4.384 0.809,-8.158 2.426,-11.321c1.617,-3.162 3.73,-5.601 6.339,-7.317c2.609,-1.716 5.388,-2.574 8.337,-2.574c2.313,0 4.272,0.392 5.878,1.176c1.606,0.784 3.176,1.872 4.711,3.264l-0.361,-6.512l0,-14.635l9.471,0l-0,58.08l-7.761,-0l-0.725,-4.375l-0.262,0c-1.48,1.48 -3.217,2.744 -5.213,3.791c-1.995,1.047 -4.084,1.57 -6.265,1.57Zm2.335,-7.827c1.579,-0 3.05,-0.365 4.415,-1.093c1.365,-0.729 2.7,-1.878 4.005,-3.446l0,-18.811c-1.371,-1.25 -2.736,-2.121 -4.095,-2.614c-1.36,-0.494 -2.735,-0.74 -4.128,-0.74c-1.709,-0 -3.271,0.518 -4.686,1.553c-1.414,1.036 -2.549,2.549 -3.404,4.539c-0.855,1.99 -1.283,4.388 -1.283,7.194c0,4.374 0.806,7.704 2.417,9.99c1.612,2.285 3.865,3.428 6.759,3.428Z" style="fill:#222;fill-rule:nonzero;"/><path d="M1026.57,169.525c-3.782,0 -7.194,-0.836 -10.236,-2.507c-3.042,-1.672 -5.44,-4.084 -7.194,-7.236c-1.754,-3.151 -2.631,-6.974 -2.631,-11.469c0,-4.385 0.904,-8.153 2.713,-11.305c1.809,-3.152 4.139,-5.577 6.989,-7.276c2.85,-1.699 5.865,-2.549 9.044,-2.549c3.672,-0 6.742,0.822 9.208,2.466c2.467,1.645 4.317,3.906 5.55,6.783c1.233,2.878 1.85,6.181 1.85,9.908c-0,0.877 -0.041,1.726 -0.124,2.548c-0.082,0.823 -0.205,1.617 -0.37,2.385l-27.789,-0l-0,-7.235l19.897,-0c-0,-2.905 -0.658,-5.194 -1.974,-6.866c-1.315,-1.671 -3.343,-2.507 -6.084,-2.507c-1.535,-0 -3.028,0.411 -4.481,1.233c-1.452,0.822 -2.658,2.22 -3.617,4.193c-0.959,1.973 -1.439,4.714 -1.439,8.222c-0,3.179 0.548,5.769 1.644,7.77c1.096,2 2.549,3.48 4.358,4.439c1.809,0.96 3.754,1.439 5.837,1.439c1.754,0 3.412,-0.247 4.974,-0.74c1.563,-0.493 3.029,-1.178 4.399,-2.055l3.289,6.084c-1.864,1.315 -3.988,2.357 -6.372,3.124c-2.384,0.767 -4.865,1.151 -7.441,1.151Z" style="fill:#222;fill-rule:nonzero;"/></g></g><path d="M417.284,58.74c5.611,-5.375 13.227,-8.678 21.615,-8.678l85.673,0c17.246,0 31.227,13.962 31.227,31.184l-0,7.446c-1.505,3.313 -3.068,6.631 -4.675,9.91c-5.335,10.887 -10.924,20.886 -16.083,28.5c-2.583,3.813 -4.921,6.821 -6.927,8.984c-0.996,1.073 -1.819,1.839 -2.46,2.358c-0.589,0.476 -0.882,0.628 -0.881,0.629c-1.514,0.695 -2.255,0.728 -2.434,0.721c-0.1,-0.048 -0.342,-0.195 -0.74,-0.585c-1.951,-1.913 -4.16,-6.107 -6.618,-13.077c-0.957,-2.712 -1.83,-5.463 -2.738,-8.324c-0.186,-0.586 -0.374,-1.177 -0.564,-1.772c-1.069,-3.353 -2.242,-6.954 -3.543,-10.152c-1.218,-2.995 -2.996,-6.801 -5.708,-9.866c-3.016,-3.407 -8.478,-7.141 -15.808,-5.73c-5.722,1.101 -9.59,4.815 -11.852,7.519c-2.415,2.888 -4.409,6.335 -6.065,9.588c-2.468,4.846 -4.941,10.834 -7.255,16.437c-0.736,1.784 -1.457,3.529 -2.156,5.185c-3.148,7.458 -6.006,13.517 -8.873,17.501c-0.636,0.885 -1.162,1.519 -1.579,1.97c-0.041,-0.043 -0.083,-0.088 -0.125,-0.133c-1.638,-1.764 -3.693,-4.681 -6.023,-8.911c-4.629,-8.404 -9.383,-20.215 -13.682,-33.569c-5.028,-15.614 -9.151,-32.428 -11.726,-47.135Zm138.515,80.917l-0,27.347c-0,17.222 -13.981,31.184 -31.227,31.184l-85.673,-0c-17.246,-0 -31.226,-13.962 -31.226,-31.184l-0,-48.457c4.131,12.146 8.814,23.551 13.778,32.564c2.822,5.123 5.979,9.926 9.49,13.707c3.283,3.534 8.249,7.671 14.857,8.549c11.983,1.592 19.996,-6.73 24.307,-12.721c4.653,-6.466 8.426,-14.883 11.525,-22.226c0.904,-2.14 1.753,-4.195 2.564,-6.159c1.462,-3.536 2.802,-6.779 4.122,-9.707c0.087,0.271 0.175,0.547 0.264,0.826c0.169,0.532 0.343,1.079 0.521,1.638c0.908,2.864 1.918,6.049 3.015,9.157c2.467,6.994 6.158,16.093 12.502,22.311c3.436,3.368 7.972,6.225 13.697,7.183c5.697,0.953 11.328,-0.182 16.616,-2.615c4.305,-1.98 7.999,-5.317 10.965,-8.515c3.123,-3.366 6.225,-7.446 9.223,-11.87c0.226,-0.335 0.453,-0.672 0.68,-1.012Zm-108.171,9.871c0.001,-0.007 0.052,-0.041 0.154,-0.078c-0.103,0.067 -0.154,0.086 -0.154,0.078Zm74.72,-9.73c0.031,0.007 0.046,0.014 0.046,0.016c-0,0.001 -0.015,-0.002 -0.046,-0.016Zm-0.026,-0.005c-0.035,-0.003 -0.034,-0.006 -0,-0Zm-28.592,-26.847c-0,0.003 -0.031,0.035 -0.093,0.086c0.062,-0.063 0.093,-0.089 0.093,-0.086Z" style="fill:#5fa1ee;"/></g><rect x="340.713" y="50.062" width="4.258" height="148.126" style="fill:#dbdcde;"/><g><path d="M278.662,124.154c0,-18.467 -23.117,-35.968 -58.561,-46.821c8.18,-36.138 4.545,-64.889 -11.473,-74.094c-3.693,-2.159 -8.009,-3.182 -12.724,-3.182l0,12.671c2.613,-0 4.715,0.511 6.475,1.477c7.725,4.432 11.077,21.308 8.464,43.014c-0.625,5.341 -1.647,10.966 -2.897,16.705c-11.133,-2.728 -23.288,-4.83 -36.069,-6.194c-7.667,-10.511 -15.619,-20.057 -23.628,-28.41c18.517,-17.217 35.898,-26.649 47.712,-26.649l0,-12.671c-15.62,0 -36.068,11.137 -56.743,30.456c-20.676,-19.205 -41.124,-30.229 -56.744,-30.229l-0,12.671c11.758,0 29.196,9.376 47.712,26.479c-7.951,8.352 -15.904,17.842 -23.458,28.353c-12.837,1.364 -24.992,3.466 -36.125,6.251c-1.307,-5.682 -2.272,-11.194 -2.954,-16.478c-2.669,-21.706 0.625,-38.582 8.293,-43.071c1.704,-1.022 3.92,-1.477 6.532,-1.477l-0,-12.671c-4.771,0 -9.088,1.023 -12.837,3.182c-15.961,9.205 -19.539,37.9 -11.303,73.924c-35.33,10.909 -58.334,28.354 -58.334,46.764c0,18.466 23.118,35.967 58.561,46.82c-8.179,36.138 -4.544,64.889 11.474,74.094c3.692,2.159 8.009,3.182 12.78,3.182c15.62,0 36.068,-11.137 56.744,-30.456c20.675,19.206 41.123,30.228 56.743,30.228c4.771,0 9.088,-1.022 12.836,-3.181c15.962,-9.205 19.54,-37.9 11.304,-73.924c35.216,-10.853 58.22,-28.354 58.22,-46.763Zm-73.953,-37.9c-2.102,7.33 -4.715,14.887 -7.668,22.444c-2.33,-4.546 -4.772,-9.091 -7.441,-13.637c-2.614,-4.545 -5.396,-8.977 -8.18,-13.296c8.066,1.193 15.847,2.671 23.289,4.489Zm-26.015,60.514c-4.43,7.671 -8.974,14.944 -13.689,21.705c-8.463,0.739 -17.04,1.137 -25.674,1.137c-8.577,0 -17.153,-0.398 -25.56,-1.08c-4.714,-6.761 -9.316,-13.977 -13.746,-21.592c-4.317,-7.443 -8.236,-15 -11.814,-22.614c3.522,-7.614 7.497,-15.228 11.757,-22.671c4.431,-7.671 8.975,-14.945 13.689,-21.707c8.463,-0.738 17.04,-1.136 25.674,-1.136c8.577,0 17.154,0.398 25.561,1.08c4.714,6.761 9.315,13.978 13.745,21.592c4.317,7.443 8.236,15.001 11.814,22.614c-3.578,7.615 -7.497,15.229 -11.757,22.672Zm18.347,-7.386c3.066,7.613 5.679,15.227 7.838,22.614c-7.441,1.818 -15.279,3.353 -23.402,4.546c2.783,-4.376 5.567,-8.864 8.18,-13.467c2.612,-4.545 5.054,-9.148 7.384,-13.693Zm-57.597,60.627c-5.282,-5.454 -10.564,-11.534 -15.79,-18.182c5.112,0.227 10.338,0.397 15.621,0.397c5.338,0 10.621,-0.113 15.79,-0.397c-5.112,6.648 -10.394,12.728 -15.621,18.182Zm-42.258,-33.467c-8.066,-1.193 -15.848,-2.671 -23.289,-4.489c2.102,-7.33 4.715,-14.887 7.668,-22.444c2.329,4.545 4.772,9.091 7.441,13.637c2.67,4.545 5.396,8.978 8.18,13.296Zm41.975,-118.244c5.282,5.454 10.564,11.534 15.791,18.182c-5.112,-0.227 -10.339,-0.397 -15.621,-0.397c-5.339,-0 -10.621,0.113 -15.79,0.397c5.112,-6.648 10.394,-12.728 15.62,-18.182Zm-42.032,33.467c-2.783,4.376 -5.567,8.864 -8.18,13.467c-2.612,4.545 -5.055,9.091 -7.384,13.636c-3.067,-7.613 -5.68,-15.227 -7.838,-22.614c7.441,-1.761 15.279,-3.296 23.402,-4.489Zm-51.405,71.14c-20.107,-8.58 -33.114,-19.831 -33.114,-28.751c-0,-8.922 13.007,-20.229 33.114,-28.752c4.885,-2.102 10.224,-3.978 15.734,-5.739c3.238,11.137 7.498,22.729 12.78,34.604c-5.226,11.819 -9.429,23.353 -12.61,34.433c-5.623,-1.761 -10.962,-3.693 -15.904,-5.795Zm30.559,81.197c-7.725,-4.432 -11.076,-21.308 -8.463,-43.014c0.624,-5.341 1.647,-10.966 2.896,-16.705c11.133,2.728 23.289,4.83 36.069,6.193c7.668,10.512 15.619,20.059 23.628,28.411c-18.516,17.217 -35.898,26.649 -47.712,26.649c-2.555,-0.057 -4.714,-0.568 -6.418,-1.534Zm134.73,-43.298c2.67,21.706 -0.625,38.581 -8.293,43.07c-1.704,1.023 -3.919,1.478 -6.532,1.478c-11.758,-0 -29.195,-9.376 -47.712,-26.479c7.952,-8.353 15.904,-17.842 23.459,-28.353c12.836,-1.364 24.991,-3.466 36.125,-6.251c1.306,5.739 2.328,11.251 2.953,16.535Zm21.868,-37.899c-4.885,2.102 -10.224,3.977 -15.734,5.739c-3.237,-11.137 -7.497,-22.729 -12.779,-34.604c5.225,-11.819 9.429,-23.353 12.609,-34.434c5.623,1.762 10.963,3.694 15.961,5.796c20.107,8.58 33.115,19.83 33.115,28.752c-0.057,8.92 -13.064,20.228 -33.172,28.751Z" style="fill:#709cde;fill-rule:nonzero;"/><path d="M117.357,137.916l-0,-29.512l8.328,-0c9.008,-0 14.802,4.481 14.802,14.62c-0,10.14 -5.794,14.892 -14.439,14.892l-8.691,0Zm6.653,-5.386l1.268,-0c5.024,-0 8.374,-2.444 8.374,-9.506c-0,-7.061 -3.35,-9.233 -8.374,-9.233l-1.268,-0l0,18.739Zm22.089,5.386l0,-29.512l18.469,-0l-0,5.613l-11.814,-0l-0,5.929l10.049,0l-0,5.568l-10.049,-0l-0,6.79l12.267,-0l-0,5.612l-18.922,0Z" style="fill-rule:nonzero;"/><path d="M117.357,137.916l-0,-29.512l8.328,-0c9.008,-0 14.802,4.481 14.802,14.62c-0,10.14 -5.794,14.892 -14.439,14.892l-8.691,0Zm6.653,-5.386l1.268,-0c5.024,-0 8.374,-2.444 8.374,-9.506c-0,-7.061 -3.35,-9.233 -8.374,-9.233l-1.268,-0l0,18.739Zm22.089,5.386l0,-29.512l18.469,-0l-0,5.613l-11.814,-0l-0,5.929l10.049,0l-0,5.568l-10.049,-0l-0,6.79l12.267,-0l-0,5.612l-18.922,0Z" style="fill:#709cde;fill-rule:nonzero;"/></g></svg>