<?xml version="1.0" encoding="UTF-8" standalone="no"?>
<svg width="187px" height="34px" viewBox="0 0 187 34" version="1.1" xmlns="http://www.w3.org/2000/svg" xmlns:xlink="http://www.w3.org/1999/xlink" xmlns:sketch="http://www.bohemiancoding.com/sketch/ns">
    <!-- Generator: Sketch 3.3.2 (12043) - http://www.bohemiancoding.com/sketch -->
    <title>logo</title>
    <desc>Created with Sketch.</desc>
    <defs></defs>
    <g id="Page-1" stroke="none" stroke-width="1" fill="none" fill-rule="evenodd" sketch:type="MSPage">
        <g id="blog__article--withimage" sketch:type="MSArtboardGroup" transform="translate(-220.000000, -13.000000)">
            <g id="navbar" sketch:type="MSLayerGroup" transform="translate(0.000000, 0.000000)">
                <g id="logo" transform="translate(220.000000, 13.000000)" sketch:type="MSShapeGroup">
                    <path d="M25.8661974,16.5912891 C28.8051077,19.73754 30.1214012,22.8329013 28.9794173,24.8175966 C27.8399967,26.7972029 24.5178617,27.2055921 20.3434043,26.2348725 C19.0937586,30.3811045 17.0699734,33.0884324 14.7795972,33.0884324 C12.4866575,33.0884324 10.464154,30.3721988 9.21707172,26.2145167 C4.9964735,27.2132255 1.63460617,26.8124698 0.486213824,24.8175966 C-0.655770085,22.8329013 0.661805065,19.7337233 3.60071539,16.5836557 C0.605410798,13.4081432 -0.742924861,10.2733425 0.409312551,8.27338035 C1.56283165,6.26832923 4.95674118,5.87266242 9.20681822,6.89045486 C10.4551822,2.72386703 12.4853758,1.0658141e-14 14.7808788,1.0658141e-14 C17.0751002,1.0658141e-14 19.0988853,2.71496135 20.3459677,6.87137125 C24.5563124,5.87902362 27.913053,6.28105163 29.0601636,8.27338035 C30.208556,10.2746147 28.8589386,13.41196 25.8661974,16.5912891 L25.8661974,16.5912891 Z M1.59743722,8.96293473 C0.715635956,10.4947124 1.93195776,13.0061152 4.50686873,15.6612813 C5.55657111,14.6447611 6.76520279,13.6358743 8.11097507,12.666427 C8.27503112,11.0557704 8.52496026,9.52780954 8.86717093,8.13725061 C5.26947303,7.21996517 2.48308355,7.4247959 1.59743722,8.96293473 L1.59743722,8.96293473 Z M7.96614434,14.4590139 C7.04332906,15.1562018 6.20126012,15.8635675 5.44634595,16.569661 C6.21151362,17.2795713 7.03692062,17.992026 7.9712711,18.6943028 C7.93282046,17.9882092 7.90590501,17.2744823 7.90590501,16.5442162 C7.90590501,15.8368505 7.92897539,15.1422071 7.96614434,14.4590139 L7.96614434,14.4590139 Z M8.10969339,20.4805285 C6.76263942,19.5148979 5.5578528,18.5085556 4.50430536,17.4958522 C1.97553515,20.1268456 0.801509045,22.608987 1.67562018,24.1280422 C2.55613976,25.6560031 5.31305041,25.8684673 8.87870612,24.9702654 C8.53649545,23.5873399 8.27246775,22.0835516 8.10969339,20.4805285 L8.10969339,20.4805285 Z M19.9729965,21.4232588 C19.4013637,21.7960252 18.816914,22.1624305 18.2081123,22.5148412 C17.5903387,22.8723408 16.9725651,23.2005788 16.357355,23.51355 C17.4121841,23.9588342 18.4439428,24.3468676 19.4231524,24.6445718 C19.6525745,23.6471353 19.8307291,22.5593696 19.9729965,21.4232588 L19.9729965,21.4232588 Z M14.7783155,31.7093237 C16.5329462,31.7093237 18.090197,29.4383743 19.0976037,25.9117234 C17.7069723,25.5147844 16.238158,24.962632 14.7411465,24.290889 C13.2710505,24.9537263 11.8329967,25.4867951 10.464154,25.8850064 C11.4689973,29.4205629 13.0236848,31.7093237 14.7783155,31.7093237 L14.7783155,31.7093237 Z M10.1475771,24.6127658 C11.0985895,24.3188783 12.0931793,23.9537452 13.1159663,23.5211834 C12.4981927,23.20694 11.8765741,22.8748852 11.2562372,22.5161134 C10.6807593,22.1815141 10.1270701,21.8380092 9.58491615,21.4855985 C9.72462013,22.6013535 9.92328175,23.6305961 10.1475771,24.6127658 L10.1475771,24.6127658 Z M9.58747952,11.6537235 C10.1527039,11.286046 10.7320268,10.9247297 11.3331384,10.5748635 C11.9265599,10.2300863 12.5199814,9.91329843 13.1121212,9.61050518 C12.0854892,9.1753989 11.0806459,8.79118226 10.1245067,8.49475021 C9.90149306,9.47437544 9.72846519,10.5417853 9.58747952,11.6537235 L9.58747952,11.6537235 Z M14.7783155,1.37910876 C13.018558,1.37910876 11.4536171,3.67168625 10.4474921,7.22378189 C11.8150531,7.62326542 13.2556703,8.1716011 14.7232029,8.83571068 C16.2253411,8.1525175 17.6941554,7.6067263 19.0924769,7.2021538 C18.0876336,3.66914177 16.5342279,1.37910876 14.7783155,1.37910876 L14.7783155,1.37910876 Z M19.4116172,8.47184988 C18.4272809,8.77591537 17.3993672,9.15249857 16.3381296,9.60541621 C16.9341145,9.90948171 17.5326627,10.2288141 18.1299293,10.5761358 C18.7733366,10.9489022 19.3885468,11.3369356 19.9896584,11.7313302 C19.8486728,10.5672301 19.6448844,9.4921868 19.4116172,8.47184988 L19.4116172,8.47184988 Z M20.1665314,13.4959278 C19.3078005,12.9030637 18.4003654,12.3241943 17.4416629,11.7707696 C16.5239744,11.2389731 15.613976,10.7746053 14.7142311,10.3407713 C13.8260214,10.7707886 12.9249948,11.2478788 12.0214048,11.7707696 C11.1075614,12.2987495 10.2347319,12.8509019 9.41316997,13.4132322 C9.33370532,14.4272079 9.27987443,15.4653562 9.27987443,16.5454885 C9.27987443,17.6370709 9.32473351,18.6993917 9.40419815,19.7248176 C10.2078165,20.2731533 11.0562938,20.8087666 11.9432219,21.3227518 C12.8865441,21.868543 13.8221763,22.3456332 14.747555,22.7883729 C15.6613984,22.3481776 16.5893405,21.8609095 17.5185642,21.3227518 C18.4400978,20.789683 19.3154906,20.2349861 20.1447427,19.6662945 C20.2229256,18.6561355 20.2780382,17.621804 20.2780382,16.5454885 C20.2780382,15.4997067 20.2395876,14.480642 20.1665314,13.4959278 L20.1665314,13.4959278 Z M27.7887292,24.1280422 C28.6628404,22.6115314 27.4785608,20.1332068 24.9549173,17.5085746 C23.9282853,18.4932888 22.7529775,19.4703695 21.4482192,20.4105553 C21.2841632,22.0415677 21.030389,23.5898844 20.6817699,24.9957102 C24.2012848,25.867195 26.9171815,25.6420084 27.7887292,24.1280422 L27.7887292,24.1280422 Z M21.59305,18.6179683 C22.4761329,17.9487698 23.2861597,17.2693933 24.0167218,16.5938336 C23.2835963,15.9068237 22.4927949,15.2159971 21.5981767,14.5353484 C21.6302189,15.1956412 21.6532893,15.8635675 21.6532893,16.5442162 C21.6520076,17.2490375 21.6289372,17.9385919 21.59305,18.6179683 L21.59305,18.6179683 Z M27.8656305,8.96293473 C26.9863926,7.4375183 24.2384538,7.22123741 20.6817699,8.11562252 C21.0316707,9.53798746 21.3021068,11.0913932 21.4635995,12.7478504 C22.7696395,13.6956696 23.9372571,14.681656 24.9600441,15.6727314 C27.5400818,13.0124764 28.7499951,10.4972568 27.8656305,8.96293473 L27.8656305,8.96293473 Z" id="Shape-Copy" fill="#53C5FF"></path>
                    <path d="M14.9885123,19.1675762 C13.4799656,19.1675762 12.2572354,17.9424086 12.2572354,16.4297146 C12.2572354,14.9170205 13.4799656,13.6918529 14.9885123,13.6918529 C16.4957772,13.6918529 17.7185075,14.9182928 17.7185075,16.4297146 C17.7185075,17.9436808 16.4957772,19.1675762 14.9885123,19.1675762 L14.9885123,19.1675762 Z" id="Path" fill="#FFFFFF"></path>
                    <path d="M50.4402485,25.6069097 L45.5392381,18.1007556 L40.2979879,18.1007556 L40.2979879,25.6069097 L38.8811881,25.6069097 L38.8811881,7.5240778 L45.3405485,7.5240778 C49.1935686,7.5240778 51.3752585,9.40867291 51.3752585,12.7266947 C51.3752585,16.4675258 48.4845194,17.6495871 47.0118788,17.8751714 L52.0830091,25.6069097 L50.4402485,25.6069097 L50.4402485,25.6069097 Z M40.2966893,8.84664592 L40.2966893,16.7756094 L45.2548392,16.7756094 C48.8806,16.7756094 49.9571601,14.9490216 49.9571601,12.8104831 C49.9571601,10.7853812 49.0221501,8.84535686 45.2548392,8.84535686 L40.2966893,8.84535686 L40.2966893,8.84664592 Z M56.895713,15.8204213 L65.6224725,15.8204213 L65.6224725,17.1713486 L56.895713,17.1713486 L56.895713,24.2869197 L66.7834432,24.2869197 L66.7834432,25.6069097 L55.507483,25.6069097 L55.507483,7.5240778 L66.7834432,7.5240778 L66.7834432,8.81828676 L56.895713,8.81828676 L56.895713,15.8204213 L56.895713,15.8204213 Z M85.8758268,25.6069097 L84.3746164,25.6069097 C83.5811565,23.7236037 82.8448362,21.7822902 82.0513764,19.8719141 L73.4947368,19.8719141 L71.2000665,25.6069097 L69.6689878,25.6069097 C72.1623476,19.5883225 74.5998666,13.5426651 77.0919278,7.5240778 L78.4801579,7.5240778 L85.8758268,25.6069097 L85.8758268,25.6069097 Z M74.0323675,18.5467678 L81.5410168,18.5467678 L77.7724073,9.21144784 L74.0323675,18.5467678 L74.0323675,18.5467678 Z M96.3557299,24.538285 C98.1686103,24.538285 99.9542196,24.2005532 101.65412,23.5547378 L101.65412,24.8747278 C99.9269484,25.492184 98.0556299,25.858275 96.2154784,25.858275 C91.200189,25.858275 87.7718192,23.2170059 87.7718192,16.5796733 C87.7718192,9.9410517 91.200189,7.24048619 96.1869087,7.24048619 C98.0854983,7.24048619 99.9269484,7.60657717 101.65412,8.28075176 L101.65412,9.60331988 C99.9542196,8.9562154 98.1686103,8.56176526 96.3557299,8.56176526 C92.0209199,8.56176526 89.1587506,10.6719446 89.1587506,16.5783843 C89.1587506,22.484824 92.048191,24.538285 96.3557299,24.538285 L96.3557299,24.538285 Z M118.906352,7.5240778 L118.906352,8.87371602 L112.304143,8.87371602 L112.304143,25.6056207 L110.887343,25.6056207 L110.887343,8.87371602 L104.256564,8.87371602 L104.256564,7.5240778 L118.906352,7.5240778 L118.906352,7.5240778 Z M133.058766,7.50860916 L124.507321,7.50860916 L124.507321,11.4054156 L128.738241,11.4054156 L128.738241,19.7842585 C128.738241,20.9985462 127.504547,21.7255719 126.31241,21.7255719 C125.231954,21.7255719 123.882682,21.1828807 123.526859,19.6669547 L119.401128,20.5164404 C120.014079,24.4931682 123.391802,25.9098371 126.126706,25.9098371 C129.486249,25.9098371 133.058766,23.7635643 133.058766,19.7842585 L133.058766,7.50860916 L133.058766,7.50860916 Z M143.581524,25.9098371 C148.100739,25.9098371 150.660328,23.1409518 150.774607,20.5344872 C150.974595,16.1942466 147.877375,15.0302319 144.498353,14.4179319 C142.797154,14.0492628 141.947854,13.4369628 141.892013,12.5449382 C141.93227,11.4273295 142.811439,10.7157724 144.130842,10.7157724 C145.286618,10.7157724 146.538493,11.2649089 147.437141,12.1582224 L150.256456,10.0042153 C148.648758,8.12477638 146.698224,7.2456424 144.136037,7.2456424 C139.627211,7.2456424 137.574085,10.0274182 137.574085,12.613258 C137.574085,16.1761998 140.460928,17.8957962 143.160769,18.3198946 C144.800933,18.5429007 146.538493,19.1912942 146.482652,20.3398402 C146.417721,21.3066298 145.515176,21.9047502 144.129544,21.9047502 C142.664695,21.9047502 141.146602,21.2421771 140.206398,20.2057787 L137.474091,22.7516579 C139.094775,24.7600021 141.314125,25.9098371 143.581524,25.9098371 L143.581524,25.9098371 Z M165.511403,11.7418584 C166.897036,11.7418584 168.232022,11.9674426 169.420264,12.3889629 L169.420264,6.70810741 L170.809793,6.70810741 L170.809793,21.5863542 C170.809793,22.6279088 170.328003,25.8312049 165.312713,25.8312049 C162.989473,25.8312049 159.222162,24.9030869 159.222162,18.6602045 C159.222162,12.9522789 162.563524,11.7418584 165.511403,11.7418584 L165.511403,11.7418584 Z M165.312713,24.538285 C168.372274,24.538285 169.420264,23.0739211 169.420264,21.6417835 L169.420264,13.7953194 C168.257995,13.3170808 166.898334,13.0360673 165.511403,13.0360673 C162.507683,13.0360673 160.637664,14.469494 160.637664,18.6602045 C160.637664,23.8911805 163.356984,24.538285 165.312713,24.538285 L165.312713,24.538285 Z M186.472508,18.8574296 C186.472508,19.4748858 186.445237,19.5599633 186.445237,19.5870334 L175.878326,19.5870334 C175.905597,20.0678501 175.991306,20.4610112 176.131557,20.7974539 C176.527638,23.4413011 178.397658,24.4519185 181.061138,24.4519185 C182.732468,24.4519185 184.406395,24.1141867 185.537498,23.4967304 L185.537498,24.930157 C184.264845,25.5231213 182.507806,25.8028458 180.948157,25.8028458 C177.834055,25.8028458 174.432956,24.4828557 174.432956,19.0546546 C174.432956,16.887757 175.10954,11.7418584 180.552077,11.7418584 C186.416667,11.7418584 186.472508,17.9563817 186.472508,18.8574296 L186.472508,18.8574296 Z M175.878326,18.3521209 L185.028437,18.3521209 C185.028437,17.6779463 184.859616,13.0644265 180.466367,13.0644265 C177.493815,13.0644265 176.018577,15.0328101 175.878326,18.3521209 L175.878326,18.3521209 Z M155.858724,24.4519185 C155.858724,23.7841892 155.313301,23.242787 154.640614,23.242787 C153.967926,23.242787 153.422503,23.7841892 153.422503,24.4519185 C153.422503,25.1196478 153.967926,25.66105 154.640614,25.66105 C155.313301,25.66105 155.858724,25.1196478 155.858724,24.4519185 L155.858724,24.4519185 Z" id="Shape" fill="#FFFFFF"></path>
                </g>
            </g>
        </g>
    </g>
</svg>
