<?xml version="1.0" encoding="UTF-8" standalone="no"?>
<svg width="501px" height="147px" viewBox="0 0 501 147" version="1.1" xmlns="http://www.w3.org/2000/svg" xmlns:xlink="http://www.w3.org/1999/xlink" xmlns:sketch="http://www.bohemiancoding.com/sketch/ns">
    <!-- Generator: Sketch 3.2.2 (9983) - http://www.bohemiancoding.com/sketch -->
    <title>logo</title>
    <desc>Created with Sketch.</desc>
    <defs></defs>
    <g id="Symetics" stroke="none" stroke-width="1" fill="none" fill-rule="evenodd" sketch:type="MSPage">
        <g id="logo" sketch:type="MSArtboardGroup">
            <g id="Clipped" sketch:type="MSLayerGroup" transform="translate(36.000000, 0.000000)">
                <g id="Logo" sketch:type="MSShapeGroup">
                    <path d="M85.51749,0.96599 L559.16504,0.96599 L559.16504,138.59061 L85.51749,138.59061 L85.51749,0.96599 Z" id="Shape" fill-opacity="0" fill="#000000"></path>
                    <path d="M111.31436,99.35956 C109.31436,99.35956 107.496652,99.1824767 105.861235,98.82831 C104.236235,98.4741433 102.850818,97.9428933 101.704985,97.23456 C100.559152,96.51581 99.673735,95.6303933 99.048735,94.57831 C98.423735,93.51581 98.111235,92.281435 98.111235,90.875185 C98.111235,89.812685 98.2883183,88.92206 98.642485,88.20331 C98.9966517,87.48456 99.423735,86.9168517 99.923735,86.500185 C100.434152,86.0835183 100.981027,85.7918517 101.56436,85.625185 C102.15811,85.4585183 102.68936,85.375185 103.15811,85.375185 C103.15811,86.781435 103.298735,88.0991433 103.579985,89.32831 C103.871652,90.54706 104.356027,91.6199767 105.03311,92.54706 C105.710193,93.4637267 106.600818,94.1928933 107.704985,94.73456 C108.809152,95.26581 110.168527,95.531435 111.78311,95.531435 C113.22061,95.531435 114.486235,95.3543517 115.579985,95.000185 C116.673735,94.6460183 117.590402,94.1512267 118.329985,93.51581 C119.069568,92.8803933 119.632068,92.1147683 120.017485,91.218935 C120.413318,90.312685 120.611235,89.32831 120.611235,88.26581 C120.611235,87.2762267 120.460193,86.42206 120.15811,85.70331 C119.866443,84.98456 119.34561,84.312685 118.59561,83.687685 C117.856027,83.062685 116.84561,82.4272683 115.56436,81.781435 C114.293527,81.125185 112.694568,80.3803933 110.767485,79.54706 C108.715402,78.64081 106.923735,77.76581 105.392485,76.92206 C103.871652,76.0678933 102.616443,75.1460183 101.62686,74.156435 C100.637277,73.1668517 99.892485,72.0418517 99.392485,70.781435 C98.9029017,69.5210183 98.65811,68.01581 98.65811,66.26581 C98.65811,64.4428933 99.017485,62.82831 99.736235,61.42206 C100.454985,60.01581 101.475818,58.8387267 102.798735,57.89081 C104.132068,56.9428933 105.72061,56.2241433 107.56436,55.73456 C109.418527,55.23456 111.475818,54.98456 113.736235,54.98456 C115.642485,54.98456 117.324777,55.1824767 118.78311,55.57831 C120.241443,55.9637267 121.465402,56.4897683 122.454985,57.156435 C123.444568,57.812685 124.184152,58.593935 124.673735,59.500185 C125.173735,60.3960183 125.423735,61.3387267 125.423735,62.32831 C125.423735,63.7866433 124.918527,64.95331 123.90811,65.82831 C122.90811,66.6928933 121.486235,67.125185 119.642485,67.125185 C119.642485,64.4481017 119.085193,62.3699767 117.97061,60.89081 C116.866443,59.4012267 115.132068,58.656435 112.767485,58.656435 C111.413318,58.656435 110.25186,58.812685 109.28311,59.125185 C108.324777,59.437685 107.538318,59.8803933 106.923735,60.45331 C106.309152,61.0262267 105.856027,61.70331 105.56436,62.48456 C105.28311,63.26581 105.142485,64.125185 105.142485,65.062685 C105.142485,66.0731017 105.324777,66.95331 105.68936,67.70331 C106.053943,68.4428933 106.632068,69.125185 107.423735,69.750185 C108.225818,70.375185 109.257068,70.9793517 110.517485,71.562685 C111.777902,72.1460183 113.293527,72.8022683 115.06436,73.531435 C117.178943,74.4168517 118.991443,75.2918517 120.50186,76.156435 C122.012277,77.0106017 123.25186,77.9481017 124.22061,78.968935 C125.199777,79.9793517 125.923735,81.125185 126.392485,82.406435 C126.861235,83.6772683 127.09561,85.1460183 127.09561,86.812685 C127.09561,88.8960183 126.715402,90.718935 125.954985,92.281435 C125.204985,93.843935 124.137277,95.156435 122.75186,96.218935 C121.37686,97.2710183 119.72061,98.0574767 117.78311,98.57831 C115.84561,99.0991433 113.68936,99.35956 111.31436,99.35956 L111.31436,99.35956 Z M175.81436,55.687685 L175.81436,59.04706 L175.579985,59.04706 C174.798735,59.04706 174.12686,59.1303933 173.56436,59.29706 C173.00186,59.4637267 172.491443,59.781435 172.03311,60.250185 C171.585193,60.718935 171.163318,61.35956 170.767485,62.17206 C170.382068,62.9741433 169.954985,64.01581 169.486235,65.29706 L157.329985,98.89081 C156.392485,101.474143 155.507068,103.739768 154.673735,105.687685 C153.840402,107.646018 152.965402,109.317893 152.048735,110.70331 C151.142485,112.099143 150.147693,113.250185 149.06436,114.156435 C147.991443,115.073102 146.762277,115.802268 145.37686,116.343935 C144.00186,116.896018 142.413318,117.276227 140.611235,117.48456 C138.819568,117.692893 136.736235,117.79706 134.361235,117.79706 L133.65811,117.79706 L133.65811,114.01581 C136.366443,114.01581 138.694568,113.60956 140.642485,112.79706 C142.600818,111.994977 144.288318,110.89081 145.704985,109.48456 C147.132068,108.07831 148.319568,106.416852 149.267485,104.500185 C150.215402,102.583518 151.017485,100.505393 151.673735,98.26581 L136.861235,63.29706 C136.496652,62.4637267 136.142485,61.781435 135.798735,61.250185 C135.465402,60.718935 135.085193,60.2866433 134.65811,59.95331 C134.231027,59.60956 133.736235,59.375185 133.173735,59.250185 C132.611235,59.1147683 131.93936,59.04706 131.15811,59.04706 L130.923735,59.04706 L130.923735,55.687685 L150.142485,55.687685 L150.142485,59.04706 L149.90811,59.04706 C148.293527,59.04706 147.090402,59.35956 146.298735,59.98456 C145.507068,60.60956 145.111235,61.5835183 145.111235,62.906435 C145.111235,63.3543517 145.152902,63.8074767 145.236235,64.26581 C145.329985,64.7137267 145.496652,65.2397683 145.736235,65.843935 L151.59561,80.093935 C151.960193,81.0106017 152.340402,82.0106017 152.736235,83.093935 C153.142485,84.1668517 153.522693,85.23456 153.87686,86.29706 C154.231027,87.3491433 154.548735,88.343935 154.829985,89.281435 C155.121652,90.218935 155.319568,91.0262267 155.423735,91.70331 L155.65811,91.70331 C155.93936,90.5262267 156.335193,89.0991433 156.84561,87.42206 C157.356027,85.7449767 157.949777,83.9428933 158.62686,82.01581 L163.97061,66.42206 C164.210193,65.7762267 164.387277,65.156435 164.50186,64.562685 C164.616443,63.9585183 164.673735,63.4324767 164.673735,62.98456 C164.673735,61.60956 164.236235,60.60956 163.361235,59.98456 C162.496652,59.35956 161.178943,59.04706 159.40811,59.04706 L159.173735,59.04706 L159.173735,55.687685 L175.81436,55.687685 L175.81436,55.687685 Z M199.556548,95.218935 L199.556548,98.57831 L178.040923,98.57831 L178.040923,95.218935 L179.087798,95.218935 C180.004465,95.218935 180.837798,95.156435 181.587798,95.031435 C182.348215,94.8960183 182.999256,94.625185 183.540923,94.218935 C184.093006,93.812685 184.514881,93.23456 184.806548,92.48456 C185.108631,91.7241433 185.259673,90.718935 185.259673,89.468935 L185.259673,64.51581 C185.259673,63.3387267 185.103423,62.3960183 184.790923,61.687685 C184.478423,60.968935 184.046131,60.4168517 183.494048,60.031435 C182.952381,59.6356017 182.30134,59.375185 181.540923,59.250185 C180.790923,59.1147683 179.973215,59.04706 179.087798,59.04706 L178.853423,59.04706 L178.853423,55.687685 L191.400298,55.687685 L192.447173,62.17206 L192.837798,62.17206 C193.650298,60.6824767 194.499256,59.4637267 195.384673,58.51581 C196.27009,57.5678933 197.212798,56.82831 198.212798,56.29706 C199.212798,55.7553933 200.264881,55.39081 201.369048,55.20331 C202.483631,55.0053933 203.665923,54.906435 204.915923,54.906435 C206.218006,54.906435 207.452381,55.0366433 208.619048,55.29706 C209.796131,55.5574767 210.884673,55.9741433 211.884673,56.54706 C212.884673,57.1199767 213.780506,57.8699767 214.572173,58.79706 C215.374256,59.7137267 216.02009,60.8387267 216.509673,62.17206 L217.181548,62.17206 C217.983631,60.6824767 218.853423,59.4637267 219.790923,58.51581 C220.728423,57.5678933 221.723215,56.82831 222.775298,56.29706 C223.837798,55.7553933 224.947173,55.39081 226.103423,55.20331 C227.259673,55.0053933 228.462798,54.906435 229.712798,54.906435 C231.744048,54.906435 233.566965,55.2137267 235.181548,55.82831 C236.796131,56.4324767 238.160715,57.3699767 239.275298,58.64081 C240.400298,59.9012267 241.259673,61.5210183 241.853423,63.500185 C242.45759,65.4793517 242.759673,67.8335183 242.759673,70.562685 L242.759673,89.468935 C242.759673,90.718935 242.915923,91.7241433 243.228423,92.48456 C243.540923,93.23456 243.968006,93.812685 244.509673,94.218935 C245.061756,94.625185 245.712798,94.8960183 246.462798,95.031435 C247.223215,95.156435 248.046131,95.218935 248.931548,95.218935 L249.165923,95.218935 L249.165923,98.57831 L235.259673,98.57831 L235.259673,70.95331 C235.259673,69.2137267 235.108631,67.6668517 234.806548,66.312685 C234.514881,64.9585183 234.035715,63.812685 233.369048,62.875185 C232.702381,61.937685 231.83259,61.2293517 230.759673,60.750185 C229.697173,60.2606017 228.400298,60.01581 226.869048,60.01581 C225.202381,60.01581 223.80134,60.3387267 222.665923,60.98456 C221.530506,61.6199767 220.608631,62.48456 219.900298,63.57831 C219.202381,64.67206 218.702381,65.937685 218.400298,67.375185 C218.108631,68.8022683 217.962798,70.3231017 217.962798,71.937685 L217.962798,89.468935 C217.962798,90.718935 218.119048,91.7241433 218.431548,92.48456 C218.744048,93.23456 219.171131,93.812685 219.712798,94.218935 C220.264881,94.625185 220.915923,94.8960183 221.665923,95.031435 C222.42634,95.156435 223.249256,95.218935 224.134673,95.218935 L224.369048,95.218935 L224.369048,98.57831 L210.462798,98.57831 L210.462798,70.95331 C210.462798,69.2137267 210.311756,67.6668517 210.009673,66.312685 C209.70759,64.9585183 209.223215,63.812685 208.556548,62.875185 C207.900298,61.937685 207.035715,61.2293517 205.962798,60.750185 C204.900298,60.2606017 203.598215,60.01581 202.056548,60.01581 C200.316965,60.01581 198.853423,60.3699767 197.665923,61.07831 C196.478423,61.7762267 195.52009,62.7241433 194.790923,63.92206 C194.061756,65.1199767 193.540923,66.500185 193.228423,68.062685 C192.915923,69.625185 192.759673,71.26581 192.759673,72.98456 L192.759673,89.85956 C192.759673,91.0366433 192.936756,91.98456 193.290923,92.70331 C193.64509,93.4116433 194.119048,93.9481017 194.712798,94.312685 C195.316965,94.6772683 196.014881,94.92206 196.806548,95.04706 C197.598215,95.1616433 198.436756,95.218935 199.322173,95.218935 L199.556548,95.218935 L199.556548,95.218935 Z M273.392488,59.20331 C270.423738,59.20331 268.13728,60.406435 266.533113,62.812685 C264.928946,65.218935 263.986238,68.7397683 263.704988,73.375185 L282.095613,73.375185 C282.095613,71.2710183 281.939363,69.3491433 281.626863,67.60956 C281.314363,65.85956 280.819571,64.35956 280.142488,63.10956 C279.465405,61.85956 278.57478,60.8960183 277.470613,60.218935 C276.366446,59.5418517 275.007071,59.20331 273.392488,59.20331 L273.392488,59.20331 Z M274.361238,99.35956 C271.475821,99.35956 268.876863,98.8699767 266.564363,97.89081 C264.26228,96.9116433 262.314363,95.48456 260.720613,93.60956 C259.13728,91.73456 257.923738,89.437685 257.079988,86.718935 C256.236238,84.000185 255.814363,80.906435 255.814363,77.437685 C255.814363,69.968935 257.350821,64.3491433 260.423738,60.57831 C263.496655,56.79706 267.871655,54.906435 273.548738,54.906435 C276.121655,54.906435 278.434155,55.312685 280.486238,56.125185 C282.548738,56.9272683 284.29353,58.1303933 285.720613,59.73456 C287.158113,61.32831 288.26228,63.3178933 289.033113,65.70331 C289.803946,68.0887267 290.189363,70.8543517 290.189363,74.000185 L290.189363,77.67206 L263.548738,77.67206 C263.600821,80.5887267 263.892488,83.0991433 264.423738,85.20331 C264.954988,87.29706 265.720613,89.0210183 266.720613,90.375185 C267.73103,91.7293517 268.965405,92.7241433 270.423738,93.35956 C271.882071,93.9949767 273.559155,94.312685 275.454988,94.312685 C276.840405,94.312685 278.121655,94.156435 279.298738,93.843935 C280.486238,93.531435 281.559155,93.1147683 282.517488,92.593935 C283.486238,92.0731017 284.340405,91.48456 285.079988,90.82831 C285.829988,90.1616433 286.439363,89.4637267 286.908113,88.73456 C287.272696,88.89081 287.616446,89.218935 287.939363,89.718935 C288.26228,90.2085183 288.423738,90.7918517 288.423738,91.468935 C288.423738,92.2710183 288.13728,93.1356017 287.564363,94.062685 C286.991446,94.9897683 286.116446,95.843935 284.939363,96.625185 C283.772696,97.406435 282.309155,98.0574767 280.548738,98.57831 C278.798738,99.0991433 276.736238,99.35956 274.361238,99.35956 L274.361238,99.35956 Z M315.423738,95.14081 C316.382071,95.14081 317.26228,95.0887267 318.064363,94.98456 C318.876863,94.8803933 319.69978,94.750185 320.533113,94.593935 L320.533113,98.10956 C320.19978,98.26581 319.757071,98.42206 319.204988,98.57831 C318.663321,98.73456 318.069571,98.8699767 317.423738,98.98456 C316.788321,99.10956 316.116446,99.20331 315.408113,99.26581 C314.710196,99.32831 314.048738,99.35956 313.423738,99.35956 C311.392488,99.35956 309.647696,99.14081 308.189363,98.70331 C306.73103,98.2762267 305.533113,97.5835183 304.595613,96.625185 C303.658113,95.656435 302.960196,94.3803933 302.501863,92.79706 C302.053946,91.20331 301.829988,89.2606017 301.829988,86.968935 L301.829988,60.250185 L295.736238,60.250185 L295.736238,57.04706 C296.694571,57.04706 297.751863,56.8543517 298.908113,56.468935 C300.07478,56.0731017 301.100821,55.42206 301.986238,54.51581 C302.892488,53.5262267 303.626863,52.3491433 304.189363,50.98456 C304.751863,49.60956 305.241446,47.8960183 305.658113,45.843935 L309.329988,45.843935 L309.329988,55.687685 L319.798738,55.687685 L319.798738,60.250185 L309.329988,60.250185 L309.329988,87.20331 C309.329988,89.9428933 309.882071,91.95331 310.986238,93.23456 C312.090405,94.5053933 313.569571,95.14081 315.423738,95.14081 L315.423738,95.14081 Z M325.259676,95.218935 C326.145092,95.218935 326.983634,95.1616433 327.775301,95.04706 C328.577384,94.92206 329.275301,94.6772683 329.869051,94.312685 C330.473217,93.9481017 330.947176,93.4116433 331.290926,92.70331 C331.645092,91.98456 331.822176,91.0366433 331.822176,89.85956 L331.822176,64.51581 C331.822176,63.3387267 331.645092,62.3960183 331.290926,61.687685 C330.947176,60.968935 330.473217,60.4168517 329.869051,60.031435 C329.275301,59.6356017 328.577384,59.375185 327.775301,59.250185 C326.983634,59.1147683 326.145092,59.04706 325.259676,59.04706 L325.025301,59.04706 L325.025301,55.687685 L339.322176,55.687685 L339.322176,89.468935 C339.322176,90.718935 339.499259,91.7241433 339.853426,92.48456 C340.207592,93.23456 340.676342,93.812685 341.259676,94.218935 C341.843009,94.625185 342.535717,94.8960183 343.337801,95.031435 C344.150301,95.156435 344.999259,95.218935 345.884676,95.218935 L346.947176,95.218935 L346.947176,98.57831 L324.212801,98.57831 L324.212801,95.218935 L325.259676,95.218935 L325.259676,95.218935 Z M330.697176,42.718935 C330.697176,41.781435 330.811759,41.000185 331.040926,40.375185 C331.280509,39.750185 331.608634,39.2449767 332.025301,38.85956 C332.441967,38.4637267 332.921134,38.187685 333.462801,38.031435 C334.014884,37.875185 334.613842,37.79706 335.259676,37.79706 C335.884676,37.79706 336.468009,37.875185 337.009676,38.031435 C337.561759,38.187685 338.040926,38.4637267 338.447176,38.85956 C338.853426,39.2449767 339.176342,39.750185 339.415926,40.375185 C339.665926,41.000185 339.790926,41.781435 339.790926,42.718935 C339.790926,43.656435 339.665926,44.437685 339.415926,45.062685 C339.176342,45.687685 338.853426,46.1981017 338.447176,46.593935 C338.040926,46.9793517 337.561759,47.2553933 337.009676,47.42206 C336.468009,47.5887267 335.884676,47.67206 335.259676,47.67206 C334.613842,47.67206 334.014884,47.5887267 333.462801,47.42206 C332.921134,47.2553933 332.441967,46.9793517 332.025301,46.593935 C331.608634,46.1981017 331.280509,45.687685 331.040926,45.062685 C330.811759,44.437685 330.697176,43.656435 330.697176,42.718935 L330.697176,42.718935 Z M370.611237,99.35956 C367.954987,99.35956 365.507071,98.9481017 363.267487,98.125185 C361.027904,97.3022683 359.100821,96.0053933 357.486237,94.23456 C355.871654,92.4637267 354.616446,90.1928933 353.720612,87.42206 C352.824779,84.6512267 352.376862,81.29706 352.376862,77.35956 C352.376862,73.0887267 352.824779,69.51581 353.720612,66.64081 C354.616446,63.76581 355.866446,61.4585183 357.470612,59.718935 C359.074779,57.968935 360.960196,56.7293517 363.126862,56.000185 C365.303946,55.2710183 367.658112,54.906435 370.189362,54.906435 C371.856029,54.906435 373.512279,55.0678933 375.158112,55.39081 C376.814362,55.7137267 378.303946,56.2137267 379.626862,56.89081 C380.960196,57.5678933 382.043529,58.42206 382.876862,59.45331 C383.710196,60.48456 384.126862,61.687685 384.126862,63.062685 C384.126862,64.9168517 383.527904,66.2241433 382.329987,66.98456 C381.132071,67.73456 379.350821,68.10956 376.986237,68.10956 C376.986237,66.85956 376.882071,65.6772683 376.673737,64.562685 C376.465404,63.437685 376.106029,62.45331 375.595612,61.60956 C375.085196,60.7553933 374.392487,60.0887267 373.517487,59.60956 C372.652904,59.1303933 371.543529,58.89081 370.189362,58.89081 C368.647696,58.89081 367.257071,59.1772683 366.017487,59.750185 C364.788321,60.3231017 363.731029,61.312685 362.845612,62.718935 C361.960196,64.125185 361.283112,66.01581 360.814362,68.39081 C360.345612,70.7553933 360.111237,73.718935 360.111237,77.281435 C360.111237,82.9585183 361.053946,87.1928933 362.939362,89.98456 C364.824779,92.76581 367.918529,94.156435 372.220612,94.156435 C374.689362,94.156435 376.845612,93.6356017 378.689362,92.593935 C380.543529,91.5522683 381.928946,90.2137267 382.845612,88.57831 C383.231029,88.89081 383.553946,89.3074767 383.814362,89.82831 C384.074779,90.3491433 384.204987,90.9741433 384.204987,91.70331 C384.204987,92.60956 383.918529,93.5210183 383.345612,94.437685 C382.772696,95.343935 381.918529,96.1616433 380.783112,96.89081 C379.658112,97.6199767 378.246654,98.2137267 376.548737,98.67206 C374.861237,99.1303933 372.882071,99.35956 370.611237,99.35956 L370.611237,99.35956 Z M404.126862,99.35956 C402.126862,99.35956 400.309154,99.1824767 398.673737,98.82831 C397.048737,98.4741433 395.663321,97.9428933 394.517487,97.23456 C393.371654,96.51581 392.486237,95.6303933 391.861237,94.57831 C391.236237,93.51581 390.923737,92.281435 390.923737,90.875185 C390.923737,89.812685 391.100821,88.92206 391.454987,88.20331 C391.809154,87.48456 392.236237,86.9168517 392.736237,86.500185 C393.246654,86.0835183 393.793529,85.7918517 394.376862,85.625185 C394.970612,85.4585183 395.501862,85.375185 395.970612,85.375185 C395.970612,86.781435 396.111237,88.0991433 396.392487,89.32831 C396.684154,90.54706 397.168529,91.6199767 397.845612,92.54706 C398.522696,93.4637267 399.413321,94.1928933 400.517487,94.73456 C401.621654,95.26581 402.981029,95.531435 404.595612,95.531435 C406.033112,95.531435 407.298737,95.3543517 408.392487,95.000185 C409.486237,94.6460183 410.402904,94.1512267 411.142487,93.51581 C411.882071,92.8803933 412.444571,92.1147683 412.829987,91.218935 C413.225821,90.312685 413.423737,89.32831 413.423737,88.26581 C413.423737,87.2762267 413.272696,86.42206 412.970612,85.70331 C412.678946,84.98456 412.158112,84.312685 411.408112,83.687685 C410.668529,83.062685 409.658112,82.4272683 408.376862,81.781435 C407.106029,81.125185 405.507071,80.3803933 403.579987,79.54706 C401.527904,78.64081 399.736237,77.76581 398.204987,76.92206 C396.684154,76.0678933 395.428946,75.1460183 394.439362,74.156435 C393.449779,73.1668517 392.704987,72.0418517 392.204987,70.781435 C391.715404,69.5210183 391.470612,68.01581 391.470612,66.26581 C391.470612,64.4428933 391.829987,62.82831 392.548737,61.42206 C393.267487,60.01581 394.288321,58.8387267 395.611237,57.89081 C396.944571,56.9428933 398.533112,56.2241433 400.376862,55.73456 C402.231029,55.23456 404.288321,54.98456 406.548737,54.98456 C408.454987,54.98456 410.137279,55.1824767 411.595612,55.57831 C413.053946,55.9637267 414.277904,56.4897683 415.267487,57.156435 C416.257071,57.812685 416.996654,58.593935 417.486237,59.500185 C417.986237,60.3960183 418.236237,61.3387267 418.236237,62.32831 C418.236237,63.7866433 417.731029,64.95331 416.720612,65.82831 C415.720612,66.6928933 414.298737,67.125185 412.454987,67.125185 C412.454987,64.4481017 411.897696,62.3699767 410.783112,60.89081 C409.678946,59.4012267 407.944571,58.656435 405.579987,58.656435 C404.225821,58.656435 403.064362,58.812685 402.095612,59.125185 C401.137279,59.437685 400.350821,59.8803933 399.736237,60.45331 C399.121654,61.0262267 398.668529,61.70331 398.376862,62.48456 C398.095612,63.26581 397.954987,64.125185 397.954987,65.062685 C397.954987,66.0731017 398.137279,66.95331 398.501862,67.70331 C398.866446,68.4428933 399.444571,69.125185 400.236237,69.750185 C401.038321,70.375185 402.069571,70.9793517 403.329987,71.562685 C404.590404,72.1460183 406.106029,72.8022683 407.876862,73.531435 C409.991446,74.4168517 411.803946,75.2918517 413.314362,76.156435 C414.824779,77.0106017 416.064362,77.9481017 417.033112,78.968935 C418.012279,79.9793517 418.736237,81.125185 419.204987,82.406435 C419.673737,83.6772683 419.908112,85.1460183 419.908112,86.812685 C419.908112,88.8960183 419.527904,90.718935 418.767487,92.281435 C418.017487,93.843935 416.949779,95.156435 415.564362,96.218935 C414.189362,97.2710183 412.533112,98.0574767 410.595612,98.57831 C408.658112,99.0991433 406.501862,99.35956 404.126862,99.35956 L404.126862,99.35956 Z" id="Shape" fill="#00CEFF"></path>
                    <path d="M0.52355,66.98022 L32.791788,38.58874 L43.680895,50.903132 L11.412657,79.294612 L0.52355,66.98022 Z" id="Shape" fill="#00CEFF"></path>
                    <path d="M7.942913,93.50134 L61.248223,46.52426 L72.137322,58.838622 L18.832017,105.815702 L7.942913,93.50134 Z" id="Shape" fill="#00CEFF"></path>
                    <path d="M33.584366,104.65268 L65.852606,76.2612 L76.741713,88.575592 L44.473473,116.967072 L33.584366,104.65268 Z" id="Shape" fill="#00CEFF"></path>
                </g>
            </g>
        </g>
    </g>
</svg>