<?xml version="1.0" encoding="UTF-8"?>
<svg width="364px" height="79px" viewBox="0 0 364 79" version="1.1" xmlns="http://www.w3.org/2000/svg" xmlns:xlink="http://www.w3.org/1999/xlink">
    <!-- Generator: Sketch 45.1 (43504) - http://www.bohemiancoding.com/sketch -->
    <title>symetics-logo</title>
    <desc>Created with Sketch.</desc>
    <defs></defs>
    <g id="Page-1" stroke="none" stroke-width="1" fill="none" fill-rule="evenodd">
        <g id="Custom-Preset" fill-rule="nonzero" fill="#00CEFF">
            <g id="symetics-logo">
                <path d="M108.072399,57.9925079 C106.419714,57.9925079 104.917664,57.8612639 103.56625,57.5987757 C102.223443,57.3362875 101.078614,56.9425553 100.131764,56.417579 C99.1849134,55.8848825 98.4532557,55.2286621 97.9367916,54.4489179 C97.4203275,53.6614534 97.1620955,52.746605 97.1620955,51.7043726 C97.1620955,50.9169081 97.308427,50.2568276 97.60109,49.7241311 C97.893753,49.1914345 98.24667,48.7706815 98.6598413,48.4618719 C99.0816206,48.1530622 99.5335266,47.9368956 100.015559,47.8133717 C100.5062,47.6898478 100.945195,47.628086 101.332543,47.628086 C101.332543,48.6703183 101.448747,49.6469286 101.681156,50.557917 C101.922173,51.461185 102.322433,52.2563698 102.881935,52.9434711 C103.441437,53.6228522 104.177399,54.163269 105.089819,54.5647215 C106.002239,54.9584537 107.125548,55.1553198 108.459747,55.1553198 C109.647614,55.1553198 110.693454,55.0240757 111.597266,54.7615876 C112.501078,54.4990994 113.258559,54.132388 113.869708,53.6614534 C114.480857,53.1905187 114.945674,52.6230811 115.264161,51.9591405 C115.591255,51.2874796 115.754802,50.557917 115.754802,49.7704525 C115.754802,49.0370297 115.629989,48.4039701 115.380365,47.8712735 C115.139349,47.338577 114.708962,46.8406215 114.089205,46.3774071 C113.478056,45.9141927 112.643106,45.4432581 111.584354,44.9646032 C110.534211,44.4782281 109.212923,43.9262309 107.620493,43.3086118 C105.924769,42.6369509 104.444239,41.9884507 103.178902,41.3631113 C101.922173,40.7300516 100.88494,40.0468104 100.067206,39.3133876 C99.2494714,38.5799649 98.6340181,37.746179 98.2208468,36.8120299 C97.8162833,35.8778809 97.6140016,34.7623063 97.6140016,33.465306 C97.6140016,32.114264 97.9109684,30.9176268 98.5049021,29.8753944 C99.0988357,28.8331621 99.9423934,27.960775 101.035576,27.2582331 C102.137366,26.5556913 103.450045,26.0229947 104.973614,25.6601435 C106.505791,25.289572 108.205818,25.1042862 110.073697,25.1042862 C111.648912,25.1042862 113.039062,25.2509708 114.244144,25.5443399 C115.449227,25.8299888 116.460636,26.2198608 117.278371,26.7139562 C118.096105,27.2003313 118.707255,27.7793493 119.111818,28.4510102 C119.524989,29.1149508 119.731575,29.8136325 119.731575,30.5470553 C119.731575,31.6278889 119.3141,32.4925557 118.47915,33.1410559 C117.652807,33.7818358 116.477851,34.1022257 114.954282,34.1022257 C114.954282,32.1181241 114.493768,30.5779363 113.572741,29.4816622 C112.660321,28.3776679 111.227133,27.8256708 109.273178,27.8256708 C108.154172,27.8256708 107.19441,27.9414744 106.393891,28.1730815 C105.601979,28.4046887 104.952095,28.7327989 104.444239,29.1574121 C103.936383,29.5820253 103.561946,30.0838409 103.320929,30.6628589 C103.088521,31.2418769 102.972316,31.8787967 102.972316,32.5736183 C102.972316,33.3224815 103.122952,33.9748418 103.424222,34.5306991 C103.725493,35.0788361 104.203222,35.5845118 104.85741,36.0477262 C105.520205,36.5109406 106.372371,36.9587145 107.413907,37.3910479 C108.455443,37.8233813 109.707869,38.3097564 111.171183,38.8501732 C112.918553,39.5063937 114.416299,40.1548938 115.664421,40.7956737 C116.912542,41.4287334 117.936862,42.123555 118.737382,42.8801384 C119.546509,43.6290017 120.144746,44.4782281 120.532094,45.4278176 C120.919442,46.3696868 121.113116,47.4582407 121.113116,48.6934791 C121.113116,50.237527 120.798934,51.588569 120.17057,52.746605 C119.550813,53.9046409 118.66852,54.8773912 117.523691,55.6648556 C116.38747,56.4445998 115.018841,57.027478 113.417802,57.41349 C111.816763,57.7995019 110.034962,57.9925079 108.072399,57.9925079 L108.072399,57.9925079 Z M161.37149,25.6254024 L161.37149,28.1151797 L161.177816,28.1151797 C160.532236,28.1151797 159.977037,28.1769416 159.51222,28.3004655 C159.047402,28.4239894 158.625623,28.6594567 158.246883,29.0068674 C157.87675,29.3542782 157.528137,29.829073 157.201043,30.4312517 C156.882556,31.0257101 156.52964,31.7977342 156.142292,32.7473237 L146.097066,57.6450971 C145.322369,59.5597164 144.590712,61.2388685 143.902093,62.6825536 C143.213475,64.1339585 142.490425,65.373057 141.732944,66.3998491 C140.984071,67.434361 140.162032,68.2874478 139.266828,68.9591086 C138.380231,69.63849 137.364519,70.1789063 136.21969,70.580359 C135.083469,70.9895315 133.77079,71.2713207 132.281652,71.4257253 C130.801121,71.5801298 129.079575,71.6573325 127.117011,71.6573325 L126.535989,71.6573325 L126.535989,68.8548854 C128.774,68.8548854 130.697828,68.553796 132.307475,67.9516173 C133.925729,67.3571591 135.320182,66.5388134 136.490834,65.4965811 C137.670093,64.4543487 138.651375,63.2229707 139.434679,61.8024463 C140.217983,60.3819219 140.880778,58.8417341 141.423066,57.1818828 L129.182867,31.2650376 C128.881597,30.6474184 128.588934,30.1417427 128.304879,29.7480105 C128.029431,29.3542782 127.715248,29.0338883 127.362332,28.7868406 C127.009415,28.5320727 126.600547,28.3583673 126.135729,28.2657244 C125.670912,28.1653613 125.115713,28.1151797 124.470133,28.1151797 L124.276459,28.1151797 L124.276459,25.6254024 L140.157729,25.6254024 L140.157729,28.1151797 L139.964055,28.1151797 C138.629856,28.1151797 137.635663,28.3467869 136.981475,28.8100013 C136.327287,29.2732157 136.000193,29.9950581 136.000193,30.9755286 C136.000193,31.3074989 136.034624,31.6433294 136.103486,31.9830199 C136.180956,32.3149902 136.31868,32.7048623 136.516657,33.1526362 L141.358508,43.7139244 C141.659778,44.3933055 141.973961,45.1344485 142.301055,45.9373534 C142.636756,46.7325382 142.950938,47.5238627 143.243602,48.3113272 C143.536265,49.0910714 143.7988,49.8283543 144.031209,50.5231759 C144.272226,51.2179975 144.435773,51.8163161 144.52185,52.3181317 L144.715524,52.3181317 C144.947933,51.4457446 145.275027,50.3880717 145.696806,49.1451131 C146.118585,47.9021545 146.609226,46.5665529 147.168728,45.1383086 L151.584496,33.5811096 C151.782474,33.1024547 151.928806,32.6431004 152.023491,32.2030467 C152.118175,31.7552728 152.165518,31.3654007 152.165518,31.0334304 C152.165518,30.0143587 151.803993,29.2732157 151.080944,28.8100013 C150.366502,28.3467869 149.277623,28.1151797 147.814309,28.1151797 L147.620635,28.1151797 L147.620635,25.6254024 L161.37149,25.6254024 L161.37149,25.6254024 Z M180.990669,54.9237126 L180.990669,57.41349 L163.211394,57.41349 L163.211394,54.9237126 L164.076471,54.9237126 C164.833952,54.9237126 165.522571,54.8773912 166.142327,54.7847483 C166.770692,54.6843851 167.308675,54.4836589 167.756278,54.1825696 C168.212487,53.8814802 168.561101,53.4530069 168.802117,52.8971496 C169.051741,52.3335721 169.176554,51.588569 169.176554,50.6621402 L169.176554,32.1683057 C169.176554,31.2959186 169.047438,30.5972368 168.789206,30.0722605 C168.530974,29.539564 168.173752,29.1303913 167.717543,28.8447424 C167.26994,28.5513733 166.731957,28.3583673 166.103593,28.2657244 C165.483836,28.1653613 164.808129,28.1151797 164.076471,28.1151797 L163.882797,28.1151797 L163.882797,25.6254024 L174.250813,25.6254024 L175.115891,30.4312517 L175.438681,30.4312517 C176.110084,29.3272574 176.811614,28.4239894 177.543272,27.7214475 C178.274929,27.0189057 179.053929,26.4707687 179.880272,26.0770364 C180.706614,25.6755839 181.575995,25.4053756 182.488415,25.2664112 C183.409442,25.1197267 184.38642,25.0463844 185.419349,25.0463844 C186.495315,25.0463844 187.515332,25.1428874 188.479398,25.3358934 C189.452072,25.5288994 190.35158,25.837709 191.177923,26.2623222 C192.004265,26.6869354 192.74453,27.2427927 193.398718,27.929894 C194.061514,28.6092751 194.595194,29.443061 194.999757,30.4312517 L195.554956,30.4312517 C196.217751,29.3272574 196.936497,28.4239894 197.711193,27.7214475 C198.485889,27.0189057 199.307928,26.4707687 200.177309,26.0770364 C201.055298,25.6755839 201.972022,25.4053756 202.92748,25.2664112 C203.882939,25.1197267 204.877132,25.0463844 205.91006,25.0463844 C207.588569,25.0463844 209.094922,25.2741315 210.429121,25.7296256 C211.763319,26.1773996 212.890933,26.8722212 213.81196,27.8140904 C214.741596,28.7482394 215.451734,29.9487367 215.942375,31.4155823 C216.441624,32.8824279 216.691248,34.627202 216.691248,36.6499049 L216.691248,50.6621402 C216.691248,51.588569 216.820364,52.3335721 217.078596,52.8971496 C217.336828,53.4530069 217.689745,53.8814802 218.137347,54.1825696 C218.593557,54.4836589 219.13154,54.6843851 219.751297,54.7847483 C220.379662,54.8773912 221.059673,54.9237126 221.79133,54.9237126 L221.985004,54.9237126 L221.985004,57.41349 L210.493679,57.41349 L210.493679,36.9394139 C210.493679,35.6501339 210.368866,34.5036782 210.119242,33.500047 C209.878226,32.4964158 209.48227,31.6471895 208.931375,30.9523679 C208.38048,30.2575463 207.661735,29.73257 206.775138,29.377439 C205.897149,29.0145877 204.825486,28.8331621 203.560149,28.8331621 C202.182911,28.8331621 201.025171,29.0724895 200.086928,29.5511444 C199.148685,30.022079 198.3869,30.6628589 197.801575,31.4734841 C197.224856,32.2841093 196.811685,33.2221184 196.562061,34.2875115 C196.321044,35.3451843 196.200536,36.4723394 196.200536,37.6689766 L196.200536,50.6621402 C196.200536,51.588569 196.329652,52.3335721 196.587884,52.8971496 C196.846116,53.4530069 197.199033,53.8814802 197.646635,54.1825696 C198.102845,54.4836589 198.640829,54.6843851 199.260585,54.7847483 C199.88895,54.8773912 200.568961,54.9237126 201.300619,54.9237126 L201.494293,54.9237126 L201.494293,57.41349 L190.002967,57.41349 L190.002967,36.9394139 C190.002967,35.6501339 189.878155,34.5036782 189.628531,33.500047 C189.378907,32.4964158 188.978647,31.6471895 188.427752,30.9523679 C187.885464,30.2575463 187.171023,29.73257 186.284426,29.377439 C185.406437,29.0145877 184.33047,28.8331621 183.056525,28.8331621 C181.619034,28.8331621 180.409647,29.0956502 179.428365,29.6206265 C178.447084,30.1378826 177.655172,30.8404244 177.052631,31.728252 C176.450089,32.6160796 176.019703,33.6390114 175.761471,34.7970473 C175.503239,35.9550833 175.374123,37.1710211 175.374123,38.4448607 L175.374123,50.9516492 C175.374123,51.8240363 175.520454,52.5265781 175.813117,53.0592747 C176.10578,53.584251 176.497432,53.9818434 176.988073,54.2520517 C177.487322,54.5222601 178.064039,54.7036858 178.718227,54.7963286 C179.372415,54.8812513 180.065338,54.9237126 180.796995,54.9237126 L180.990669,54.9237126 L180.990669,54.9237126 Z M242.004445,28.2309833 C239.55124,28.2309833 237.661843,29.122671 236.336252,30.9060465 C235.01066,32.6894219 234.23166,35.2988629 233.999252,38.7343697 L249.196207,38.7343697 C249.196207,37.1748812 249.067091,35.7504969 248.808859,34.4612169 C248.550627,33.1642166 248.141759,32.0525021 247.582257,31.1260733 C247.022754,30.1996445 246.286793,29.4855223 245.374373,28.9837067 C244.461953,28.4818912 243.338643,28.2309833 242.004445,28.2309833 L242.004445,28.2309833 Z M242.804964,57.9925079 C240.420621,57.9925079 238.272992,57.6296567 236.362075,56.9039541 C234.459766,56.1782516 232.850119,55.1205787 231.533136,53.7309355 C230.22476,52.3412924 229.221959,50.6389795 228.524733,48.6239969 C227.827506,46.6090143 227.478893,44.3161031 227.478893,41.7452632 C227.478893,36.2098512 228.748533,32.0447818 231.287815,29.250055 C233.827097,26.4476079 237.442346,25.0463844 242.133561,25.0463844 C244.259671,25.0463844 246.170588,25.3474738 247.866312,25.9496525 C249.570643,26.5441109 251.012439,27.4357986 252.191698,28.6247156 C253.379566,29.8059123 254.291986,31.2804781 254.928958,33.048413 C255.56593,34.816348 255.884416,36.8660716 255.884416,39.197584 L255.884416,41.9189686 L233.870136,41.9189686 C233.913174,44.0806358 234.154191,45.9412135 234.593185,47.500702 C235.03218,49.0524702 235.664848,50.3301699 236.491191,51.3338011 C237.326141,52.3374323 238.346158,53.0747151 239.55124,53.5456498 C240.756323,54.0165844 242.142169,54.2520517 243.708776,54.2520517 C244.853605,54.2520517 245.912356,54.1362481 246.88503,53.9046409 C247.866312,53.6730337 248.752909,53.3642241 249.54482,52.9782122 C250.345339,52.5922002 251.051174,52.1560066 251.662323,51.6696315 C252.282079,51.1755361 252.785632,50.6582801 253.17298,50.1178633 C253.47425,50.2336669 253.758306,50.4768545 254.025146,50.847426 C254.291986,51.2102772 254.425405,51.6426107 254.425405,52.1444263 C254.425405,52.7388847 254.188693,53.3796647 253.715267,54.066766 C253.241842,54.7538673 252.518792,55.386927 251.546118,55.965945 C250.582052,56.544963 249.372666,57.027478 247.917958,57.41349 C246.471859,57.7995019 244.767527,57.9925079 242.804964,57.9925079 L242.804964,57.9925079 Z M276.736653,54.8658108 C277.528564,54.8658108 278.255918,54.8272096 278.918714,54.7500072 C279.590117,54.6728048 280.270128,54.5763018 280.958747,54.4604982 L280.958747,57.0660792 C280.683299,57.1818828 280.31747,57.2976864 279.86126,57.41349 C279.413658,57.5292936 278.923017,57.6296567 278.389338,57.7145793 C277.864266,57.8072222 277.309067,57.8767043 276.723741,57.9230258 C276.147023,57.9693472 275.600432,57.9925079 275.083968,57.9925079 C273.40546,57.9925079 271.963664,57.8303829 270.758581,57.5061328 C269.553499,57.189603 268.563609,56.676207 267.788913,55.965945 C267.014217,55.2479627 266.437498,54.3022333 266.058758,53.1287568 C265.688626,51.9475601 265.50356,50.5077354 265.50356,48.8092826 L265.50356,29.0068674 L260.468035,29.0068674 L260.468035,26.6328937 C261.259946,26.6328937 262.133631,26.4900693 263.08909,26.2044204 C264.053157,25.9110513 264.901018,25.4285363 265.632676,24.7568754 C266.381548,24.0234527 266.988394,23.1510655 267.453211,22.1397141 C267.918029,21.1206424 268.322592,19.850663 268.666902,18.3297757 L271.701128,18.3297757 L271.701128,25.6254024 L280.351901,25.6254024 L280.351901,29.0068674 L271.701128,29.0068674 L271.701128,48.982988 C271.701128,51.0134111 272.157338,52.5034174 273.069758,53.4530069 C273.982178,54.3948762 275.204476,54.8658108 276.736653,54.8658108 L276.736653,54.8658108 Z M284.864507,54.9237126 C285.596163,54.9237126 286.289086,54.8812513 286.943274,54.7963286 C287.60607,54.7036858 288.182788,54.5222601 288.673429,54.2520517 C289.172677,53.9818434 289.564329,53.584251 289.848385,53.0592747 C290.141047,52.5265781 290.287379,51.8240363 290.287379,50.9516492 L290.287379,32.1683057 C290.287379,31.2959186 290.141047,30.5972368 289.848385,30.0722605 C289.564329,29.539564 289.172677,29.1303913 288.673429,28.8447424 C288.182788,28.5513733 287.60607,28.3583673 286.943274,28.2657244 C286.289086,28.1653613 285.596163,28.1151797 284.864507,28.1151797 L284.670832,28.1151797 L284.670832,25.6254024 L296.484948,25.6254024 L296.484948,50.6621402 C296.484948,51.588569 296.631279,52.3335721 296.923942,52.8971496 C297.216605,53.4530069 297.603953,53.8814802 298.085987,54.1825696 C298.568019,54.4836589 299.140433,54.6843851 299.80323,54.7847483 C300.474633,54.8773912 301.176163,54.9237126 301.907821,54.9237126 L302.78581,54.9237126 L302.78581,57.41349 L283.999429,57.41349 L283.999429,54.9237126 L284.864507,54.9237126 L284.864507,54.9237126 Z M289.357744,16.0137038 C289.357744,15.3188822 289.452429,14.7398642 289.641799,14.2766498 C289.839777,13.8134354 290.11092,13.4390038 290.45523,13.1533549 C290.799539,12.8599858 291.195495,12.6553995 291.643097,12.5395959 C292.099307,12.4237923 292.594251,12.3658905 293.127932,12.3658905 C293.644396,12.3658905 294.126428,12.4237923 294.574031,12.5395959 C295.030241,12.6553995 295.426197,12.8599858 295.761898,13.1533549 C296.0976,13.4390038 296.364439,13.8134354 296.562418,14.2766498 C296.769003,14.7398642 296.872296,15.3188822 296.872296,16.0137038 C296.872296,16.7085254 296.769003,17.2875434 296.562418,17.7507578 C296.364439,18.2139721 296.0976,18.5922639 295.761898,18.885633 C295.426197,19.1712819 295.030241,19.3758682 294.574031,19.4993921 C294.126428,19.6229159 293.644396,19.6846778 293.127932,19.6846778 C292.594251,19.6846778 292.099307,19.6229159 291.643097,19.4993921 C291.195495,19.3758682 290.799539,19.1712819 290.45523,18.885633 C290.11092,18.5922639 289.839777,18.2139721 289.641799,17.7507578 C289.452429,17.2875434 289.357744,16.7085254 289.357744,16.0137038 L289.357744,16.0137038 Z M322.340429,57.9925079 C320.145457,57.9925079 318.12264,57.6875585 316.271976,57.0776595 C314.421314,56.4677605 312.828883,55.5065907 311.494684,54.1941499 C310.160485,52.8817092 309.123253,51.1986969 308.382988,49.1451131 C307.642723,47.0915293 307.27259,44.6056121 307.27259,41.6873614 C307.27259,38.5220631 307.642723,35.8740208 308.382988,33.7432346 C309.123253,31.6124484 310.156181,29.9024152 311.481772,28.6131352 C312.807363,27.3161349 314.365364,26.3974264 316.155772,25.8570096 C317.954789,25.3165928 319.900136,25.0463844 321.991816,25.0463844 C323.369053,25.0463844 324.737683,25.1660481 326.097705,25.4053756 C327.466335,25.644703 328.697241,26.0152745 329.790423,26.5170901 C330.892214,27.0189057 331.787418,27.6519654 332.476036,28.4162691 C333.164655,29.1805728 333.508964,30.0722605 333.508964,31.0913322 C333.508964,32.4655349 333.01402,33.434425 332.02413,33.9980025 C331.034241,34.5538598 329.562319,34.8317884 327.608362,34.8317884 C327.608362,33.9053596 327.522286,33.0291124 327.35013,32.2030467 C327.177976,31.3692608 326.881009,30.6396982 326.45923,30.0143587 C326.037451,29.3812991 325.465036,28.8872038 324.741987,28.5320727 C324.027545,28.1769416 323.110821,27.9993761 321.991816,27.9993761 C320.717871,27.9993761 319.568739,28.2116827 318.544418,28.6362959 C317.528706,29.0609092 316.655021,29.7943319 315.923363,30.8365643 C315.191706,31.8787967 314.632203,33.2800202 314.244855,35.0402349 C313.857507,36.7927293 313.663833,38.9891376 313.663833,41.6294596 C313.663833,45.8369903 314.442833,48.9752678 316.000833,51.0442921 C317.558833,53.1055961 320.11533,54.1362481 323.670324,54.1362481 C325.710357,54.1362481 327.492158,53.7502362 329.015727,52.9782122 C330.547904,52.2061882 331.692733,51.2141374 332.450213,50.0020597 C332.768699,50.2336669 333.035539,50.5424765 333.250732,50.9284885 C333.465926,51.3145005 333.573522,51.7777148 333.573522,52.3181317 C333.573522,52.9897925 333.33681,53.6653135 332.863384,54.3446946 C332.389959,55.0163555 331.684125,55.6223943 330.745882,56.1628111 C329.816246,56.7032279 328.649898,57.1432816 327.246837,57.4829721 C325.852385,57.8226626 324.216916,57.9925079 322.340429,57.9925079 L322.340429,57.9925079 Z M350.035814,57.9925079 C348.383129,57.9925079 346.88108,57.8612639 345.529665,57.5987757 C344.186859,57.3362875 343.042031,56.9425553 342.095179,56.417579 C341.148329,55.8848825 340.416671,55.2286621 339.900207,54.4489179 C339.383743,53.6614534 339.125511,52.746605 339.125511,51.7043726 C339.125511,50.9169081 339.271843,50.2568276 339.564505,49.7241311 C339.857169,49.1914345 340.210085,48.7706815 340.623257,48.4618719 C341.045036,48.1530622 341.496942,47.9368956 341.978975,47.8133717 C342.469616,47.6898478 342.90861,47.628086 343.295958,47.628086 C343.295958,48.6703183 343.412163,49.6469286 343.644572,50.557917 C343.885588,51.461185 344.285848,52.2563698 344.84535,52.9434711 C345.404854,53.6228522 346.140815,54.163269 347.053234,54.5647215 C347.965654,54.9584537 349.088964,55.1553198 350.423162,55.1553198 C351.61103,55.1553198 352.656869,55.0240757 353.560682,54.7615876 C354.464494,54.4990994 355.221975,54.132388 355.833123,53.6614534 C356.444273,53.1905187 356.909091,52.6230811 357.227576,51.9591405 C357.554671,51.2874796 357.718217,50.557917 357.718217,49.7704525 C357.718217,49.0370297 357.593406,48.4039701 357.343781,47.8712735 C357.102765,47.338577 356.672378,46.8406215 356.052621,46.3774071 C355.441472,45.9141927 354.606521,45.4432581 353.54777,44.9646032 C352.497627,44.4782281 351.17634,43.9262309 349.583908,43.3086118 C347.888185,42.6369509 346.407654,41.9884507 345.142317,41.3631113 C343.885588,40.7300516 342.848357,40.0468104 342.030621,39.3133876 C341.212887,38.5799649 340.597434,37.746179 340.184262,36.8120299 C339.779699,35.8778809 339.577417,34.7623063 339.577417,33.465306 C339.577417,32.114264 339.874384,30.9176268 340.468318,29.8753944 C341.062251,28.8331621 341.90581,27.960775 342.998991,27.2582331 C344.100782,26.5556913 345.413461,26.0229947 346.93703,25.6601435 C348.469207,25.289572 350.169235,25.1042862 352.037113,25.1042862 C353.612328,25.1042862 355.002477,25.2509708 356.20756,25.5443399 C357.412643,25.8299888 358.424052,26.2198608 359.241786,26.7139562 C360.059522,27.2003313 360.67067,27.7793493 361.075234,28.4510102 C361.488405,29.1149508 361.694991,29.8136325 361.694991,30.5470553 C361.694991,31.6278889 361.277516,32.4925557 360.442565,33.1410559 C359.616223,33.7818358 358.441267,34.1022257 356.917698,34.1022257 C356.917698,32.1181241 356.457185,30.5779363 355.536157,29.4816622 C354.623737,28.3776679 353.190549,27.8256708 351.236593,27.8256708 C350.117588,27.8256708 349.157825,27.9414744 348.357306,28.1730815 C347.565395,28.4046887 346.915511,28.7327989 346.407654,29.1574121 C345.899798,29.5820253 345.525362,30.0838409 345.284345,30.6628589 C345.051936,31.2418769 344.935732,31.8787967 344.935732,32.5736183 C344.935732,33.3224815 345.086367,33.9748418 345.387638,34.5306991 C345.688909,35.0788361 346.166638,35.5845118 346.820825,36.0477262 C347.483622,36.5109406 348.335787,36.9587145 349.377323,37.3910479 C350.418859,37.8233813 351.671284,38.3097564 353.134599,38.8501732 C354.881969,39.5063937 356.379715,40.1548938 357.627836,40.7956737 C358.875958,41.4287334 359.900278,42.123555 360.700797,42.8801384 C361.509925,43.6290017 362.108162,44.4782281 362.49551,45.4278176 C362.882858,46.3696868 363.076532,47.4582407 363.076532,48.6934791 C363.076532,50.237527 362.76235,51.588569 362.133985,52.746605 C361.514228,53.9046409 360.631936,54.8773912 359.487107,55.6648556 C358.350886,56.4445998 356.982256,57.027478 355.381217,57.41349 C353.780179,57.7995019 351.998378,57.9925079 350.035814,57.9925079 L350.035814,57.9925079 Z" id="Shape"></path>
                <polygon id="Shape" points="0.52355 28.98022 32.791788 0.58874 43.680895 12.903132 11.412657 41.294612"></polygon>
                <polygon id="Shape" points="7.942913 55.50134 61.248223 8.52426 72.137322 20.838622 18.832017 67.815702"></polygon>
                <polygon id="Shape" points="33.584366 66.65268 65.852606 38.2612 76.741713 50.575592 44.473473 78.967072"></polygon>
            </g>
        </g>
    </g>
</svg>