<svg width="348" height="348" viewBox="0 0 348 348" fill="none" xmlns="http://www.w3.org/2000/svg">
<path d="M0 0H348V348H0V0Z" fill="white"/>
<rect width="348" height="348" fill="#8A53A6"/>
<mask id="mask0" mask-type="alpha" maskUnits="userSpaceOnUse" x="0" y="0" width="348" height="348">
<rect width="348" height="348" fill="#8A53A6"/>
</mask>
<g mask="url(#mask0)">
<g filter="url(#filter0_d)">
<path d="M-0.457886 348H226.658L287.1 0H-0.457886V348Z" fill="#F3DF49"/>
</g>
</g>
<path d="M166.553 302.903C170.575 309.469 175.807 314.296 185.061 314.296C192.835 314.296 197.801 310.411 197.801 305.042C197.801 298.609 192.699 296.33 184.142 292.587L179.452 290.575C165.913 284.807 156.919 277.582 156.919 262.307C156.919 248.236 167.64 237.524 184.396 237.524C196.324 237.524 204.9 241.676 211.079 252.546L196.47 261.926C193.253 256.158 189.783 253.886 184.396 253.886C178.9 253.886 175.417 257.372 175.417 261.926C175.417 267.555 178.903 269.833 186.953 273.319L191.643 275.328C207.584 282.164 216.584 289.133 216.584 304.801C216.584 321.693 203.315 330.946 185.495 330.946C168.071 330.946 156.815 322.643 151.307 311.761L166.553 302.903ZM100.278 304.529C103.225 309.758 105.906 314.179 112.352 314.179C118.516 314.179 122.404 311.767 122.404 302.39V238.595H141.166V302.643C141.166 322.07 129.776 330.912 113.151 330.912C98.1291 330.912 89.4299 323.138 85.0058 313.775L100.278 304.529Z" fill="#2E2E2C"/>
<path d="M257.525 330.946L283.217 283.394L259.086 238.397H282.365L290.456 255.856C291.497 258.033 292.538 260.351 293.579 262.812C294.62 265.177 295.803 267.827 297.128 270.761H297.696C298.737 267.827 299.73 265.177 300.677 262.812C301.717 260.351 302.711 258.033 303.657 255.856L311.039 238.397H333.324L309.335 284.388L334.886 330.946H311.606L302.38 312.067C301.244 309.607 300.109 307.194 298.973 304.828C297.932 302.368 296.749 299.718 295.424 296.879H294.857C293.816 299.718 292.775 302.368 291.734 304.828C290.693 307.194 289.652 309.607 288.611 312.067L279.952 330.946H257.525Z" fill="white"/>
<defs>
<filter id="filter0_d" x="-15.4579" y="-15" width="327.558" height="388" filterUnits="userSpaceOnUse" color-interpolation-filters="sRGB">
<feFlood flood-opacity="0" result="BackgroundImageFix"/>
<feColorMatrix in="SourceAlpha" type="matrix" values="0 0 0 0 0 0 0 0 0 0 0 0 0 0 0 0 0 0 127 0"/>
<feOffset dx="5" dy="5"/>
<feGaussianBlur stdDeviation="10"/>
<feColorMatrix type="matrix" values="0 0 0 0 0 0 0 0 0 0 0 0 0 0 0 0 0 0 0.25 0"/>
<feBlend mode="normal" in2="BackgroundImageFix" result="effect1_dropShadow"/>
<feBlend mode="normal" in="SourceGraphic" in2="effect1_dropShadow" result="shape"/>
</filter>
</defs>
</svg>
