<svg width="764" height="348" viewBox="0 0 764 348" fill="none" xmlns="http://www.w3.org/2000/svg">
<g clip-path="url(#clip0)">
<circle cx="174" cy="174" r="174" fill="black"/>
<path d="M331.879 174.032C331.879 153.115 305.684 133.291 265.522 120.998C274.791 80.0641 270.671 47.497 252.521 37.0704C248.338 34.6247 243.446 33.4662 238.104 33.4662V47.8188C241.065 47.8188 243.446 48.3981 245.442 49.4922C254.195 54.5124 257.992 73.6279 255.031 98.2141C254.324 104.264 253.165 110.636 251.749 117.136C239.134 114.047 225.361 111.666 210.879 110.121C202.19 98.2141 193.18 87.4013 184.105 77.9401C205.087 58.4385 224.781 47.7545 238.169 47.7545V33.4018C220.469 33.4018 197.299 46.0167 173.871 67.8997C150.444 46.1454 127.273 33.6592 109.574 33.6592V48.0119C122.897 48.0119 142.656 58.6316 163.638 78.0045C154.627 87.4657 145.617 98.2141 137.056 110.121C122.511 111.666 108.737 114.047 96.1224 117.201C94.642 110.765 93.5479 104.522 92.7755 98.5359C89.7505 73.9497 93.4835 54.8343 102.172 49.7497C104.103 48.5912 106.613 48.0763 109.574 48.0763V33.7236C104.168 33.7236 99.2761 34.8821 95.0282 37.3279C76.9426 47.7545 72.8878 80.2571 82.2202 121.062C42.1872 133.42 16.1207 153.179 16.1207 174.032C16.1207 194.95 42.3159 214.773 82.4777 227.066C73.2096 268 77.3287 300.567 95.4787 310.994C99.6623 313.44 104.554 314.598 109.96 314.598C127.66 314.598 150.83 301.983 174.258 280.1C197.685 301.855 220.855 314.341 238.555 314.341C243.961 314.341 248.853 313.182 253.101 310.737C271.186 300.31 275.241 267.807 265.909 227.002C305.813 214.709 331.879 194.885 331.879 174.032ZM248.08 131.103C245.699 139.406 242.738 147.966 239.392 156.526C236.753 151.377 233.985 146.228 230.96 141.079C228 135.93 224.846 130.91 221.692 126.018C230.831 127.37 239.649 129.043 248.08 131.103ZM218.603 199.648C213.583 208.337 208.434 216.575 203.092 224.234C193.502 225.071 183.783 225.522 174 225.522C164.281 225.522 154.563 225.071 145.037 224.299C139.695 216.64 134.482 208.466 129.462 199.841C124.57 191.41 120.129 182.85 116.075 174.225C120.065 165.601 124.57 156.976 129.397 148.545C134.418 139.856 139.567 131.618 144.909 123.959C154.498 123.122 164.217 122.672 174 122.672C183.719 122.672 193.437 123.122 202.963 123.894C208.305 131.553 213.518 139.727 218.538 148.352C223.43 156.783 227.871 165.343 231.926 173.968C227.871 182.592 223.43 191.217 218.603 199.648ZM239.392 191.281C242.867 199.906 245.828 208.53 248.274 216.897C239.842 218.957 230.96 220.694 221.756 222.046C224.91 217.09 228.064 212.006 231.025 206.792C233.985 201.643 236.753 196.43 239.392 191.281ZM174.129 259.955C168.143 253.776 162.157 246.89 156.236 239.359C162.029 239.617 167.95 239.81 173.936 239.81C179.986 239.81 185.971 239.681 191.828 239.359C186.036 246.89 180.05 253.776 174.129 259.955ZM126.244 222.046C117.104 220.694 108.287 219.021 99.8553 216.961C102.237 208.659 105.197 200.099 108.544 191.539C111.183 196.688 113.951 201.836 116.976 206.985C120.001 212.134 123.09 217.155 126.244 222.046ZM173.807 88.1093C179.793 94.288 185.778 101.175 191.7 108.705C185.907 108.448 179.986 108.254 174 108.254C167.95 108.254 161.964 108.383 156.108 108.705C161.9 101.175 167.886 94.288 173.807 88.1093ZM126.179 126.018C123.026 130.974 119.872 136.059 116.911 141.272C113.951 146.421 111.183 151.57 108.544 156.719C105.069 148.094 102.108 139.47 99.6623 131.103C108.094 129.108 116.976 127.37 126.179 126.018ZM67.9319 206.599C45.1479 196.881 30.409 184.137 30.409 174.032C30.409 163.927 45.1479 151.119 67.9319 141.465C73.467 139.084 79.517 136.96 85.7601 134.965C89.4287 147.58 94.2559 160.709 100.242 174.161C94.3202 187.548 89.5575 200.614 85.9532 213.164C79.5814 211.169 73.5314 208.981 67.9319 206.599ZM102.559 298.572C93.8053 293.552 90.008 274.437 92.9686 249.85C93.6766 243.8 94.8351 237.429 96.2511 230.928C108.866 234.017 122.639 236.399 137.121 237.943C145.81 249.85 154.82 260.663 163.895 270.124C142.913 289.626 123.219 300.31 109.831 300.31C106.935 300.246 104.489 299.666 102.559 298.572ZM255.225 249.529C258.25 274.115 254.517 293.23 245.828 298.315C243.897 299.473 241.387 299.988 238.426 299.988C225.103 299.988 205.344 289.368 184.362 269.996C193.373 260.534 202.384 249.786 210.944 237.879C225.489 236.334 239.263 233.953 251.878 230.799C253.358 237.3 254.517 243.543 255.225 249.529ZM280.004 206.599C274.469 208.981 268.419 211.105 262.176 213.1C258.507 200.485 253.68 187.355 247.694 173.903C253.616 160.516 258.378 147.451 261.983 134.9C268.354 136.895 274.404 139.084 280.068 141.465C302.852 151.184 317.591 163.927 317.591 174.032C317.527 184.137 302.788 196.945 280.004 206.599Z" fill="#61DAFB"/>
<path d="M173.936 203.446C190.18 203.446 203.349 190.277 203.349 174.032C203.349 157.788 190.18 144.619 173.936 144.619C157.691 144.619 144.523 157.788 144.523 174.032C144.523 190.277 157.691 203.446 173.936 203.446Z" fill="#61DAFB"/>
<path d="M443.241 145.259V69.2892H470.623C474.662 69.2892 478.429 69.6776 481.925 70.4544C485.498 71.2312 488.605 72.5517 491.246 74.416C493.887 76.2026 495.985 78.6107 497.538 81.6401C499.092 84.6696 499.869 88.437 499.869 92.9424C499.869 98.5352 498.626 103.157 496.14 106.808C493.732 110.381 490.47 113.061 486.353 114.848L503.597 145.259H484.372L469.807 117.877H460.369V145.259H443.241ZM460.369 104.245H469.225C473.73 104.245 477.148 103.312 479.478 101.448C481.886 99.5062 483.09 96.6709 483.09 92.9424C483.09 89.2138 481.886 86.6116 479.478 85.1357C477.148 83.6598 473.73 82.9218 469.225 82.9218H460.369V104.245Z" fill="black"/>
<path d="M538.03 146.657C533.913 146.657 530.068 145.997 526.495 144.676C522.922 143.278 519.815 141.297 517.173 138.734C514.532 136.093 512.474 132.908 510.998 129.179C509.522 125.451 508.784 121.179 508.784 116.362C508.784 111.702 509.561 107.507 511.115 103.779C512.668 99.9723 514.688 96.7875 517.173 94.2241C519.737 91.583 522.65 89.5634 525.912 88.1651C529.175 86.7669 532.554 86.0678 536.049 86.0678C540.166 86.0678 543.74 86.7669 546.769 88.1651C549.876 89.5634 552.44 91.5053 554.459 93.991C556.556 96.4767 558.11 99.4285 559.12 102.846C560.13 106.187 560.635 109.837 560.635 113.799C560.635 115.353 560.557 116.829 560.402 118.227C560.246 119.625 560.091 120.674 559.935 121.373H525.33C526.106 125.567 527.815 128.675 530.456 130.694C533.175 132.636 536.477 133.607 540.36 133.607C544.477 133.607 548.633 132.325 552.828 129.762L558.537 140.132C555.585 142.152 552.284 143.744 548.633 144.909C545.06 146.075 541.526 146.657 538.03 146.657ZM525.213 110.07H546.07C546.07 106.808 545.332 104.167 543.856 102.147C542.38 100.128 539.894 99.1178 536.399 99.1178C533.68 99.1178 531.272 100.011 529.175 101.798C527.155 103.584 525.835 106.342 525.213 110.07Z" fill="black"/>
<path d="M585.783 146.657C583.142 146.657 580.734 146.191 578.559 145.259C576.462 144.404 574.675 143.2 573.199 141.647C571.724 140.016 570.558 138.151 569.704 136.054C568.927 133.957 568.539 131.665 568.539 129.179C568.539 123.12 571.102 118.382 576.229 114.964C581.356 111.546 589.628 109.255 601.047 108.09C600.892 105.526 600.115 103.507 598.717 102.031C597.396 100.477 595.144 99.7004 591.959 99.7004C589.473 99.7004 586.987 100.166 584.502 101.099C582.094 102.031 579.491 103.312 576.695 104.944L570.519 93.6415C574.248 91.3888 578.132 89.5634 582.171 88.1651C586.288 86.7669 590.638 86.0678 595.221 86.0678C602.678 86.0678 608.349 88.204 612.233 92.4763C616.194 96.6709 618.175 103.235 618.175 112.168V145.259H604.193L603.028 139.316H602.562C600.076 141.491 597.474 143.278 594.755 144.676C592.036 145.997 589.046 146.657 585.783 146.657ZM591.609 133.374C593.551 133.374 595.221 132.947 596.62 132.092C598.018 131.238 599.494 130.034 601.047 128.48V118.343C594.988 119.198 590.794 120.441 588.463 122.072C586.133 123.703 584.968 125.645 584.968 127.898C584.968 129.762 585.55 131.16 586.715 132.092C587.958 132.947 589.59 133.374 591.609 133.374Z" fill="black"/>
<path d="M657.831 146.657C653.792 146.657 650.025 145.997 646.529 144.676C643.111 143.278 640.121 141.297 637.557 138.734C634.994 136.17 632.974 133.025 631.498 129.296C630.022 125.49 629.285 121.179 629.285 116.362C629.285 111.546 630.1 107.274 631.731 103.545C633.363 99.7392 635.538 96.5544 638.256 93.991C641.053 91.4276 644.277 89.4857 647.927 88.1651C651.578 86.7669 655.385 86.0678 659.346 86.0678C662.919 86.0678 666.065 86.6504 668.784 87.8156C671.581 88.9808 674.066 90.4567 676.241 92.2433L668.202 103.312C665.483 101.06 662.881 99.9334 660.395 99.9334C656.2 99.9334 652.899 101.409 650.491 104.361C648.083 107.313 646.879 111.313 646.879 116.362C646.879 121.412 648.083 125.412 650.491 128.364C652.977 131.316 656.084 132.791 659.812 132.791C661.677 132.791 663.463 132.403 665.172 131.626C666.959 130.772 668.629 129.762 670.182 128.597L676.94 139.783C674.066 142.268 670.959 144.055 667.619 145.142C664.279 146.152 661.016 146.657 657.831 146.657Z" fill="black"/>
<path d="M708.171 146.657C704.598 146.657 701.529 146.113 698.966 145.026C696.48 143.938 694.422 142.424 692.79 140.482C691.237 138.54 690.072 136.209 689.295 133.491C688.596 130.694 688.246 127.626 688.246 124.286V100.866H680.323V88.1651L689.178 87.466L691.159 72.0857H705.374V87.466H719.24V100.866H705.374V124.053C705.374 127.315 706.035 129.684 707.355 131.16C708.753 132.558 710.579 133.258 712.831 133.258C713.764 133.258 714.696 133.141 715.628 132.908C716.638 132.675 717.531 132.403 718.308 132.092L720.988 144.56C719.434 145.026 717.609 145.492 715.511 145.958C713.414 146.424 710.967 146.657 708.171 146.657Z" fill="black"/>
<path d="M443.241 281.973V206.004H460.835L480.643 243.755L488.1 260.534H488.566C488.178 256.495 487.712 251.989 487.168 247.018C486.702 242.046 486.469 237.308 486.469 232.803V206.004H502.782V281.973H485.187L465.379 244.105L457.922 227.559H457.456C457.845 231.754 458.272 236.259 458.738 241.075C459.282 245.891 459.554 250.552 459.554 255.058V281.973H443.241Z" fill="black"/>
<path d="M533.896 283.371C531.255 283.371 528.847 282.905 526.672 281.973C524.575 281.119 522.788 279.915 521.313 278.361C519.837 276.73 518.671 274.866 517.817 272.768C517.04 270.671 516.652 268.379 516.652 265.894C516.652 259.835 519.215 255.096 524.342 251.679C529.469 248.261 537.742 245.969 549.16 244.804C549.005 242.241 548.228 240.221 546.83 238.745C545.509 237.191 543.257 236.415 540.072 236.415C537.586 236.415 535.1 236.881 532.615 237.813C530.207 238.745 527.605 240.027 524.808 241.658L518.633 230.356C522.361 228.103 526.245 226.278 530.284 224.879C534.401 223.481 538.751 222.782 543.334 222.782C550.792 222.782 556.462 224.918 560.346 229.191C564.308 233.385 566.288 239.949 566.288 248.882V281.973H552.306L551.141 276.031H550.675C548.189 278.206 545.587 279.992 542.868 281.391C540.15 282.711 537.159 283.371 533.896 283.371ZM539.722 270.088C541.664 270.088 543.334 269.661 544.733 268.807C546.131 267.952 547.607 266.748 549.16 265.195V255.058C543.101 255.912 538.907 257.155 536.576 258.786C534.246 260.417 533.081 262.359 533.081 264.612C533.081 266.476 533.663 267.875 534.829 268.807C536.071 269.661 537.703 270.088 539.722 270.088Z" fill="black"/>
<path d="M600.983 283.371C597.41 283.371 594.342 282.828 591.779 281.74C589.293 280.653 587.234 279.138 585.603 277.196C584.05 275.254 582.884 272.924 582.108 270.205C581.408 267.408 581.059 264.34 581.059 261V237.58H573.136V224.879L581.991 224.18L583.972 208.8H598.187V224.18H612.053V237.58H598.187V260.767C598.187 264.029 598.847 266.399 600.168 267.875C601.566 269.273 603.391 269.972 605.644 269.972C606.576 269.972 607.508 269.855 608.441 269.622C609.45 269.389 610.344 269.117 611.121 268.807L613.8 281.274C612.247 281.74 610.421 282.206 608.324 282.672C606.227 283.138 603.78 283.371 600.983 283.371Z" fill="black"/>
<path d="M623.333 281.973V224.18H640.461V281.973H623.333ZM631.839 215.675C628.965 215.675 626.596 214.859 624.731 213.228C622.867 211.519 621.935 209.344 621.935 206.703C621.935 204.062 622.867 201.925 624.731 200.294C626.596 198.663 628.965 197.847 631.839 197.847C634.791 197.847 637.16 198.663 638.946 200.294C640.811 201.925 641.743 204.062 641.743 206.703C641.743 209.344 640.811 211.519 638.946 213.228C637.16 214.859 634.791 215.675 631.839 215.675Z" fill="black"/>
<path d="M668.818 281.973L649.359 224.18H666.604L674.061 251.445C674.838 254.32 675.576 257.271 676.275 260.301C677.052 263.253 677.828 266.243 678.605 269.273H679.071C679.77 266.243 680.47 263.253 681.169 260.301C681.945 257.271 682.722 254.32 683.499 251.445L691.073 224.18H707.502L688.626 281.973H668.818Z" fill="black"/>
<path d="M741.481 283.371C737.364 283.371 733.519 282.711 729.946 281.391C726.373 279.992 723.266 278.012 720.625 275.448C717.983 272.807 715.925 269.622 714.449 265.894C712.973 262.165 712.235 257.893 712.235 253.077C712.235 248.416 713.012 244.221 714.566 240.493C716.119 236.687 718.139 233.502 720.625 230.938C723.188 228.297 726.101 226.278 729.363 224.879C732.626 223.481 736.005 222.782 739.5 222.782C743.617 222.782 747.191 223.481 750.22 224.879C753.327 226.278 755.891 228.22 757.91 230.705C760.008 233.191 761.561 236.143 762.571 239.561C763.581 242.901 764.086 246.552 764.086 250.513C764.086 252.067 764.008 253.543 763.853 254.941C763.697 256.339 763.542 257.388 763.387 258.087H728.781C729.558 262.282 731.267 265.389 733.908 267.408C736.626 269.35 739.928 270.321 743.812 270.321C747.929 270.321 752.084 269.04 756.279 266.476L761.988 276.846C759.037 278.866 755.735 280.458 752.084 281.624C748.511 282.789 744.977 283.371 741.481 283.371ZM728.664 246.785H749.521C749.521 243.522 748.783 240.881 747.307 238.862C745.831 236.842 743.346 235.832 739.85 235.832C737.131 235.832 734.723 236.725 732.626 238.512C730.606 240.299 729.286 243.056 728.664 246.785Z" fill="black"/>
</g>
<defs>
<clipPath id="clip0">
<path d="M0 0H764V348H0V0Z" fill="white"/>
</clipPath>
</defs>
</svg>
