<svg width="525" height="315" viewBox="0 0 525 315" fill="none" xmlns="http://www.w3.org/2000/svg">
<circle cx="157.04" cy="157.04" r="157.04" fill="black"/>
<path d="M299.53 157.069C299.53 138.19 275.889 120.299 239.641 109.204C248.006 72.26 244.289 42.8674 227.908 33.4571C224.132 31.2497 219.717 30.2041 214.896 30.2041V43.1578C217.568 43.1578 219.717 43.6806 221.518 44.6681C229.418 49.199 232.845 66.4512 230.173 88.6409C229.534 94.1012 228.489 99.8519 227.211 105.719C215.825 102.931 203.394 100.781 190.325 99.3872C182.483 88.6409 174.35 78.8821 166.16 70.3431C185.097 52.7424 202.872 43.0997 214.954 43.0997V30.146C198.98 30.146 178.068 41.5313 156.924 61.2813C135.78 41.6475 114.868 30.3784 98.8937 30.3784V43.3321C110.918 43.3321 128.751 52.9166 147.688 70.4012C139.555 78.9402 131.423 88.6409 123.697 99.3872C110.569 100.781 98.1385 102.931 86.7532 105.777C85.4172 99.9681 84.4297 94.3335 83.7326 88.9313C81.0025 66.7416 84.3716 49.4894 92.2135 44.9004C93.9562 43.8549 96.2216 43.3901 98.8937 43.3901V30.4365C94.0143 30.4365 89.5996 31.4821 85.7657 33.6894C69.4429 43.0997 65.7834 72.4343 74.2062 109.262C38.0753 120.415 14.5496 138.248 14.5496 157.069C14.5496 175.948 38.1915 193.839 74.4385 204.934C66.0738 241.878 69.7915 271.27 86.1724 280.681C89.9481 282.888 94.3628 283.934 99.2422 283.934C115.216 283.934 136.128 272.548 157.272 252.798C178.416 272.432 199.328 283.701 215.302 283.701C220.182 283.701 224.597 282.656 228.43 280.448C244.753 271.038 248.413 241.703 239.99 204.875C276.005 193.781 299.53 175.889 299.53 157.069ZM223.9 118.324C221.75 125.817 219.078 133.543 216.058 141.269C213.676 136.622 211.178 131.975 208.448 127.328C205.776 122.681 202.93 118.15 200.083 113.735C208.332 114.955 216.29 116.465 223.9 118.324ZM197.295 180.188C192.764 188.03 188.117 195.465 183.296 202.378C174.641 203.133 165.869 203.539 157.04 203.539C148.269 203.539 139.497 203.133 130.9 202.436C126.079 195.523 121.374 188.146 116.843 180.362C112.428 172.753 108.42 165.027 104.761 157.243C108.362 149.459 112.428 141.675 116.785 134.066C121.316 126.224 125.963 118.789 130.784 111.876C139.439 111.121 148.211 110.714 157.04 110.714C165.811 110.714 174.583 111.121 183.18 111.818C188.001 118.731 192.706 126.108 197.237 133.892C201.652 141.501 205.66 149.227 209.319 157.011C205.66 164.795 201.652 172.578 197.295 180.188ZM216.058 172.636C219.194 180.42 221.866 188.204 224.074 195.756C216.464 197.614 208.448 199.183 200.141 200.403C202.988 195.93 205.834 191.341 208.506 186.636C211.178 181.989 213.676 177.284 216.058 172.636ZM157.156 234.617C151.754 229.04 146.352 222.825 141.008 216.028C146.236 216.261 151.58 216.435 156.982 216.435C162.442 216.435 167.844 216.319 173.13 216.028C167.903 222.825 162.5 229.04 157.156 234.617ZM113.939 200.403C105.69 199.183 97.7319 197.673 90.1224 195.814C92.2716 188.32 94.9437 180.595 97.9643 172.869C100.346 177.516 102.844 182.163 105.574 186.81C108.304 191.457 111.092 195.988 113.939 200.403ZM156.866 79.521C162.268 85.0975 167.67 91.3129 173.014 98.1093C167.786 97.8769 162.442 97.7027 157.04 97.7027C151.58 97.7027 146.178 97.8188 140.891 98.1093C146.119 91.3129 151.522 85.0975 156.866 79.521ZM113.88 113.735C111.034 118.208 108.188 122.797 105.516 127.502C102.844 132.149 100.346 136.796 97.9643 141.443C94.8275 133.659 92.1554 125.875 89.9481 118.324C97.5577 116.523 105.574 114.955 113.88 113.735ZM61.3106 186.461C40.7474 177.69 27.4451 166.189 27.4451 157.069C27.4451 147.949 40.7474 136.389 61.3106 127.676C66.3062 125.527 71.7665 123.61 77.401 121.809C80.7121 133.195 85.0687 145.045 90.4709 157.185C85.1268 169.267 80.8282 181.059 77.5753 192.386C71.8246 190.586 66.3643 188.611 61.3106 186.461ZM92.5621 269.47C84.6621 264.939 81.2349 247.686 83.9069 225.497C84.5459 220.036 85.5915 214.286 86.8694 208.419C98.2547 211.207 110.686 213.356 123.755 214.75C131.597 225.497 139.73 235.256 147.92 243.795C128.983 261.395 111.208 271.038 99.126 271.038C96.5121 270.98 94.3047 270.457 92.5621 269.47ZM230.347 225.206C233.078 247.396 229.708 264.648 221.866 269.237C220.124 270.283 217.858 270.748 215.186 270.748C203.162 270.748 185.329 261.163 166.392 243.678C174.525 235.139 182.657 225.439 190.383 214.692C203.511 213.298 215.941 211.149 227.327 208.303C228.663 214.17 229.708 219.804 230.347 225.206ZM252.711 186.461C247.716 188.611 242.255 190.528 236.621 192.328C233.31 180.943 228.953 169.093 223.551 156.953C228.895 144.87 233.194 133.078 236.447 121.751C242.197 123.552 247.658 125.527 252.769 127.676C273.333 136.448 286.635 147.949 286.635 157.069C286.577 166.189 273.275 177.748 252.711 186.461Z" fill="#61DAFB"/>
<path d="M156.982 183.615C171.643 183.615 183.528 171.73 183.528 157.069C183.528 142.408 171.643 130.523 156.982 130.523C142.321 130.523 130.436 142.408 130.436 157.069C130.436 171.73 142.321 183.615 156.982 183.615Z" fill="#61DAFB"/>
<path d="M399.5 155.5V109.5H355.5V83.5H399.5V37.5H426.5V83.5H470.5V109.5H426.5V155.5H399.5Z" fill="black"/>
<path d="M330.04 252.16L329.272 255.04H335.944L335.224 252.16C334.776 250.592 334.344 248.928 333.928 247.168C333.512 245.408 333.096 243.712 332.68 242.08H332.488C332.104 243.744 331.704 245.456 331.288 247.216C330.904 248.944 330.488 250.592 330.04 252.16ZM318.712 268L328.504 236.704H337L346.792 268H339.304L337.384 260.56H327.832L325.912 268H318.712ZM358.132 268.576C356.66 268.576 355.316 268.288 354.1 267.712C352.916 267.136 351.892 266.32 351.028 265.264C350.196 264.176 349.54 262.864 349.06 261.328C348.612 259.792 348.388 258.048 348.388 256.096C348.388 254.144 348.66 252.4 349.204 250.864C349.78 249.328 350.516 248.032 351.412 246.976C352.34 245.888 353.396 245.056 354.58 244.48C355.796 243.904 357.028 243.616 358.276 243.616C359.62 243.616 360.724 243.84 361.588 244.288C362.452 244.736 363.3 245.344 364.132 246.112L363.844 242.464V234.352H370.9V268H365.14L364.66 265.648H364.468C363.636 266.48 362.66 267.184 361.54 267.76C360.42 268.304 359.284 268.576 358.132 268.576ZM359.956 262.816C360.724 262.816 361.412 262.656 362.02 262.336C362.66 262.016 363.268 261.456 363.844 260.656V250.912C363.204 250.336 362.548 249.936 361.876 249.712C361.204 249.488 360.548 249.376 359.908 249.376C358.788 249.376 357.796 249.92 356.932 251.008C356.068 252.064 355.636 253.728 355.636 256C355.636 258.368 356.004 260.096 356.74 261.184C357.508 262.272 358.58 262.816 359.956 262.816ZM382.623 268L374.607 244.192H381.711L384.783 255.424C385.103 256.608 385.407 257.824 385.695 259.072C386.015 260.288 386.335 261.52 386.655 262.768H386.847C387.135 261.52 387.423 260.288 387.711 259.072C388.031 257.824 388.351 256.608 388.671 255.424L391.791 244.192H398.559L390.783 268H382.623ZM407.339 268.576C406.251 268.576 405.259 268.384 404.363 268C403.499 267.648 402.763 267.152 402.155 266.512C401.547 265.84 401.067 265.072 400.715 264.208C400.395 263.344 400.235 262.4 400.235 261.376C400.235 258.88 401.291 256.928 403.403 255.52C405.515 254.112 408.923 253.168 413.627 252.688C413.563 251.632 413.243 250.8 412.667 250.192C412.123 249.552 411.195 249.232 409.883 249.232C408.859 249.232 407.835 249.424 406.811 249.808C405.819 250.192 404.747 250.72 403.595 251.392L401.051 246.736C402.587 245.808 404.187 245.056 405.851 244.48C407.547 243.904 409.339 243.616 411.227 243.616C414.299 243.616 416.635 244.496 418.235 246.256C419.867 247.984 420.683 250.688 420.683 254.368V268H414.923L414.443 265.552H414.251C413.227 266.448 412.155 267.184 411.035 267.76C409.915 268.304 408.683 268.576 407.339 268.576ZM409.739 263.104C410.539 263.104 411.227 262.928 411.803 262.576C412.379 262.224 412.987 261.728 413.627 261.088V256.912C411.131 257.264 409.403 257.776 408.443 258.448C407.483 259.12 407.003 259.92 407.003 260.848C407.003 261.616 407.243 262.192 407.723 262.576C408.235 262.928 408.907 263.104 409.739 263.104ZM426.651 268V244.192H432.411L432.891 247.216H433.083C434.107 246.256 435.227 245.424 436.443 244.72C437.659 243.984 439.083 243.616 440.715 243.616C443.307 243.616 445.179 244.464 446.331 246.16C447.515 247.856 448.107 250.208 448.107 253.216V268H441.051V254.128C441.051 252.4 440.811 251.216 440.331 250.576C439.883 249.936 439.147 249.616 438.123 249.616C437.227 249.616 436.459 249.824 435.819 250.24C435.179 250.624 434.475 251.184 433.707 251.92V268H426.651ZM464.488 268.576C462.824 268.576 461.272 268.304 459.832 267.76C458.424 267.184 457.192 266.368 456.136 265.312C455.08 264.256 454.248 262.96 453.64 261.424C453.032 259.856 452.728 258.08 452.728 256.096C452.728 254.112 453.064 252.352 453.736 250.816C454.408 249.248 455.304 247.936 456.424 246.88C457.576 245.824 458.904 245.024 460.408 244.48C461.912 243.904 463.48 243.616 465.112 243.616C466.584 243.616 467.88 243.856 469 244.336C470.152 244.816 471.176 245.424 472.072 246.16L468.76 250.72C467.64 249.792 466.568 249.328 465.544 249.328C463.816 249.328 462.456 249.936 461.464 251.152C460.472 252.368 459.976 254.016 459.976 256.096C459.976 258.176 460.472 259.824 461.464 261.04C462.488 262.256 463.768 262.864 465.304 262.864C466.072 262.864 466.808 262.704 467.512 262.384C468.248 262.032 468.936 261.616 469.576 261.136L472.36 265.744C471.176 266.768 469.896 267.504 468.52 267.952C467.144 268.368 465.8 268.576 464.488 268.576ZM485.823 268.576C484.127 268.576 482.543 268.304 481.071 267.76C479.599 267.184 478.319 266.368 477.231 265.312C476.143 264.224 475.295 262.912 474.687 261.376C474.079 259.84 473.775 258.08 473.775 256.096C473.775 254.176 474.095 252.448 474.735 250.912C475.375 249.344 476.207 248.032 477.231 246.976C478.287 245.888 479.487 245.056 480.831 244.48C482.175 243.904 483.567 243.616 485.007 243.616C486.703 243.616 488.175 243.904 489.423 244.48C490.703 245.056 491.759 245.856 492.591 246.88C493.455 247.904 494.095 249.12 494.511 250.528C494.927 251.904 495.135 253.408 495.135 255.04C495.135 255.68 495.103 256.288 495.039 256.864C494.975 257.44 494.911 257.872 494.847 258.16H480.591C480.911 259.888 481.615 261.168 482.703 262C483.823 262.8 485.183 263.2 486.783 263.2C488.479 263.2 490.191 262.672 491.919 261.616L494.271 265.888C493.055 266.72 491.695 267.376 490.191 267.856C488.719 268.336 487.263 268.576 485.823 268.576ZM480.543 253.504H489.135C489.135 252.16 488.831 251.072 488.223 250.24C487.615 249.408 486.591 248.992 485.151 248.992C484.031 248.992 483.039 249.36 482.175 250.096C481.343 250.832 480.799 251.968 480.543 253.504ZM508.507 268.576C507.035 268.576 505.691 268.288 504.475 267.712C503.291 267.136 502.267 266.32 501.403 265.264C500.571 264.176 499.915 262.864 499.435 261.328C498.987 259.792 498.763 258.048 498.763 256.096C498.763 254.144 499.035 252.4 499.579 250.864C500.155 249.328 500.891 248.032 501.787 246.976C502.715 245.888 503.771 245.056 504.955 244.48C506.171 243.904 507.403 243.616 508.651 243.616C509.995 243.616 511.099 243.84 511.963 244.288C512.827 244.736 513.675 245.344 514.507 246.112L514.219 242.464V234.352H521.275V268H515.515L515.035 265.648H514.843C514.011 266.48 513.035 267.184 511.915 267.76C510.795 268.304 509.659 268.576 508.507 268.576ZM510.331 262.816C511.099 262.816 511.787 262.656 512.395 262.336C513.035 262.016 513.643 261.456 514.219 260.656V250.912C513.579 250.336 512.923 249.936 512.251 249.712C511.579 249.488 510.923 249.376 510.283 249.376C509.163 249.376 508.171 249.92 507.307 251.008C506.443 252.064 506.011 253.728 506.011 256C506.011 258.368 506.379 260.096 507.115 261.184C507.883 262.272 508.955 262.816 510.331 262.816Z" fill="#495057"/>
</svg>
