<svg width="606" height="348" viewBox="0 0 606 348" fill="none" xmlns="http://www.w3.org/2000/svg">
<rect y="46.4277" width="255.065" height="255.065" fill="#8A53A6"/>
<mask id="mask0" mask-type="alpha" maskUnits="userSpaceOnUse" x="0" y="46" width="256" height="256">
<rect y="46.4277" width="255.065" height="255.065" fill="#8A53A6"/>
</mask>
<g mask="url(#mask0)">
<g filter="url(#filter0_d)">
<path d="M-0.335632 301.493H166.128L210.429 46.4277H-0.335632V301.493Z" fill="#F3DF49"/>
</g>
</g>
<path d="M122.075 268.439C125.022 273.252 128.857 276.789 135.64 276.789C141.337 276.789 144.977 273.942 144.977 270.007C144.977 265.292 141.238 263.622 134.966 260.878L131.528 259.403C121.605 255.176 115.013 249.88 115.013 238.684C115.013 228.371 122.871 220.52 135.152 220.52C143.895 220.52 150.18 223.563 154.71 231.53L144.002 238.405C141.644 234.178 139.101 232.512 135.152 232.512C131.124 232.512 128.571 235.067 128.571 238.405C128.571 242.531 131.127 244.201 137.026 246.756L140.464 248.228C152.148 253.239 158.744 258.346 158.744 269.83C158.744 282.211 149.019 288.993 135.958 288.993C123.187 288.993 114.937 282.908 110.9 274.931L122.075 268.439ZM73.4981 269.631C75.6583 273.463 77.6234 276.703 82.348 276.703C86.8658 276.703 89.7159 274.936 89.7159 268.063V221.305H103.467V268.249C103.467 282.487 95.1187 288.968 82.9333 288.968C71.9233 288.968 65.5472 283.27 62.3046 276.407L73.4981 269.631Z" fill="#2E2E2C"/>
<path d="M188.751 288.993L207.583 254.14L189.896 221.159H206.958L212.889 233.956C213.652 235.552 214.415 237.251 215.178 239.054C215.941 240.788 216.807 242.73 217.779 244.88H218.195C218.958 242.73 219.686 240.788 220.38 239.054C221.142 237.251 221.871 235.552 222.564 233.956L227.974 221.159H244.309L226.726 254.868L245.453 288.993H228.391L221.628 275.156C220.796 273.353 219.963 271.584 219.131 269.85C218.368 268.047 217.501 266.105 216.53 264.024H216.114C215.351 266.105 214.588 268.047 213.825 269.85C213.062 271.584 212.299 273.353 211.536 275.156L205.19 288.993H188.751Z" fill="white"/>
<path d="M605.024 174C605.024 148.119 572.613 123.592 522.921 108.382C534.389 57.7346 529.292 17.4398 506.835 4.53913C501.659 1.51304 495.607 0.0796327 488.997 0.0796327V17.838C492.66 17.838 495.607 18.5547 498.076 19.9085C508.906 26.1199 513.604 49.7712 509.941 80.1913C509.065 87.6769 507.632 95.5606 505.88 103.604C490.271 99.7812 473.23 96.8348 455.312 94.9236C444.562 80.1913 433.413 66.8128 422.184 55.1066C448.145 30.9776 472.513 17.7584 489.077 17.7584V0C467.178 0 438.509 15.6082 409.523 42.6838C380.536 15.7675 351.868 0.318537 329.968 0.318537V18.0769C346.453 18.0769 370.9 31.2165 396.861 55.1863C385.712 66.8925 374.563 80.1913 363.972 94.9236C345.975 96.8348 328.933 99.7812 313.325 103.683C311.493 95.7199 310.14 87.9954 309.184 80.5895C305.441 50.1693 310.06 26.5181 320.811 20.227C323.2 18.7936 326.305 18.1565 329.968 18.1565V0.398169C323.279 0.398169 317.227 1.83158 311.971 4.85766C289.594 17.7584 284.577 57.9735 296.124 108.461C246.592 123.751 214.34 148.199 214.34 174C214.34 199.881 246.751 224.408 296.443 239.618C284.975 290.265 290.072 330.56 312.529 343.461C317.705 346.487 323.757 347.92 330.446 347.92C352.346 347.92 381.014 332.312 410 305.237C438.987 332.153 467.655 347.602 489.555 347.602C496.244 347.602 502.296 346.168 507.552 343.142C529.929 330.242 534.946 290.027 523.399 239.539C572.772 224.329 605.024 199.801 605.024 174ZM501.34 120.884C498.394 131.157 494.731 141.748 490.59 152.34C487.325 145.969 483.901 139.598 480.158 133.227C476.495 126.857 472.593 120.645 468.691 114.593C479.999 116.265 490.908 118.336 501.34 120.884ZM464.868 205.694C458.657 216.445 452.286 226.638 445.676 236.114C433.811 237.15 421.786 237.707 409.682 237.707C397.657 237.707 385.633 237.15 373.847 236.194C367.237 226.718 360.787 216.604 354.575 205.933C348.523 195.501 343.028 184.91 338.011 174.239C342.949 163.568 348.523 152.897 354.496 142.465C360.707 131.714 367.078 121.521 373.687 112.045C385.553 111.01 397.578 110.452 409.682 110.452C421.707 110.452 433.731 111.01 445.517 111.965C452.127 121.442 458.577 131.555 464.789 142.226C470.841 152.658 476.335 163.249 481.352 173.92C476.335 184.591 470.841 195.262 464.868 205.694ZM490.59 195.342C494.89 206.013 498.553 216.684 501.579 227.036C491.147 229.584 480.158 231.735 468.77 233.407C472.672 227.275 476.574 220.984 480.238 214.534C483.901 208.163 487.325 201.713 490.59 195.342ZM409.841 280.311C402.435 272.666 395.029 264.146 387.703 254.828C394.87 255.147 402.196 255.386 409.602 255.386C417.088 255.386 424.494 255.227 431.741 254.828C424.573 264.146 417.168 272.666 409.841 280.311ZM350.594 233.407C339.286 231.735 328.376 229.664 317.944 227.116C320.89 216.843 324.553 206.252 328.694 195.66C331.959 202.031 335.384 208.402 339.126 214.773C342.869 221.143 346.692 227.355 350.594 233.407ZM409.443 67.6888C416.849 75.3336 424.255 83.8545 431.581 93.1716C424.414 92.8531 417.088 92.6142 409.682 92.6142C402.196 92.6142 394.79 92.7735 387.544 93.1716C394.711 83.8545 402.117 75.3336 409.443 67.6888ZM350.514 114.593C346.612 120.725 342.71 127.016 339.047 133.466C335.384 139.837 331.959 146.208 328.694 152.578C324.394 141.908 320.731 131.237 317.705 120.884C328.137 118.416 339.126 116.265 350.514 114.593ZM278.445 214.295C250.255 202.27 232.019 186.503 232.019 174C232.019 161.497 250.255 145.65 278.445 133.705C285.294 130.759 292.779 128.131 300.504 125.662C305.043 141.27 311.016 157.516 318.422 174.159C311.095 190.723 305.202 206.889 300.743 222.417C292.859 219.949 285.374 217.241 278.445 214.295ZM321.288 328.092C310.458 321.88 305.76 298.229 309.423 267.809C310.299 260.323 311.732 252.439 313.484 244.396C329.092 248.219 346.134 251.165 364.052 253.076C374.802 267.809 385.951 281.187 397.179 292.893C371.219 317.022 346.851 330.242 330.287 330.242C326.703 330.162 323.677 329.445 321.288 328.092ZM510.18 267.411C513.923 297.831 509.304 321.482 498.553 327.773C496.164 329.206 493.059 329.843 489.395 329.843C472.911 329.843 448.464 316.704 422.503 292.734C433.652 281.028 444.8 267.729 455.392 252.997C473.389 251.086 490.431 248.139 506.039 244.237C507.87 252.28 509.304 260.005 510.18 267.411ZM540.839 214.295C533.99 217.241 526.505 219.869 518.78 222.338C514.241 206.73 508.269 190.484 500.863 173.841C508.189 157.277 514.082 141.111 518.541 125.583C526.425 128.051 533.911 130.759 540.919 133.705C569.109 145.73 587.345 161.497 587.345 174C587.265 186.503 569.029 202.35 540.839 214.295Z" fill="#61DAFB"/>
<path d="M409.602 210.393C429.702 210.393 445.995 194.099 445.995 174C445.995 153.901 429.702 137.607 409.602 137.607C389.503 137.607 373.21 153.901 373.21 174C373.21 194.099 389.503 210.393 409.602 210.393Z" fill="#61DAFB"/>
<defs>
<filter id="filter0_d" x="-15.3356" y="31.4277" width="250.764" height="295.065" filterUnits="userSpaceOnUse" color-interpolation-filters="sRGB">
<feFlood flood-opacity="0" result="BackgroundImageFix"/>
<feColorMatrix in="SourceAlpha" type="matrix" values="0 0 0 0 0 0 0 0 0 0 0 0 0 0 0 0 0 0 127 0"/>
<feOffset dx="5" dy="5"/>
<feGaussianBlur stdDeviation="10"/>
<feColorMatrix type="matrix" values="0 0 0 0 0 0 0 0 0 0 0 0 0 0 0 0 0 0 0.25 0"/>
<feBlend mode="normal" in2="BackgroundImageFix" result="effect1_dropShadow"/>
<feBlend mode="normal" in="SourceGraphic" in2="effect1_dropShadow" result="shape"/>
</filter>
</defs>
</svg>
