<svg width="348" height="348" viewBox="0 0 348 348" fill="none" xmlns="http://www.w3.org/2000/svg">
<g clip-path="url(#clip0)">
<circle cx="174.091" cy="173.92" r="174" fill="black"/>
<path d="M331.97 173.953C331.97 153.035 305.775 133.212 265.613 120.919C274.882 79.9845 270.762 47.4174 252.612 36.9908C248.429 34.5451 243.537 33.3866 238.195 33.3866V47.7392C241.156 47.7392 243.537 48.3185 245.533 49.4126C254.286 54.4329 258.083 73.5483 255.122 98.1345C254.414 104.184 253.256 110.556 251.84 117.057C239.225 113.967 225.452 111.586 210.97 110.041C202.281 98.1345 193.271 87.3217 184.196 77.8605C205.178 58.3589 224.872 47.6749 238.26 47.6749V33.3222C220.56 33.3222 197.39 45.9371 173.962 67.8201C150.535 46.0658 127.364 33.5797 109.665 33.5797V47.9323C122.988 47.9323 142.747 58.552 163.729 77.9249C154.718 87.3861 145.708 98.1345 137.147 110.041C122.602 111.586 108.828 113.967 96.2134 117.121C94.733 110.685 93.6389 104.442 92.8665 98.4563C89.8415 73.8701 93.5745 54.7547 102.263 49.6701C104.194 48.5116 106.704 47.9967 109.665 47.9967V33.644C104.259 33.644 99.3671 34.8025 95.1192 37.2483C77.0335 47.6749 72.9788 80.1775 82.3112 120.983C42.2782 133.34 16.2117 153.099 16.2117 173.953C16.2117 194.87 42.4069 214.694 82.5687 226.987C73.3006 267.921 77.4197 300.488 95.5697 310.914C99.7532 313.36 104.645 314.519 110.051 314.519C127.751 314.519 150.921 301.904 174.348 280.021C197.776 301.775 220.946 314.261 238.646 314.261C244.052 314.261 248.944 313.103 253.192 310.657C271.277 300.23 275.332 267.728 266 226.922C305.904 214.629 331.97 194.806 331.97 173.953ZM248.171 131.023C245.79 139.326 242.829 147.886 239.483 156.446C236.844 151.297 234.076 146.148 231.051 140.999C228.091 135.85 224.937 130.83 221.783 125.939C230.922 127.29 239.74 128.964 248.171 131.023ZM218.694 199.569C213.673 208.257 208.525 216.496 203.183 224.155C193.593 224.991 183.874 225.442 174.091 225.442C164.372 225.442 154.654 224.991 145.128 224.219C139.786 216.56 134.573 208.386 129.553 199.762C124.661 191.33 120.22 182.77 116.165 174.146C120.156 165.521 124.661 156.897 129.488 148.465C134.509 139.777 139.658 131.538 145 123.879C154.589 123.042 164.308 122.592 174.091 122.592C183.81 122.592 193.528 123.042 203.054 123.815C208.396 131.474 213.609 139.648 218.629 148.272C223.521 156.704 227.962 165.264 232.017 173.888C227.962 182.513 223.521 191.137 218.694 199.569ZM239.483 191.202C242.958 199.826 245.919 208.451 248.364 216.818C239.933 218.877 231.051 220.615 221.847 221.966C225.001 217.011 228.155 211.926 231.116 206.713C234.076 201.564 236.844 196.35 239.483 191.202ZM174.22 259.876C168.234 253.697 162.248 246.81 156.327 239.28C162.12 239.537 168.041 239.73 174.027 239.73C180.077 239.73 186.062 239.602 191.919 239.28C186.127 246.81 180.141 253.697 174.22 259.876ZM126.335 221.966C117.195 220.615 108.378 218.941 99.9463 216.882C102.328 208.579 105.288 200.019 108.635 191.459C111.274 196.608 114.042 201.757 117.067 206.906C120.092 212.055 123.181 217.075 126.335 221.966ZM173.898 88.0297C179.884 94.2084 185.869 101.095 191.791 108.625C185.998 108.368 180.077 108.175 174.091 108.175C168.041 108.175 162.055 108.304 156.198 108.625C161.991 101.095 167.977 94.2084 173.898 88.0297ZM126.27 125.939C123.117 130.895 119.963 135.979 117.002 141.192C114.042 146.341 111.274 151.49 108.635 156.639C105.16 148.015 102.199 139.39 99.7532 131.023C108.185 129.028 117.067 127.29 126.27 125.939ZM68.0229 206.52C45.2389 196.801 30.5 184.057 30.5 173.953C30.5 163.848 45.2389 151.04 68.0229 141.386C73.558 139.004 79.608 136.88 85.8511 134.885C89.5197 147.5 94.3469 160.63 100.332 174.081C94.4112 187.469 89.6485 200.534 86.0442 213.085C79.6724 211.089 73.6224 208.901 68.0229 206.52ZM102.65 298.493C93.8963 293.472 90.099 274.357 93.0596 249.771C93.7676 243.721 94.9261 237.349 96.3421 230.848C108.957 233.938 122.73 236.319 137.212 237.864C145.901 249.771 154.911 260.583 163.986 270.045C143.004 289.546 123.31 300.23 109.922 300.23C107.026 300.166 104.58 299.587 102.65 298.493ZM255.316 249.449C258.341 274.035 254.608 293.151 245.919 298.235C243.988 299.394 241.478 299.909 238.517 299.909C225.194 299.909 205.435 289.289 184.453 269.916C193.464 260.455 202.475 249.706 211.035 237.799C225.58 236.255 239.354 233.873 251.969 230.72C253.449 237.22 254.608 243.463 255.316 249.449ZM280.095 206.52C274.56 208.901 268.51 211.025 262.267 213.02C258.598 200.405 253.771 187.275 247.785 173.824C253.707 160.437 258.469 147.371 262.074 134.821C268.445 136.816 274.495 139.004 280.159 141.386C302.943 151.104 317.682 163.848 317.682 173.953C317.618 184.057 302.879 196.865 280.095 206.52Z" fill="#61DAFB"/>
<path d="M174.027 203.366C190.271 203.366 203.44 190.197 203.44 173.953C203.44 157.708 190.271 144.539 174.027 144.539C157.782 144.539 144.613 157.708 144.613 173.953C144.613 190.197 157.782 203.366 174.027 203.366Z" fill="#61DAFB"/>
</g>
<defs>
<clipPath id="clip0">
<path d="M0 0H348V348H0V0Z" fill="white"/>
</clipPath>
</defs>
</svg>
